<?xml version="1.0" standalone="no"?><!DOCTYPE svg PUBLIC "-//W3C//DTD SVG 1.1//EN" "http://www.w3.org/Graphics/SVG/1.1/DTD/svg11.dtd" ><svg xmlns="http://www.w3.org/2000/svg"><metadata></metadata><defs><font id="FontForge 2.0 : SourceHanSansCN-Medium : 19-12-2014" horiz-adv-x="1000"><font-face font-family="Source Han Sans CN Medium" font-weight="400" font-stretch="normal" units-per-em="1000" panose-1="0 0 5 0 0 0 0 0 0 0" ascent="1807" descent="-1047" x-height="0" bbox="-3 -247 978 880" underline-thickness="50" underline-position="-125" unicode-range="U+0000-ff1f" /><missing-glyph horiz-adv-x="1000" d="M100 -120 l0 1000 l800 0 l0 -1000 l-800 0 ZM500 421 l318 409 l-636 0 l318 -409 ZM532 380 l318 -409 l0 818 l-318 -409 ZM182 -70 l636 0 l-318 409 l-318 -409 ZM150 789 l0 -818 l318 409 l-318 409 Z" /><glyph glyph-name="exclam" unicode="!" d="M133 235 l-16 400 l-3 118 l116 0 l-4 -118 l-16 -400 l-77 0 ZM226.5 9.5 q-22.5 -22.5 -55.5 -22.5 q-33 0 -54.5 22.5 q-21.5 22.5 -21.5 57.5 q0 35 22 58.5 q22 23.5 54 23.5 q33 0 55.5 -23.5 q22.5 -23.5 22.5 -58.5 q0 -35 -22.5 -57.5 Z" /><glyph glyph-name="percent" unicode="%" d="M333.5 346.5 q-47.5 -62.5 -125.5 -62.5 q-78 0 -125 62 q-47 62 -47 172 q0 109 47 170.5 q47 61.5 125 61.5 q79 0 126 -61.5 q47 -61.5 47 -170.5 q0 -109 -47.5 -171.5 ZM208 352 q41 0 65 42 q24 42 24 124 q0 82 -24 123 q-24 41 -65 41 q-40 0 -64 -41 q-24 -41 -24 -123 q0 -82 24 -124 q24 -42 64 -42 ZM231 -13 l403 763 l73 0 l-404 -763 l-72 0 ZM731 -13 q-79 0 -126 62 q-47 62 -47 171 q0 109 47 170.5 q47 61.5 126 61.5 q78 0 125 -61.5 q47 -61.5 47 -170.5 q0 -109 -47 -171 q-47 -62 -125 -62 ZM731 54 q40 0 64 42 q24 42 24 124 q0 82 -24 123 q-24 41 -64 41 q-41 0 -65 -41 q-24 -41 -24 -123 q0 -82 24 -124 q24 -42 65 -42 Z" /><glyph glyph-name="quotesingle" unicode="&#39;" d="M115 458 l-23 199 l-3 118 l119 0 l-3 -118 l-23 -199 l-67 0 Z" /><glyph glyph-name="parenleft" unicode="(" d="M309 -167 l-72 -32 q-148 242 -148 512 q0 271 148 511 l72 -31 q-126 -211 -126 -480 q0 -270 126 -480 Z" /><glyph glyph-name="parenright" unicode=")" d="M118 -199 l-72 32 q126 210 126 480 q0 269 -126 480 l72 31 q149 -239 149 -511 q0 -271 -149 -512 Z" /><glyph glyph-name="comma" unicode="," d="M79 -200 l-26 65 q51 21 79.5 57 q28.5 36 29.5 80 q-4 -1 -11 -1 q-32 0 -54.5 19.5 q-22.5 19.5 -22.5 54.5 q0 33 23 53.5 q23 20.5 57 20.5 q42 0 65.5 -33 q23.5 -33 23.5 -91 q0 -78 -43 -137 q-43 -59 -121 -88 Z" /><glyph glyph-name="hyphen" unicode="-" d="M47 240 l0 85 l264 0 l0 -85 l-264 0 Z" /><glyph glyph-name="period" unicode="." d="M204 9.5 q-22 -22.5 -55 -22.5 q-33 0 -55 22.5 q-22 22.5 -22 57.5 q0 35 22.5 58.5 q22.5 23.5 54.5 23.5 q32 0 54.5 -23.5 q22.5 -23.5 22.5 -58.5 q0 -35 -22 -57.5 Z" /><glyph glyph-name="slash" unicode="/" d="M12 -180 l278 978 l80 0 l-278 -978 l-80 0 Z" /><glyph glyph-name="zero" unicode="0" d="M459.5 85 q-63.5 -98 -174.5 -98 q-111 0 -174.5 98 q-63.5 98 -63.5 286 q0 187 63 283 q63 96 175 96 q111 0 174.5 -96.5 q63.5 -96.5 63.5 -282.5 q0 -188 -63.5 -286 ZM157 371 q0 -293 128 -293 q128 0 128 293 q0 288 -128 288 q-128 0 -128 -288 Z" /><glyph glyph-name="one" unicode="1" d="M86 0 l0 95 l161 0 l0 512 l-132 0 l0 73 q100 19 160 56 l87 0 l0 -641 l144 0 l0 -95 l-420 0 Z" /><glyph glyph-name="two" unicode="2" d="M44 0 l0 67 q168 148 248.5 258 q80.5 110 80.5 198 q0 62 -32.5 98.5 q-32.5 36.5 -92.5 36.5 q-74 0 -145 -82 l-65 64 q51 55 103.5 82.5 q52.5 27.5 120.5 27.5 q101 0 161.5 -60.5 q60.5 -60.5 60.5 -160.5 q0 -100 -70.5 -207.5 q-70.5 -107.5 -198.5 -230.5 q67 7 120 7 l184 0 l0 -98 l-475 0 Z" /><glyph glyph-name="three" unicode="3" d="M268 -13 q-150 0 -240 101 l56 74 q79 -81 174 -81 q63 0 101.5 33 q38.5 33 38.5 89 q0 66 -50 100.5 q-50 34.5 -168 34.5 l0 85 q193 0 193 129 q0 49 -30.5 77.5 q-30.5 28.5 -82.5 29.5 q-77 -1 -147 -70 l-60 72 q99 89 211 89 q101 0 163 -50 q62 -50 62 -140 q0 -62 -33.5 -106.5 q-33.5 -44.5 -93.5 -66.5 l0 -5 q67 -17 109.5 -65 q42.5 -48 42.5 -119 q0 -97 -70.5 -154 q-70.5 -57 -175.5 -57 Z" /><glyph glyph-name="four" unicode="4" d="M136 287 l202 0 l0 193 q0 22 6 142 l-4 0 q-25 -52 -59 -113 l-145 -222 ZM540 287 l0 -89 l-94 0 l0 -198 l-108 0 l0 198 l-318 0 l0 77 l293 461 l133 0 l0 -449 l94 0 Z" /><glyph glyph-name="six" unicode="6" d="M306 75 q49 0 81.5 41.5 q32.5 41.5 32.5 111.5 q0 72 -31 110 q-31 38 -90 38 q-77 0 -137 -86 q18 -215 144 -215 ZM515 671 l-63 -70 q-21 24 -52 39.5 q-31 15.5 -63 15.5 q-77 0 -125 -66.5 q-48 -66.5 -52 -214.5 q32 39 76 62 q44 23 84 23 q96 0 151.5 -59 q55.5 -59 55.5 -173 q0 -107 -64 -174 q-64 -67 -156 -67 q-111 0 -182.5 94 q-71.5 94 -71.5 273 q0 199 79.5 297.5 q79.5 98.5 198.5 98.5 q109 0 184 -79 Z" /><glyph glyph-name="seven" unicode="7" d="M311 0 l-118 0 q10 207 54 350.5 q44 143.5 148 288.5 l-346 0 l0 97 l474 0 l0 -70 q-64 -80 -104 -152.5 q-40 -72.5 -62.5 -155.5 q-22.5 -83 -31.5 -161 q-9 -78 -14 -197 Z" /><glyph glyph-name="eight" unicode="8" d="M286 -13 q-104 0 -172 55.5 q-68 55.5 -68 140.5 q0 68 37.5 118 q37.5 50 94.5 80 l0 5 q-99 70 -99 172 q0 85 59 137.5 q59 52.5 151 52.5 q95 0 151.5 -54 q56.5 -54 56.5 -141 q0 -52 -28.5 -98 q-28.5 -46 -68.5 -75 l0 -5 q124 -71 124 -195 q0 -83 -66.5 -138 q-66.5 -55 -171.5 -55 ZM334 409 q66 61 66 137 q0 52 -30 85.5 q-30 33.5 -83 33.5 q-46 0 -75.5 -29 q-29.5 -29 -29.5 -78 q0 -55 39 -87.5 q39 -32.5 113 -61.5 ZM288 70 q57 0 92 31 q35 31 35 82 q0 32 -12.5 57 q-12.5 25 -42.5 45 q-30 20 -54 31.5 q-24 11.5 -72 31.5 q-86 -59 -86 -154 q0 -54 40 -89 q40 -35 100 -35 Z" /><glyph glyph-name="colon" unicode=":" d="M203.5 403 q-22.5 -23 -54.5 -23 q-32 0 -54.5 23 q-22.5 23 -22.5 57 q0 35 22.5 58.5 q22.5 23.5 54.5 23.5 q32 0 54.5 -23.5 q22.5 -23.5 22.5 -58.5 q0 -34 -22.5 -57 ZM204 9.5 q-22 -22.5 -55 -22.5 q-33 0 -55 22.5 q-22 22.5 -22 57.5 q0 35 22.5 58.5 q22.5 23.5 54.5 23.5 q32 0 54.5 -23.5 q22.5 -23.5 22.5 -58.5 q0 -35 -22 -57.5 Z" /><glyph glyph-name="semicolon" unicode=";" d="M203.5 403 q-22.5 -23 -54.5 -23 q-32 0 -54.5 23 q-22.5 23 -22.5 57 q0 35 22.5 58.5 q22.5 23.5 54.5 23.5 q32 0 54.5 -23.5 q22.5 -23.5 22.5 -58.5 q0 -34 -22.5 -57 ZM79 -200 l-26 65 q51 21 79.5 57 q28.5 36 29.5 80 q-4 -1 -11 -1 q-32 0 -54.5 19.5 q-22.5 19.5 -22.5 54.5 q0 33 23 53.5 q23 20.5 57 20.5 q42 0 65.5 -33 q23.5 -33 23.5 -91 q0 -78 -43 -137 q-43 -59 -121 -88 Z" /><glyph glyph-name="equal" unicode="=" d="M38 453 l0 84 l494 0 l0 -84 l-494 0 ZM38 205 l0 84 l494 0 l0 -84 l-494 0 Z" /><glyph glyph-name="A" unicode="a" d="M208 301 l201 0 l-29 99 q-19 60 -70 245 l-4 0 q-28 -110 -68 -245 l-30 -99 ZM499 0 l-62 210 l-256 0 l-63 -210 l-118 0 l244 736 l134 0 l244 -736 l-123 0 Z" /><glyph glyph-name="B" unicode="b" d="M97 0 l0 736 l228 0 q260 0 260 -181 q0 -54 -28.5 -98.5 q-28.5 -44.5 -76.5 -60.5 l0 -5 q66 -14 105.5 -58.5 q39.5 -44.5 39.5 -116.5 q0 -106 -77.5 -161 q-77.5 -55 -204.5 -55 l-246 0 ZM213 429 l99 0 q159 0 159 111 q0 57 -38 81.5 q-38 24.5 -118 24.5 l-102 0 l0 -217 ZM213 91 l117 0 q181 0 181 131 q0 119 -181 119 l-117 0 l0 -250 Z" /><glyph glyph-name="C" unicode="c" d="M384 -13 q-143 0 -235 101.5 q-92 101.5 -92 277.5 q0 176 94.5 280 q94.5 104 237.5 104 q124 0 209 -93 l-63 -74 q-64 66 -144 66 q-96 0 -155.5 -75.5 q-59.5 -75.5 -59.5 -203.5 q0 -131 57 -206.5 q57 -75.5 155 -75.5 q91 0 163 78 l62 -73 q-92 -106 -229 -106 Z" /><glyph glyph-name="D" unicode="d" d="M97 0 l0 736 l191 0 q171 0 263 -93 q92 -93 92 -272 q0 -178 -91.5 -274.5 q-91.5 -96.5 -257.5 -96.5 l-197 0 ZM213 95 l67 0 q119 0 181 69.5 q62 69.5 62 206.5 q0 271 -243 271 l-67 0 l0 -547 Z" /><glyph glyph-name="E" unicode="e" d="M97 0 l0 736 l435 0 l0 -97 l-319 0 l0 -205 l270 0 l0 -98 l-270 0 l0 -238 l330 0 l0 -98 l-446 0 Z" /><glyph glyph-name="F" unicode="f" d="M97 0 l0 736 l436 0 l0 -97 l-320 0 l0 -225 l272 0 l0 -97 l-272 0 l0 -317 l-116 0 Z" /><glyph glyph-name="G" unicode="g" d="M397 -13 q-151 0 -245.5 101 q-94.5 101 -94.5 278 q0 176 96.5 280 q96.5 104 246.5 104 q130 0 219 -93 l-63 -74 q-64 66 -152 66 q-104 0 -166 -75 q-62 -75 -62 -204 q0 -133 60 -207.5 q60 -74.5 173 -74.5 q75 0 116 36 l0 173 l-146 0 l0 95 l251 0 l0 -319 q-39 -39 -99.5 -62.5 q-60.5 -23.5 -133.5 -23.5 Z" /><glyph glyph-name="H" unicode="h" d="M97 0 l0 736 l116 0 l0 -300 l315 0 l0 300 l116 0 l0 -736 l-116 0 l0 335 l-315 0 l0 -335 l-116 0 Z" /><glyph glyph-name="I" unicode="i" d="M97 0 l0 736 l116 0 l0 -736 l-116 0 Z" /><glyph glyph-name="K" unicode="k" d="M97 0 l0 736 l116 0 l0 -348 l3 0 l280 348 l129 0 l-228 -284 l266 -452 l-129 0 l-208 360 l-113 -138 l0 -222 l-116 0 Z" /><glyph glyph-name="L" unicode="l" d="M97 0 l0 736 l116 0 l0 -638 l311 0 l0 -98 l-427 0 Z" /><glyph glyph-name="N" unicode="n" d="M97 0 l0 736 l119 0 l244 -432 l77 -156 l5 0 q-15 190 -15 245 l0 343 l110 0 l0 -736 l-119 0 l-244 434 l-77 154 l-5 0 q15 -190 15 -241 l0 -347 l-110 0 Z" /><glyph glyph-name="O" unicode="o" d="M609 91 q-89 -104 -232 -104 q-143 0 -231.5 104 q-88.5 104 -88.5 280 q0 175 88 277 q88 102 232 102 q144 0 232.5 -102 q88.5 -102 88.5 -277 q0 -176 -89 -280 ZM230.5 164.5 q54.5 -76.5 146.5 -76.5 q92 0 147 77 q55 77 55 206 q0 129 -55 203.5 q-55 74.5 -147 74.5 q-92 0 -146.5 -74.5 q-54.5 -74.5 -54.5 -203.5 q0 -130 54.5 -206.5 Z" /><glyph glyph-name="P" unicode="p" d="M97 0 l0 736 l223 0 q281 0 281 -222 q0 -116 -75.5 -175.5 q-75.5 -59.5 -201.5 -59.5 l-111 0 l0 -279 l-116 0 ZM213 372 l100 0 q89 0 131.5 34.5 q42.5 34.5 42.5 107.5 q0 70 -43.5 99.5 q-43.5 29.5 -134.5 29.5 l-96 0 l0 -271 Z" /><glyph glyph-name="R" unicode="r" d="M213 643 l0 -253 l111 0 q165 0 165 133 q0 65 -41 92.5 q-41 27.5 -124 27.5 l-111 0 ZM630 0 l-131 0 l-167 297 l-119 0 l0 -297 l-116 0 l0 736 l241 0 q266 0 266 -213 q0 -163 -154 -211 l180 -312 Z" /><glyph glyph-name="S" unicode="s" d="M307 -13 q-156 0 -262 108 l68 80 q87 -87 196 -87 q66 0 102.5 28.5 q36.5 28.5 36.5 75.5 q0 24 -7.5 41.5 q-7.5 17.5 -27.5 32 q-20 14.5 -34.5 22 q-14.5 7.5 -48.5 22.5 l-102 44 q-150 63 -150 193 q0 87 68.5 145 q68.5 58 173.5 58 q132 0 223 -93 l-61 -74 q-74 66 -162 66 q-57 0 -90.5 -25.5 q-33.5 -25.5 -33.5 -69.5 q0 -23 9 -40 q9 -17 29 -30.5 q20 -13.5 35.5 -21 q15.5 -7.5 45.5 -19.5 l101 -43 q72 -31 111 -77 q39 -46 39 -122 q0 -91 -70.5 -152.5 q-70.5 -61.5 -188.5 -61.5 Z" /><glyph glyph-name="T" unicode="t" d="M247 0 l0 639 l-216 0 l0 97 l549 0 l0 -97 l-217 0 l0 -639 l-116 0 Z" /><glyph glyph-name="U" unicode="u" d="M367 -13 q-274 0 -274 329 l0 420 l116 0 l0 -428 q0 -220 158 -220 q161 0 161 220 l0 428 l112 0 l0 -420 q0 -329 -273 -329 Z" /><glyph glyph-name="V" unicode="v" d="M229 0 l-231 736 l123 0 l109 -381 q12 -39 32.5 -117.5 q20.5 -78.5 34.5 -123.5 l5 0 q14 47 35.5 126 q21.5 79 31.5 115 l109 381 l118 0 l-230 -736 l-137 0 Z" /><glyph glyph-name="Y" unicode="y" d="M218 0 l0 279 l-221 457 l124 0 l85 -195 q49 -118 69 -162 l4 0 q5 13 31 71.5 q26 58.5 39 90.5 l86 195 l121 0 l-222 -457 l0 -279 l-116 0 Z" /><glyph glyph-name="Z" unicode="z" d="M47 0 l0 70 l369 569 l-335 0 l0 97 l478 0 l0 -69 l-368 -569 l372 0 l0 -98 l-516 0 Z" /><glyph glyph-name="a" unicode="a" d="M217 -13 q-72 0 -117 43.5 q-45 43.5 -45 115.5 q0 88 78.5 136.5 q78.5 48.5 250.5 67.5 q-2 120 -105 120 q-71 0 -159 -56 l-43 78 q114 72 222 72 q101 0 150.5 -60.5 q49.5 -60.5 49.5 -172.5 l0 -331 l-94 0 l-10 63 l-3 0 q-88 -76 -175 -76 ZM252 78 q62 0 132 64 l0 135 q-118 -14 -168 -44.5 q-50 -30.5 -50 -78.5 q0 -39 23.5 -57.5 q23.5 -18.5 62.5 -18.5 Z" /><glyph glyph-name="b" unicode="b" d="M343 -13 q-79 0 -152 70 l-3 0 l-11 -57 l-90 0 l0 797 l114 0 l0 -211 l-3 -94 q83 72 164 72 q103 0 160.5 -76 q57.5 -76 57.5 -204 q0 -136 -69.5 -216.5 q-69.5 -80.5 -167.5 -80.5 ZM321 82 q62 0 101 53 q39 53 39 147 q0 186 -129 186 q-63 0 -131 -67 l0 -269 q57 -50 120 -50 Z" /><glyph glyph-name="c" unicode="c" d="M311 -13 q-115 0 -189 77 q-74 77 -74 210 q0 133 79 211.5 q79 78.5 193 78.5 q89 0 161 -63 l-57 -75 q-48 43 -99 43 q-69 0 -113.5 -54 q-44.5 -54 -44.5 -141 q0 -87 43 -140 q43 -53 112 -53 q61 0 120 50 l47 -76 q-76 -68 -178 -68 Z" /><glyph glyph-name="d" unicode="d" d="M277 -13 q-105 0 -166 76 q-61 76 -61 211 q0 130 70 210 q70 80 166 80 q75 0 148 -62 l-5 91 l0 204 l115 0 l0 -797 l-94 0 l-10 62 l-3 0 q-73 -75 -160 -75 ZM304 82 q67 0 125 67 l0 269 q-55 50 -121 50 q-59 0 -99 -52.5 q-40 -52.5 -40 -139.5 q0 -93 35 -143.5 q35 -50.5 100 -50.5 Z" /><glyph glyph-name="e" unicode="e" d="M316 -13 q-115 0 -191.5 77.5 q-76.5 77.5 -76.5 209.5 q0 129 75 209.5 q75 80.5 176 80.5 q107 0 165.5 -70.5 q58.5 -70.5 58.5 -190.5 q0 -36 -5 -58 l-357 0 q7 -78 52.5 -123 q45.5 -45 117.5 -45 q68 0 131 41 l40 -73 q-87 -58 -186 -58 ZM160 324 l264 0 q0 72 -31.5 111 q-31.5 39 -91.5 39 q-54 0 -93.5 -40 q-39.5 -40 -47.5 -110 Z" /><glyph glyph-name="f" unicode="f" d="M377 791 l-23 -86 q-31 14 -60 14 q-73 0 -73 -99 l0 -70 l111 0 l0 -92 l-111 0 l0 -458 l-115 0 l0 458 l-75 0 l0 86 l75 6 l0 69 q0 89 42.5 140 q42.5 51 131.5 51 q54 0 97 -19 Z" /><glyph glyph-name="g" unicode="g" d="M275 -247 q-103 0 -165.5 37.5 q-62.5 37.5 -62.5 107.5 q0 71 80 120 l0 5 q-50 30 -50 91 q0 57 61 102 l0 4 q-31 24 -51.5 62 q-20.5 38 -20.5 84 q0 91 62 144.5 q62 53.5 151 53.5 q43 0 80 -14 l195 0 l0 -86 l-105 0 q36 -38 36 -101 q0 -87 -58.5 -138 q-58.5 -51 -147.5 -51 q-40 0 -77 17 q-30 -27 -30 -58 q0 -54 92 -54 l101 0 q198 0 198 -134 q0 -82 -79.5 -137 q-79.5 -55 -208.5 -55 ZM205 280.5 q30 -32.5 74 -32.5 q44 0 74 32.5 q30 32.5 30 85.5 q0 54 -29.5 85.5 q-29.5 31.5 -74.5 31.5 q-45 0 -74.5 -31 q-29.5 -31 -29.5 -86 q0 -53 30 -85.5 ZM292 -171 q70 0 115 29 q45 29 45 69 q0 33 -25 46.5 q-25 13.5 -78 13.5 l-83 0 q-37 0 -74 8 q-47 -34 -47 -80 q0 -40 39.5 -63 q39.5 -23 107.5 -23 Z" /><glyph glyph-name="h" unicode="h" d="M87 0 l0 797 l114 0 l0 -211 l-4 -109 q91 87 178 87 q169 0 169 -218 l0 -346 l-115 0 l0 332 q0 71 -22 102 q-22 31 -71 31 q-36 0 -65.5 -17.5 q-29.5 -17.5 -69.5 -57.5 l0 -390 l-114 0 Z" /><glyph glyph-name="i" unicode="i" d="M87 0 l0 550 l114 0 l0 -550 l-114 0 ZM197 672 q-21 -19 -53 -19 q-32 0 -52.5 19 q-20.5 19 -20.5 49 q0 30 20.5 49 q20.5 19 52.5 19 q32 0 53 -19 q21 -19 21 -49 q0 -30 -21 -49 Z" /><glyph glyph-name="k" unicode="k" d="M87 0 l0 797 l112 0 l0 -514 l3 0 l216 267 l127 0 l-187 -223 l208 -327 l-125 0 l-149 249 l-93 -107 l0 -142 l-112 0 Z" /><glyph glyph-name="l" unicode="l" d="M201 -13 q-114 0 -114 142 l0 668 l114 0 l0 -674 q0 -42 28 -42 q9 0 19 2 l15 -87 q-25 -9 -62 -9 Z" /><glyph glyph-name="m" unicode="m" d="M87 0 l0 550 l94 0 l9 -77 l3 0 q86 91 170 91 q114 0 152 -101 q94 101 179 101 q169 0 169 -218 l0 -346 l-115 0 l0 332 q0 70 -22.5 101.5 q-22.5 31.5 -69.5 31.5 q-55 0 -124 -75 l0 -390 l-115 0 l0 332 q0 71 -22 102 q-22 31 -70 31 q-55 0 -124 -75 l0 -390 l-114 0 Z" /><glyph glyph-name="n" unicode="n" d="M87 0 l0 550 l94 0 l9 -76 l3 0 q94 90 182 90 q169 0 169 -218 l0 -346 l-115 0 l0 332 q0 71 -22 102 q-22 31 -71 31 q-36 0 -65.5 -17.5 q-29.5 -17.5 -69.5 -57.5 l0 -390 l-114 0 Z" /><glyph glyph-name="o" unicode="o" d="M490 65 q-76 -78 -183 -78 q-107 0 -183 78 q-76 78 -76 209 q0 133 76 211.5 q76 78.5 183 78.5 q107 0 183 -78.5 q76 -78.5 76 -211.5 q0 -131 -76 -209 ZM307 81 q65 0 103 52.5 q38 52.5 38 140.5 q0 88 -38 141.5 q-38 53.5 -103 53.5 q-64 0 -102 -53.5 q-38 -53.5 -38 -141.5 q0 -87 38 -140 q38 -53 102 -53 Z" /><glyph glyph-name="p" unicode="p" d="M87 -223 l0 773 l94 0 l9 -60 l3 0 q89 74 169 74 q103 0 160.5 -75.5 q57.5 -75.5 57.5 -204.5 q0 -136 -69.5 -216.5 q-69.5 -80.5 -167.5 -80.5 q-72 0 -145 62 l3 -94 l0 -178 l-114 0 ZM201 132 q58 -50 120 -50 q62 0 101 53 q39 53 39 147 q0 186 -129 186 q-61 0 -131 -67 l0 -269 Z" /><glyph glyph-name="r" unicode="r" d="M87 0 l0 550 l94 0 l9 -99 l3 0 q29 53 70.5 83 q41.5 30 85.5 30 q37 0 62 -12 l-21 -100 q-29 9 -55 9 q-37 0 -73 -28.5 q-36 -28.5 -61 -89.5 l0 -343 l-114 0 Z" /><glyph glyph-name="s" unicode="s" d="M236 -13 q-115 0 -207 76 l54 74 q79 -63 156 -63 q48 0 72.5 20.5 q24.5 20.5 24.5 53.5 q0 14 -8 27 q-8 13 -16.5 21 q-8.5 8 -29.5 18.5 q-21 10.5 -31 14.5 q-10 4 -37 14 q-34 13 -56.5 24.5 q-22.5 11.5 -48.5 30.5 q-26 19 -39 45.5 q-13 26.5 -13 59.5 q0 70 53 115.5 q53 45.5 142 45.5 q95 0 179 -65 l-54 -71 q-65 48 -123 48 q-43 0 -65.5 -19 q-22.5 -19 -22.5 -49 q0 -21 18 -38 q18 -17 33.5 -23.5 q15.5 -6.5 55.5 -21.5 q7 -3 10 -4 q38 -14 59.5 -24.5 q21.5 -10.5 49 -30 q27.5 -19.5 40.5 -47.5 q13 -28 13 -65 q0 -72 -55.5 -119.5 q-55.5 -47.5 -153.5 -47.5 Z" /><glyph glyph-name="t" unicode="t" d="M272 -13 q-167 0 -167 193 l0 278 l-80 0 l0 86 l85 6 l13 152 l97 0 l0 -152 l143 0 l0 -92 l-143 0 l0 -279 q0 -100 80 -100 q29 0 59 13 l21 -85 q-62 -20 -108 -20 Z" /><glyph glyph-name="u" unicode="u" d="M248 -13 q-168 0 -168 217 l0 346 l115 0 l0 -332 q0 -71 21.5 -101.5 q21.5 -30.5 70.5 -30.5 q38 0 67.5 19 q29.5 19 64.5 63 l0 382 l115 0 l0 -550 l-94 0 l-9 83 l-3 0 q-83 -96 -180 -96 Z" /><glyph glyph-name="v" unicode="v" d="M208 0 l-195 550 l118 0 l94 -296 q9 -32 48 -164 l4 0 q39 132 48 164 l94 296 l112 0 l-190 -550 l-133 0 Z" /><glyph glyph-name="w" unicode="w" d="M176 0 l-149 550 l116 0 l73 -298 q5 -24 10 -50 q5 -26 11 -57.5 q6 -31.5 9 -48.5 l4 0 q4 17 11 49 q7 32 13 58 q6 26 12 49 l77 298 l107 0 l79 -298 q6 -24 18 -76 q12 -52 19 -80 l4 0 q4 19 14.5 72.5 q10.5 53.5 17.5 83.5 l71 298 l108 0 l-142 -550 l-138 0 l-70 272 q-10 39 -35 159 l-5 0 q-20 -106 -35 -160 l-67 -271 l-133 0 Z" /><glyph glyph-name="braceleft" unicode="{" d="M315 -171 l-56 0 q-72 0 -103.5 33.5 q-31.5 33.5 -31.5 119.5 q0 41 5 107 q5 66 5 102 q0 37 -22.5 61.5 q-22.5 24.5 -74.5 25.5 l0 70 q52 1 74.5 25 q22.5 24 22.5 60 q0 37 -5 103 q-5 66 -5 107 q0 86 31.5 119.5 q31.5 33.5 103.5 33.5 l56 0 l0 -63 l-26 0 q-42 0 -57 -21 q-15 -21 -15 -75 q0 -31 3 -95 q3 -64 3 -102 q0 -58 -17 -86.5 q-17 -28.5 -56 -38.5 l0 -5 q39 -10 56 -39 q17 -29 17 -86 q0 -38 -3 -102 q-3 -64 -3 -95 q0 -54 15 -74.5 q15 -20.5 57 -20.5 l26 0 l0 -64 Z" /><glyph glyph-name="braceright" unicode="}" d="M40 -171 l0 64 l26 0 q42 0 57 20.5 q15 20.5 15 74.5 q0 31 -2.5 95 q-2.5 64 -2.5 102 q0 57 16.5 86 q16.5 29 55.5 39 l0 5 q-39 10 -55.5 38.5 q-16.5 28.5 -16.5 86.5 q0 38 2.5 102 q2.5 64 2.5 95 q0 54 -15 75 q-15 21 -57 21 l-26 0 l0 63 l56 0 q72 0 104 -33.5 q32 -33.5 32 -119.5 q0 -41 -5 -107 q-5 -66 -5 -103 q0 -36 22 -60 q22 -24 74 -25 l0 -70 q-52 -1 -74 -25.5 q-22 -24.5 -22 -61.5 q0 -36 5 -102 q5 -66 5 -107 q0 -86 -32 -119.5 q-32 -33.5 -104 -33.5 l-56 0 Z" /><glyph glyph-name="cid01390" unicode="&#x3001;" d="M350 11 l-85 -72 q-98 120 -218 221 l82 72 q118 -97 221 -221 Z" /><glyph glyph-name="cid01391" unicode="&#x3002;" d="M194 246 q65 0 110.5 -46 q45.5 -46 45.5 -111 q0 -65 -45.5 -110.5 q-45.5 -45.5 -110.5 -45.5 q-64 0 -110 45.5 q-46 45.5 -46 110.5 q0 65 46 111 q46 46 110 46 ZM126 21 q28 -28 68 -28 q40 0 68 28 q28 28 28 68 q0 40 -28 68 q-28 28 -68 28 q-40 0 -68 -28 q-28 -28 -28 -68 q0 -40 28 -68 Z" /><glyph glyph-name="cid09831" unicode="&#x4e00;" d="M47 441 l910 0 l0 -102 l-910 0 l0 102 Z" /><glyph glyph-name="cid09842" unicode="&#x4e09;" d="M126 744 l750 0 l0 -95 l-750 0 l0 95 ZM191 423 l607 0 l0 -95 l-607 0 l0 95 ZM69 82 l860 0 l0 -94 l-860 0 l0 94 Z" /><glyph glyph-name="cid09843" unicode="&#x4e0a;" d="M518 63 l430 0 l0 -94 l-895 0 l0 94 l365 0 l0 762 l100 0 l0 -297 l361 0 l0 -93 l-361 0 l0 -372 Z" /><glyph glyph-name="cid09844" unicode="&#x4e0b;" d="M942 672 l-413 0 l0 -169 l17 20 q91 -44 192 -102.5 q101 -58.5 156 -101.5 l-68 -85 q-94 79 -297 192 l0 -503 l-99 0 l0 749 l-371 0 l0 95 l883 0 l0 -95 Z" /><glyph glyph-name="cid09846" unicode="&#x4e0d;" d="M928 676 l-312 0 q-47 -76 -66 -103 l0 -651 l-101 0 l0 525 q-154 -171 -341 -270 q-29 48 -64 83 q139 68 257.5 179 q118.5 111 192.5 237 l-422 0 l0 95 l856 0 l0 -95 ZM554 464 l70 60 q95 -64 190.5 -137.5 q95.5 -73.5 146.5 -127.5 l-78 -72 q-99 113 -329 277 Z" /><glyph glyph-name="cid09848" unicode="&#x4e0e;" d="M676 249 l0 -89 l-617 0 l0 89 l617 0 ZM283 460 l613 0 q-1 -29 -4 -43 q-19 -209 -41.5 -309 q-22.5 -100 -57.5 -134 q-36 -36 -104 -40 q-62 -5 -181 2 q-4 48 -35 93 q88 -8 187 -8 q38 0 53 12 q52 42 80 341 l-629 0 q53 193 94 445 l95 -9 q-18 -96 -19 -101 l542 0 l0 -89 l-559 0 q-13 -68 -34 -160 Z" /><glyph glyph-name="cid09857" unicode="&#x4e13;" d="M930 456 l-528 0 q-27 -87 -31 -100 l411 0 l16 5 l70 -42 q-96 -103 -252 -252 q96 -37 152 -69 l-55 -81 q-73 44 -206.5 97 q-133.5 53 -251.5 86 l51 70 q107 -27 215 -67 q97 92 171 166 l-454 0 q28 73 65 187 l-244 0 l0 89 l272 0 q5 17 15.5 51.5 q10.5 34.5 15.5 51.5 l-223 0 l0 89 l247 0 q1 4 11 43 q10 39 15 58 l99 0 q-3 -10 -12.5 -45.5 q-9.5 -35.5 -15.5 -55.5 l375 0 l0 -89 l-399 0 q-8 -24 -31 -103 l502 0 l0 -89 Z" /><glyph glyph-name="cid09868" unicode="&#x4e1a;" d="M841 617 l85 -41 q-78 -199 -166 -351 l-77 40 q100 172 158 352 ZM301 266 l-93 -34 q-37 147 -128 361 l85 27 q99 -225 136 -354 ZM671 62 l269 0 l0 -92 l-879 0 l0 92 l269 0 l0 764 l95 0 l0 -764 l151 0 l0 763 l95 0 l0 -763 Z" /><glyph glyph-name="cid09889" unicode="&#x4e2a;" d="M451 -78 l0 612 l96 0 l0 -612 l-96 0 ZM503 840 l83 -39 q-18 -32 -29 -47 q171 -186 412 -295 q-45 -38 -68 -87 q-216 110 -399 308 q-161 -196 -398 -306 q-30 50 -69 88 q146 59 270.5 157.5 q124.5 98.5 197.5 220.5 Z" /><glyph glyph-name="cid09893" unicode="&#x4e2d;" d="M546 331 l260 0 l0 242 l-260 0 l0 -242 ZM190 331 l259 0 l0 242 l-259 0 l0 -242 ZM546 664 l357 0 l0 -478 l-97 0 l0 54 l-260 0 l0 -318 l-97 0 l0 318 l-259 0 l0 -59 l-93 0 l0 483 l352 0 l0 174 l97 0 l0 -174 Z" /><glyph glyph-name="cid09913" unicode="&#x4e3a;" d="M339 665 l-86 -38 q-28 62 -98 151 l80 34 q72 -81 104 -147 ZM492 603 l410 0 q0 -33 -1 -46 q-12 -305 -25 -424.5 q-13 -119.5 -42 -153.5 q-31 -40 -89 -46 q-42 -6 -158 0 q-4 50 -33 96 q65 -5 150 -5 q28 -1 43 15 q22 22 34 127.5 q12 105.5 21 343.5 l-319 0 q-49 -374 -352 -573 q-32 42 -74 67 q280 179 330 506 l-304 0 l0 93 l315 0 q3 57 3 109 l0 124 l94 0 l0 -124 q0 -52 -3 -109 ZM700 214 l-82 -43 q-38 83 -127 192 l79 37 q90 -105 130 -186 Z" /><glyph glyph-name="cid09914" unicode="&#x4e3b;" d="M551 45 l394 0 l0 -91 l-886 0 l0 91 l390 0 l0 221 l-297 0 l0 90 l297 0 l0 199 l-345 0 l0 91 l420 0 q-68 73 -161 139 l76 53 q50 -34 103.5 -78.5 q53.5 -44.5 83.5 -78.5 l-49 -35 l318 0 l0 -91 l-344 0 l0 -199 l300 0 l0 -90 l-300 0 l0 -221 Z" /><glyph glyph-name="cid09917" unicode="&#x4e3d;" d="M197 393 l72 28 q68 -118 99 -196 l-76 -34 q-24 70 -95 202 ZM460 605 l0 -576 q0 -67 -37 -86 q-33 -17 -130 -17 q-6 52 -26 90 q60 -3 85 -1 q16 0 16 16 l0 489 l-175 0 l0 -599 l-87 0 l0 684 l354 0 ZM901 605 l0 -577 q0 -68 -37 -86 q-32 -16 -138 -16 q-7 54 -24 87 q38 -1 90 -1 q16 1 16 17 l0 491 l-185 0 l0 -599 l-87 0 l0 684 l365 0 ZM800 220 l-72 -33 q-24 67 -98 198 l70 27 q65 -108 100 -192 ZM55 783 l891 0 l0 -89 l-891 0 l0 89 Z" /><glyph glyph-name="cid09929" unicode="&#x4e45;" d="M629 688 l67 -31 q-37 -146 -94 -259 q53 -133 148.5 -237.5 q95.5 -104.5 216.5 -154.5 q-38 -32 -68 -83 q-224 109 -352 375 q-163 -259 -430 -379 q-10 18 -32.5 43.5 q-22.5 25.5 -39.5 39.5 q187 77 325 225.5 q138 148.5 202 361.5 l-237 0 q-96 -180 -218 -288 q-12 14 -38 35.5 q-26 21.5 -45 33.5 q98 77 174.5 200 q76.5 123 120.5 269 l101 -24 q-26 -77 -50 -132 l231 0 l18 5 Z" /><glyph glyph-name="cid09934" unicode="&#x4e48;" d="M434 830 l96 -35 q-76 -120 -182.5 -239.5 q-106.5 -119.5 -215.5 -201.5 q-42 45 -73 67 q108 76 211.5 190 q103.5 114 163.5 219 ZM949 -17 l-89 -49 q-20 45 -52 101 q-85 -7 -168 -14 q-83 -7 -136.5 -11 q-53.5 -4 -105.5 -8.5 q-52 -4.5 -82.5 -7 q-30.5 -2.5 -60 -5 q-29.5 -2.5 -45 -4.5 q-15.5 -2 -30 -4 q-14.5 -2 -22.5 -4 q-8 -2 -15 -5 q-20 58 -39 94 q37 9 136 95 q66 54 192.5 194.5 q126.5 140.5 226.5 287.5 l97 -47 q-209 -289 -462 -509 l462 34 q-59 96 -123 177 l85 41 q68 -85 133 -184.5 q65 -99.5 98 -171.5 Z" /><glyph glyph-name="cid09939" unicode="&#x4e4b;" d="M339 91 l13 -8 q43 -28 103 -37.5 q60 -9.5 152 -9.5 q194 0 354 20 q-23 -53 -27 -100 q-146 -10 -331 -10 q-94 0 -156.5 11.5 q-62.5 11.5 -111.5 41.5 q-14 9 -36 25.5 q-22 16.5 -35.5 25 q-13.5 8.5 -23.5 8.5 q-35 0 -121 -127 l-68 87 q118 128 192 128 q7 0 11 -1 q126 74 253 187.5 q127 113.5 212 223.5 l-618 0 l0 91 l405 0 q-40 74 -99 155 l83 44 q79 -104 110 -162 l-66 -37 l256 0 l18 5 l71 -46 q-91 -137 -239 -277.5 q-148 -140.5 -301 -237.5 Z" /><glyph glyph-name="cid09972" unicode="&#x4e60;" d="M692 342 l17 -86 q-117 -43 -574 -204 l-33 94 q239 74 590 196 ZM229 555 l62 60 q187 -129 258 -194 l-66 -71 q-73 73 -254 205 ZM892 773 l0 -51 q-5 -401 -15.5 -548 q-10.5 -147 -38.5 -186 q-32 -47 -91 -55 q-43 -4 -170 0 q0 45 -30 89 q73 -5 163 -5 q25 -1 41 17 q23 24 32 165 q9 141 14 485 l-679 0 l0 89 l774 0 Z" /><glyph glyph-name="cid10027" unicode="&#x4e86;" d="M823 770 l74 -54 q-66 -72 -158.5 -145 q-92.5 -73 -185.5 -126 l0 -411 q0 -43 -13 -65.5 q-13 -22.5 -45 -32.5 q-50 -18 -210 -16 q-6 43 -37 94 q54 -2 110.5 -2.5 q56.5 -0.5 68.5 0.5 q16 1 22.5 6 q6.5 5 6.5 18 l0 456 q140 72 255 181 l-611 0 l0 92 l702 0 l21 5 Z" /><glyph glyph-name="cid10037" unicode="&#x4e8e;" d="M943 449 l0 -92 l-384 0 l0 -309 q0 -46 -13 -70 q-13 -24 -44 -35 q-46 -18 -210 -18 q-9 49 -39 98 q107 -4 178 -1 q16 0 23 6 q7 6 7 21 l0 308 l-403 0 l0 92 l403 0 l0 230 l-335 0 l0 92 l749 0 l0 -92 l-316 0 l0 -230 l384 0 Z" /><glyph glyph-name="cid10056" unicode="&#x4e9b;" d="M828 327 l-154 0 q-77 0 -103.5 27 q-26.5 27 -26.5 103 l0 382 l93 0 l0 -186 q127 42 204 90 l72 -74 q-103 -49 -276 -101 l0 -111 q0 -27 8.5 -34.5 q8.5 -7.5 39.5 -7.5 l136 0 q27 0 35 22.5 q8 22.5 12 102.5 q38 -27 85 -36 q-9 -104 -34.5 -140.5 q-25.5 -36.5 -90.5 -36.5 ZM169 160 l0 89 l672 0 l0 -89 l-672 0 ZM505 439 l2 -86 q-234 -30 -454 -56 l-11 92 l62 5 l0 339 l86 0 l0 -330 l75 8 l0 428 l92 0 l0 -162 l140 0 l0 -83 l-140 0 l0 -172 l148 17 ZM57 -56 l0 92 l887 0 l0 -92 l-887 0 Z" /><glyph glyph-name="cid10081" unicode="&#x4ea7;" d="M903 727 l0 -89 l-792 0 l0 89 l359 0 q-27 57 -53 90 l94 25 q46 -57 71 -115 l321 0 ZM928 466 l0 -91 l-708 0 l0 -47 q0 -275 -107 -417 q-11 14 -36 35.5 q-25 21.5 -41 30.5 q87 117 87 353 l0 136 l215 0 q-25 62 -79 137 l81 33 q62 -79 86 -138 l-71 -32 l248 0 q49 84 77 164 l103 -33 q-79 -122 -85 -131 l230 0 Z" /><glyph glyph-name="cid10093" unicode="&#x4eae;" d="M939 752 l0 -77 l-879 0 l0 77 l403 0 q-14 35 -37 74 l94 20 q29 -45 49 -94 l370 0 ZM924 197 l-92 0 l0 102 l-669 0 l0 -103 l-88 0 l0 176 l849 0 l0 -175 ZM708 489 l0 73 l-416 0 l0 -73 l416 0 ZM200 625 l606 0 l0 -200 l-606 0 l0 200 ZM736 18 l86 0 q20 0 26 19 q6 19 8 86 q35 -26 84 -35 q-7 -89 -29 -119.5 q-22 -30.5 -78 -30.5 l-112 0 q-70 0 -93.5 23 q-23.5 23 -23.5 87 l0 117 l-219 0 q-15 -105 -74.5 -160.5 q-59.5 -55.5 -202.5 -83.5 q-15 45 -50 78 q76 13 121.5 31 q45.5 18 70.5 49 q25 31 34 66.5 q9 35.5 12 96.5 l407 0 l0 -193 q0 -21 6 -26 q6 -5 27 -5 Z" /><glyph glyph-name="cid10115" unicode="&#x4eba;" d="M442 836 l106 0 q-3 -96 -7 -149 q4 -35 9.5 -69 q5.5 -34 20 -92.5 q14.5 -58.5 33.5 -110 q19 -51.5 52 -114 q33 -62.5 74.5 -113.5 q41.5 -51 102 -99.5 q60.5 -48.5 132.5 -80.5 q-45 -35 -68 -79 q-286 135 -397 510 q-95 -356 -382 -515 q-28 43 -77 74 q81 42 145.5 100.5 q64.5 58.5 105.5 119 q41 60.5 70.5 132 q29.5 71.5 44 133 q14.5 61.5 23 129 q8.5 67.5 10 112.5 q1.5 45 2.5 91 q0 5 0 7.5 q0 2.5 0 6.5 q0 4 0 7 Z" /><glyph glyph-name="cid10129" unicode="&#x4ec5;" d="M285 833 l92 -29 q-42 -102 -103 -209 l0 -671 l-92 0 l0 533 q-45 -59 -101 -115 q-25 57 -55 96 q77 71 146.5 176 q69.5 105 112.5 219 ZM812 646 l-327 0 q54 -236 160 -388 q119 161 167 388 ZM856 737 l61 -21 q-52 -326 -213 -533 q114 -125 268 -179 q-31 -26 -61 -76 q-156 62 -268 185 q-121 -122 -284 -190 q-27 51 -56 76 q159 57 282 186 q-119 168 -188 453 l37 8 l-64 0 l0 86 l470 0 l16 5 Z" /><glyph glyph-name="cid10146" unicode="&#x4ece;" d="M517 233 l-70 -68 q-40 87 -135 214 q-53 -299 -183 -455 q-11 12 -41 33 q-30 21 -50 32 q112 118 157.5 320 q45.5 202 56.5 511 l102 -4 q-8 -177 -25 -317 q129 -147 188 -266 ZM634 821 l102 -5 q-11 -180 -31 -321 q74 -350 255 -474 q-40 -38 -69 -85 q-142 114 -224 369 q-64 -244 -203 -379 q-33 31 -91 66 q133 112 189 312.5 q56 200.5 72 516.5 Z" /><glyph glyph-name="cid10180" unicode="&#x4ee5;" d="M599 513 l-84 -50 q-45 107 -146 236 l79 43 q104 -125 151 -229 ZM258 190 l212 102 q9 -48 24 -87 q-205 -103 -268 -137.5 q-63 -34.5 -84 -55.5 q-17 41 -51 75 q66 44 66 100 l0 579 l101 0 l0 -576 ZM968 -14 l-83 -62 q-55 90 -186 225 q-94 -148 -277 -234 q-9 15 -32 41.5 q-23 26.5 -39 39.5 q77 31 136 72 q59 41 101.5 96 q42.5 55 71.5 117.5 q29 62.5 47.5 145.5 q18.5 83 28 170 q9.5 87 14.5 201 l99 -4 q-21 -375 -105 -560 q165 -161 224 -248 Z" /><glyph glyph-name="cid10185" unicode="&#x4eea;" d="M720 624 l-78 -43 q-31 88 -105 200 l74 37 q80 -109 109 -194 ZM259 835 l87 -26 q-38 -101 -99 -212 l0 -674 l-88 0 l0 537 q-40 -57 -86 -104 q-20 48 -51 94 q70 69 133 172 q63 103 104 213 ZM824 780 l93 -15 q-34 -185 -86.5 -328.5 q-52.5 -143.5 -139.5 -253.5 q110 -124 275 -183 q-37 -30 -66 -80 q-160 64 -275 188 q-119 -118 -293 -188 q-20 35 -57 72 q178 68 293 187 q-142 202 -206 574 l88 13 q53 -325 184 -511 q136 185 190 525 Z" /><glyph glyph-name="cid10205" unicode="&#x4ef6;" d="M260 835 l87 -26 q-37 -103 -98 -216 l0 -670 l-88 0 l0 530 q-40 -56 -78 -97 q-22 55 -51 94 q68 70 128.5 172.5 q60.5 102.5 99.5 212.5 ZM954 352 l0 -91 l-265 0 l0 -339 l-93 0 l0 339 l-277 0 l0 91 l277 0 l0 198 l-142 0 q-33 -90 -67 -141 q-32 23 -80 45 q81 115 119 333 l90 -18 q-13 -60 -32 -128 l112 0 l0 186 l93 0 l0 -186 l220 0 l0 -91 l-220 0 l0 -198 l265 0 Z" /><glyph glyph-name="cid10207" unicode="&#x4ef7;" d="M262 838 l87 -26 q-42 -113 -96 -214 l0 -676 l-93 0 l0 526 q-48 -64 -72 -89 q-6 17 -22.5 47.5 q-16.5 30.5 -28.5 46.5 q67 70 127 172.5 q60 102.5 98 212.5 ZM435 312 l0 134 l94 0 l0 -135 q0 -264 -172 -398 q-30 39 -70 66 q148 104 148 333 ZM711 -77 l0 525 l96 0 l0 -525 l-96 0 ZM588 842 l98 -17 q-4 -11 -19 -46 q51 -88 134 -167.5 q83 -79.5 169 -124.5 q-35 -29 -65 -74 q-77 46 -152.5 120.5 q-75.5 74.5 -132.5 161.5 q-114 -186 -305 -296 q-19 42 -57 76 q125 68 208 165 q83 97 122 202 Z" /><glyph glyph-name="cid10240" unicode="&#x4f0d;" d="M265 836 l86 -27 q-35 -94 -91 -198 l0 -689 l-90 0 l0 544 q-43 -62 -94 -116 q-18 53 -49 95 q71 71 134.5 175.5 q63.5 104.5 103.5 215.5 ZM774 365 l-180 0 q-22 -147 -54 -317 l204 0 q22 190 30 317 ZM838 48 l122 0 l0 -87 l-651 0 l0 87 l136 0 q25 117 56 317 l-142 0 l0 87 l156 0 q15 108 30 223 l-194 0 l0 87 l576 0 l0 -87 l-287 0 q-27 -188 -32 -223 l181 0 l16 4 l68 -6 q-9 -172 -35 -402 Z" /><glyph glyph-name="cid10255" unicode="&#x4f18;" d="M895 670 l-68 -53 q-46 70 -131 153 l64 45 q90 -80 135 -145 ZM262 835 l88 -26 q-38 -106 -102 -223 l0 -664 l-89 0 l0 523 q-38 -52 -72 -89 q-6 17 -22.5 47.5 q-16.5 30.5 -28.5 46.5 q68 70 128 172.5 q60 102.5 98 212.5 ZM948 519 l-353 0 q-15 -207 -72 -355 q-57 -148 -185 -241 q-22 38 -67 71 q116 80 168 210.5 q52 130.5 65 314.5 l-209 0 l0 88 l214 0 q3 108 3 219 l92 0 q0 -123 -4 -219 l348 0 l0 -88 ZM753 32 l85 0 q21 0 27 26.5 q6 26.5 9 126.5 q23 -21 82 -38 q-7 -118 -29 -159 q-22 -41 -81 -41 l-106 0 q-65 0 -87.5 25.5 q-22.5 25.5 -22.5 96.5 l0 379 l91 0 l0 -379 q0 -23 6 -30 q6 -7 26 -7 Z" /><glyph glyph-name="cid10260" unicode="&#x4f1a;" d="M94 254 l0 91 l819 0 l0 -91 l-428 0 q-83 -109 -182 -199 l407 28 q-50 58 -103 106 l79 41 q65 -57 128 -129 q63 -72 97 -128 l-84 -51 q-26 46 -52 79 q-521 -41 -570 -49 q-26 -4 -43 -11 q-19 67 -32 95 q28 6 76 51 q63 54 152 167 l-264 0 ZM304 536 l407 0 q-120 76 -209 164 q-81 -86 -198 -164 ZM501 841 l86 -39 q-9 -14 -31 -42 q74 -69 185 -135.5 q111 -66.5 222 -104.5 q-40 -36 -65 -81 q-79 32 -162 81 l0 -70 l-468 0 l0 63 q-75 -45 -160 -85 q-26 47 -66 82 q146 59 268.5 146.5 q122.5 87.5 190.5 184.5 Z" /><glyph glyph-name="cid10267" unicode="&#x4f20;" d="M258 835 l87 -27 q-39 -103 -100 -212 l0 -674 l-90 0 l0 534 q-40 -55 -83 -101 q-19 47 -51 95 q70 69 133 172 q63 103 104 213 ZM953 456 l-395 0 q-5 -19 -15.5 -53.5 q-10.5 -34.5 -14.5 -50.5 l303 0 l14 5 l64 -41 q-82 -97 -220 -242 q61 -43 104 -85 l-67 -70 q-41 43 -117 102 q-76 59 -148 103 l65 56 q34 -19 90 -56 q95 99 132 141 l-346 0 q26 77 61 191 l-169 0 l0 86 l193 0 q13 42 27 101 l-163 0 l0 85 l186 0 l26 104 l92 -13 q-12 -49 -24 -91 l274 0 l0 -85 l-296 0 q-5 -16 -14 -50 q-9 -34 -13 -51 l371 0 l0 -86 Z" /><glyph glyph-name="cid10286" unicode="&#x4f30;" d="M259 835 l87 -27 q-38 -103 -102 -216 l0 -669 l-88 0 l0 533 q-42 -57 -83 -100 q-20 48 -51 94 q70 69 133 172 q63 103 104 213 ZM806 52 l0 209 l-334 0 l0 -209 l334 0 ZM959 538 l-274 0 l0 -189 l216 0 l0 -423 l-95 0 l0 38 l-334 0 l0 -42 l-92 0 l0 427 l209 0 l0 189 l-261 0 l0 90 l261 0 l0 212 l96 0 l0 -212 l274 0 l0 -90 Z" /><glyph glyph-name="cid10340" unicode="&#x4f53;" d="M241 834 l87 -25 q-28 -86 -84 -202 l0 -684 l-89 0 l0 530 q-38 -55 -74 -98 q-23 56 -52 94 q132 145 212 385 ZM951 560 l-234 0 q44 -123 113 -234 q69 -111 145 -175 q-42 -31 -71 -74 q-140 139 -239 412 l0 -307 l148 0 l0 -84 l-148 0 l0 -171 l-91 0 l0 171 l-149 0 l0 84 l149 0 l0 301 q-100 -269 -246 -409 q-22 35 -66 71 q78 64 147.5 176 q69.5 112 115.5 239 l-219 0 l0 88 l268 0 l0 186 l91 0 l0 -186 l286 0 l0 -88 Z" /><glyph glyph-name="cid10354" unicode="&#x4f5c;" d="M274 835 l89 -28 q-42 -108 -99 -209 l0 -675 l-94 0 l0 528 q-37 -52 -82 -98 q-22 57 -52 96 q71 70 134 173 q63 103 104 213 ZM961 586 l-296 0 l0 -127 l272 0 l0 -85 l-272 0 l0 -133 l286 0 l0 -87 l-286 0 l0 -232 l-95 0 l0 664 l-56 0 q-68 -125 -136 -201 q-37 40 -72 63 q65 68 122.5 169.5 q57.5 101.5 93.5 210.5 l89 -24 q-29 -79 -52 -129 l402 0 l0 -89 Z" /><glyph glyph-name="cid10361" unicode="&#x4f60;" d="M256 834 l87 -26 q-39 -103 -99 -210 l0 -676 l-88 0 l0 538 q-40 -56 -86 -105 q-20 50 -51 94 q70 69 133 172 q63 103 104 213 ZM438 406 l91 -17 q-48 -208 -141 -337 q-24 21 -79 50 q86 108 129 304 ZM856 567 l-163 0 l0 -538 q0 -70 -40 -91 q-36 -18 -138 -18 q-7 47 -33 93 q78 -2 101 0 q18 0 18 16 l0 538 l-135 0 q-48 -100 -96 -164 q-35 35 -76 61 q107 126 166 370 l92 -20 q-21 -84 -51 -161 l378 0 l15 3 l65 -13 q-20 -116 -44 -220 l-79 15 q10 48 20 129 ZM749 388 l83 27 q41 -77 73.5 -168 q32.5 -91 44.5 -160 l-89 -32 q-11 68 -42 162 q-31 94 -70 171 Z" /><glyph glyph-name="cid10410" unicode="&#x4f7f;" d="M271 842 l87 -29 q-46 -111 -99 -201 l0 -695 l-88 0 l0 561 q-48 -65 -97 -114 q-22 55 -51 94 q74 69 140 171.5 q66 102.5 108 212.5 ZM438 360 l153 0 l0 31 l0 96 l-153 0 l0 -127 ZM841 487 l-158 0 l0 -96 l0 -31 l158 0 l0 127 ZM930 283 l-253 0 q-14 -113 -61 -183 q143 -74 355 -96 q-33 -37 -55 -84 q-212 31 -354 114 q-79 -74 -216 -115 q-24 45 -57 77 q125 30 197 90 q-82 67 -134 157 l76 24 q41 -68 112 -120 q35 57 45 136 l-232 0 l0 281 l238 0 l0 86 l-263 0 l0 85 l263 0 l0 99 l92 0 l0 -99 l276 0 l0 -85 l-276 0 l0 -86 l247 0 l0 -281 Z" /><glyph glyph-name="cid10460" unicode="&#x4f9d;" d="M882 485 l70 -66 q-111 -95 -196 -152 q90 -165 214 -242 q-40 -31 -68 -76 q-216 149 -325 536 q-24 -32 -79 -94 l0 -338 l169 55 q2 -46 12 -80 q-161 -57 -210.5 -77 q-49.5 -20 -66.5 -34 q-14 35 -48 69 q53 38 53 94 l0 223 q-41 -37 -105 -83 q-27 40 -58 73 l0 -373 l-88 0 l0 527 q-41 -57 -72 -90 q-16 46 -51 94 q68 71 128 173.5 q60 102.5 98 211.5 l87 -26 q-38 -106 -102 -223 l0 -286 q173 104 286 272 l-226 0 l0 86 l303 0 q-25 78 -65 151 l83 27 q50 -85 70 -150 l-75 -28 l324 0 l0 -86 l-303 0 q29 -125 79 -237 q103 82 162 149 Z" /><glyph glyph-name="cid10589" unicode="&#x4fee;" d="M228 834 l87 -25 q-32 -99 -80 -200 l0 -687 l-88 0 l0 525 q-39 -59 -77 -106 q-19 56 -47 98 q63 73 117 177.5 q54 104.5 88 217.5 ZM809 659 l-243 0 q46 -67 122 -121 q76 53 121 121 ZM873 738 l54 -26 q-51 -127 -168 -217 q97 -50 211 -70 q-28 -28 -51 -74 q-128 30 -232 95 q-112 -65 -268 -101 q-17 38 -36 61 l0 -323 l-78 0 l0 478 l78 0 l0 -144 q132 26 235 79 q-60 52 -98 105 q-39 -50 -76 -83 q-35 33 -71 55 q59 47 108.5 117.5 q49.5 70.5 77.5 149.5 l86 -21 q-14 -36 -39 -85 l252 0 l15 4 ZM788 291 l68 -29 q-108 -119 -343 -180 q-20 34 -46 60 q99 21 186.5 60.5 q87.5 39.5 134.5 88.5 ZM693 388 l69 -30 q-87 -88 -255 -142 q-19 29 -51 54 q69 19 134.5 50.5 q65.5 31.5 102.5 67.5 ZM872 182 l79 -34 q-136 -162 -489 -225 q-16 42 -48 75 q336 47 458 184 Z" /><glyph glyph-name="cid11000" unicode="&#x50cf;" d="M253 835 l87 -27 q-38 -108 -98 -217 l0 -667 l-88 0 l0 523 q-41 -57 -74 -92 q-6 17 -22.5 47.5 q-16.5 30.5 -28.5 46.5 q67 70 126.5 173 q59.5 103 97.5 213 ZM442 560 l0 -83 l121 0 q27 40 34 83 l-155 0 ZM655 697 l-165 0 q-44 -54 -56 -67 l171 0 q28 33 50 67 ZM813 477 l0 83 l-140 0 q-5 -41 -22 -83 l162 0 ZM853 374 l62 -58 q-20 -12 -102 -57 q22 -70 63 -126.5 q41 -56.5 94 -85.5 q-35 -30 -59 -68 q-111 73 -166 248 q-30 -14 -44 -20 q22 -77 15 -146 q-7 -69 -39 -101 q-33 -38 -91 -38 q-17 -1 -61 1 q-2 49 -21 80 q33 -4 63 -4 q33 0 46 20 q28 28 22 110 q-134 -112 -301 -170 q-19 37 -53 65 q93 27 187 77 q94 50 151 105 q-11 33 -18 46 q-54 -43 -125 -83 q-71 -40 -133 -62 q-27 38 -51 58 q73 21 151.5 60 q78.5 39 124.5 79 q-14 20 -33 36 q-79 -56 -197 -92 q-19 28 -51 55 q139 44 213 105 l-140 0 l0 149 q-7 -6 -21.5 -17.5 q-14.5 -11.5 -21.5 -17.5 q-28 39 -60 59 q144 100 223 257 l88 -16 q-14 -27 -30 -54 l167 0 l17 5 l54 -40 q-31 -51 -76 -103 l199 0 l0 -222 l-291 0 q-1 -1 -20 -23 q56 -46 90 -116 q102 50 175 105 Z" /><glyph glyph-name="cid11219" unicode="&#x5148;" d="M712 24 l111 0 q25 0 32.5 25.5 q7.5 25.5 10.5 118.5 q27 -21 84 -38 q-7 -115 -31 -154.5 q-24 -39.5 -88 -39.5 l-130 0 q-73 0 -98 26 q-25 26 -25 98 l0 270 l-168 0 q-9 -76 -25 -132.5 q-16 -56.5 -49 -112 q-33 -55.5 -90 -98 q-57 -42.5 -139 -72.5 q-20 46 -58 82 q74 23 124.5 56.5 q50.5 33.5 78 79 q27.5 45.5 40.5 90 q13 44.5 20 107.5 l-248 0 l0 90 l390 0 l0 184 l-191 0 q-40 -91 -82 -146 q-41 28 -82 44 q47 57 83.5 145 q36.5 88 54.5 172 l95 -18 q-20 -69 -34 -108 l156 0 l0 146 l94 0 l0 -146 l317 0 l0 -89 l-317 0 l0 -184 l391 0 l0 -90 l-267 0 l0 -270 q0 -23 7 -29.5 q7 -6.5 33 -6.5 Z" /><glyph glyph-name="cid11221" unicode="&#x5149;" d="M787 774 l97 -36 q-78 -121 -159 -212 l-80 34 q88 103 142 214 ZM357 574 l-80 -49 q-41 85 -144 211 l75 43 q105 -121 149 -205 ZM705 29 l122 0 q21 0 28 16 q7 16 9 73 q33 -24 86 -36 q-8 -83 -32 -112 q-24 -29 -83 -29 l-142 0 q-75 0 -100 25.5 q-25 25.5 -25 99.5 l0 321 l-145 0 q-5 -59 -12.5 -105 q-7.5 -46 -22 -93.5 q-14.5 -47.5 -37.5 -85 q-23 -37.5 -56 -72.5 q-33 -35 -80.5 -63 q-47.5 -28 -108.5 -50 q-21 48 -58 80 q66 21 114 51.5 q48 30.5 77 63.5 q29 33 47.5 80 q18.5 47 26.5 90 q8 43 13 104 l-261 0 l0 90 l385 0 l0 365 l97 0 l0 -365 l384 0 l0 -90 l-269 0 l0 -320 q0 -25 7.5 -31.5 q7.5 -6.5 35.5 -6.5 Z" /><glyph glyph-name="cid11270" unicode="&#x5165;" d="M287 745 l58 79 q73 -53 132.5 -123.5 q59.5 -70.5 96 -138 q36.5 -67.5 77.5 -143.5 q41 -76 78 -141 q37 -65 98 -130 q61 -65 137 -112 q-37 -60 -45 -106 q-52 29 -98 69.5 q-46 40.5 -78 78.5 q-32 38 -66 93 q-34 55 -54.5 93.5 q-20.5 38.5 -52.5 101 q-32 62.5 -50 96.5 q-114 -369 -393 -533 q-29 36 -85 76 q160 81 257.5 225.5 q97.5 144.5 145.5 355.5 q-68 97 -158 159 Z" /><glyph glyph-name="cid11276" unicode="&#x5168;" d="M226 477 l552 0 q-159 106 -279 239 q-108 -130 -273 -239 ZM806 395 l-257 0 l0 -139 l253 0 l0 -81 l-253 0 l0 -145 l377 0 l0 -83 l-846 0 l0 83 l371 0 l0 145 l-242 0 l0 81 l242 0 l0 139 l-252 0 l0 64 q-63 -38 -108 -59 q-28 46 -64 76 q139 60 263.5 159.5 q124.5 99.5 196.5 213.5 l83 -39 q-3 -5 -9 -13 q-6 -8 -9 -13 q162 -182 424 -310 q-41 -34 -63 -79 q-62 35 -107 63 l0 -63 Z" /><glyph glyph-name="cid11286" unicode="&#x516c;" d="M314 812 l101 -27 q-48 -120 -122 -229 q-74 -109 -156 -183 q-25 26 -86 67 q81 64 151 163 q70 99 112 209 ZM602 273 l89 40 q155 -195 232 -338 l-92 -51 q-30 59 -65 113 q-513 -39 -562 -47 q-26 -4 -43 -11 q-19 63 -37 99 q33 8 92 80 q38 42 112 156.5 q74 114.5 126 225.5 l101 -43 q-120 -227 -267 -399 l421 25 q-62 92 -107 150 ZM582 783 l92 37 q46 -96 128 -199.5 q82 -103.5 159 -167.5 q-45 -36 -77 -80 q-79 76 -162.5 189 q-83.5 113 -139.5 221 Z" /><glyph glyph-name="cid11304" unicode="&#x5177;" d="M292 297 l0 -76 l424 0 l0 76 l-424 0 ZM716 716 l-424 0 l0 -71 l424 0 l0 71 ZM716 438 l-424 0 l0 -72 l424 0 l0 72 ZM716 507 l0 70 l-424 0 l0 -70 l424 0 ZM950 137 l-286 0 q169 -71 292 -146 l-72 -68 q-125 83 -290 156 l53 58 l-320 0 l80 -54 q-56 -44 -139 -87.5 q-83 -43.5 -161 -72.5 q-25 32 -67 68 q77 25 157 66.5 q80 41.5 125 79.5 l-268 0 l0 84 l145 0 l0 570 l614 0 l0 -570 l137 0 l0 -84 Z" /><glyph glyph-name="cid11310" unicode="&#x517b;" d="M933 375 l-231 0 q105 -89 259 -128 q-35 -30 -61 -78 q-111 36 -204 106 l0 -354 l-97 0 l0 368 l79 0 q-48 39 -86 86 l-177 0 q-42 -52 -84 -85 l59 0 l0 -67 q0 -43 -7.5 -79.5 q-7.5 -36.5 -29 -80 q-21.5 -43.5 -68.5 -81.5 q-47 -38 -117 -67 q-25 44 -64 74 q62 23 102.5 53.5 q40.5 30.5 59 64 q18.5 33.5 24.5 60.5 q6 27 6 60 l0 35 q-83 -58 -194 -92 q-30 52 -64 83 q150 39 243 122 l-219 0 l0 77 l292 0 q21 30 43 67 l-242 0 l0 73 l276 0 q16 42 22 64 l-347 0 l0 75 l202 0 q-19 44 -56 89 l82 26 q43 -46 65 -96 l-51 -19 l257 0 q47 74 64 116 l98 -24 q-33 -54 -59 -92 l193 0 l0 -75 l-354 0 q-11 -40 -20 -64 l320 0 l0 -73 l-348 0 q-3 -6 -33 -67 l467 0 l0 -77 Z" /><glyph glyph-name="cid11323" unicode="&#x5185;" d="M904 671 l0 -636 q0 -42 -11.5 -64.5 q-11.5 -22.5 -38.5 -33.5 q-39 -17 -187 -17 q-7 46 -32 94 q45 -2 93.5 -2.5 q48.5 -0.5 58.5 0.5 q14 1 19.5 6 q5.5 5 5.5 18 l0 545 l-264 0 q-3 -62 -16 -123 q188 -169 265 -264 l-76 -61 q-69 91 -218 235 q-66 -154 -232 -251 q-21 35 -66 70 q74 39 125 88.5 q51 49.5 75.5 103.5 q24.5 54 34.5 100.5 q10 46.5 12 101.5 l-260 0 l0 -662 l-93 0 l0 752 l354 0 l0 168 l96 0 l0 -168 l355 0 Z" /><glyph glyph-name="cid11332" unicode="&#x518d;" d="M542 242 l209 0 l0 105 l-209 0 l0 -105 ZM248 347 l0 -105 l202 0 l0 105 l-202 0 ZM450 528 l-202 0 l0 -102 l202 0 l0 102 ZM751 528 l-209 0 l0 -102 l209 0 l0 102 ZM961 242 l0 -86 l-118 0 l0 -128 q0 -39 -11 -60.5 q-11 -21.5 -37 -31.5 q-38 -16 -177 -16 q-10 48 -34 88 q30 -1 142 -1 q14 1 19.5 5.5 q5.5 4.5 5.5 16.5 l0 127 l-503 0 l0 -236 l-92 0 l0 236 l-115 0 l0 86 l115 0 l0 370 l294 0 l0 84 l-371 0 l0 86 l843 0 l0 -86 l-380 0 l0 -84 l301 0 l0 -370 l118 0 Z" /><glyph glyph-name="cid11399" unicode="&#x51b7;" d="M263 572 l-89 -43 q-34 95 -126 230 l83 35 q95 -132 132 -222 ZM130 -29 l-94 40 q84 164 148 346 l83 -41 q-67 -190 -137 -345 ZM821 382 l67 -43 q-74 -129 -228 -277 q73 -52 104 -79 l-68 -63 q-90 82 -278 207 l63 56 q64 -41 105 -69 q84 76 160 177 l-389 0 l0 86 l448 0 l16 5 ZM522 519 l73 39 q61 -58 101 -114 l-76 -47 q-31 47 -98 122 ZM587 841 l92 -32 q-3 -6 -9.5 -18 q-6.5 -12 -9.5 -18 q54 -82 136.5 -159.5 q82.5 -77.5 162.5 -122.5 q-41 -32 -72 -80 q-70 49 -143.5 125.5 q-73.5 76.5 -130.5 160.5 q-120 -176 -299 -290 q-24 38 -68 74 q110 64 200.5 160.5 q90.5 96.5 140.5 199.5 Z" /><glyph glyph-name="cid11429" unicode="&#x51c6;" d="M264 571 l-89 -45 q-35 85 -128 233 l83 38 q98 -143 134 -226 ZM144 -34 l-97 43 q78 146 149 336 l86 -45 q-81 -212 -138 -334 ZM445 191 l0 -119 l196 0 l0 119 l-196 0 ZM641 467 l0 116 l-196 0 l0 -116 l196 0 ZM641 271 l0 115 l-196 0 l0 -115 l196 0 ZM954 72 l0 -83 l-509 0 l0 -69 l-85 0 l0 553 q-38 -57 -87 -107 q-26 36 -66 68 q73 68 134 173.5 q61 105.5 99 223.5 l86 -22 q-21 -65 -57 -145 l205 0 q-23 56 -71 133 l79 37 q56 -82 80 -141 l-56 -29 l231 0 l0 -81 l-205 0 l0 -116 l185 0 l0 -81 l-185 0 l0 -115 l184 0 l0 -80 l-184 0 l0 -119 l222 0 Z" /><glyph glyph-name="cid11448" unicode="&#x51cf;" d="M934 731 l-57 -47 q-38 51 -117 110 l54 42 q80 -54 120 -105 ZM239 547 l-78 -37 q-32 109 -113 250 l72 29 q86 -140 119 -242 ZM165 354 l73 -36 q-55 -187 -121 -344 l-81 35 q74 163 129 345 ZM580 318 l-98 0 l0 -138 l98 0 l0 138 ZM645 107 l-163 0 l0 -51 l-72 0 l0 336 l235 0 l0 -285 ZM644 530 l0 -70 l-241 0 l0 70 l241 0 ZM862 531 l78 -16 q-51 -204 -140 -349 q32 -141 70 -142 q24 0 35 150 q21 -23 64 -45 q-26 -212 -99 -210 q-81 3 -131 159 q-72 -92 -158 -154 q-25 31 -63 59 q113 73 197 195 q-30 141 -47 421 l-299 0 l0 -187 q0 -333 -103 -494 q-30 30 -70 49 q91 140 91 445 l0 270 l377 0 q0 5 -6 153 l82 0 q2 -103 5 -153 l207 0 l0 -83 l-203 0 q10 -171 29 -309 q51 103 84 241 Z" /><glyph glyph-name="cid11520" unicode="&#x51fa;" d="M794 344 l103 0 l0 -422 l-103 0 l0 55 l-694 0 l0 367 l104 0 l0 -274 l242 0 l0 332 l-298 0 l0 350 l98 0 l0 -260 l200 0 l0 346 l103 0 l0 -346 l206 0 l0 260 l103 0 l0 -350 l-309 0 l0 -332 l245 0 l0 274 Z" /><glyph glyph-name="cid11521" unicode="&#x51fb;" d="M553 369 l0 -306 l206 0 l0 237 l96 0 l0 -380 l-96 0 l0 52 l-614 0 l0 327 l99 0 l0 -236 l211 0 l0 306 l-391 0 l0 92 l391 0 l0 139 l-319 0 l0 92 l319 0 l0 146 l98 0 l0 -146 l319 0 l0 -92 l-319 0 l0 -139 l386 0 l0 -92 l-386 0 Z" /><glyph glyph-name="cid11540" unicode="&#x5206;" d="M591 789 l86 35 q45 -97 125 -198 q80 -101 159 -162 q-45 -34 -74 -79 q-28 24 -74 75 q0 -25 -1 -33 q-10 -228 -23 -326.5 q-13 -98.5 -37 -127.5 q-31 -35 -83 -39 q-52 -6 -155 -1 q-4 53 -30 93 q60 -5 141 -5 q30 0 42 12 q17 17 27.5 94.5 q10.5 77.5 18.5 249.5 l-245 0 q-9 -63 -21.5 -113.5 q-12.5 -50.5 -38 -104.5 q-25.5 -54 -61.5 -96 q-36 -42 -92.5 -80 q-56.5 -38 -130.5 -65 q-18 43 -58 81 q66 22 117 53.5 q51 31.5 82.5 66 q31.5 34.5 54 79.5 q22.5 45 33 86 q10.5 41 17.5 93 l-176 0 l0 66 q-38 -39 -71 -67 q-13 15 -37.5 37.5 q-24.5 22.5 -41.5 34.5 q87 63 159.5 162 q72.5 99 115.5 212 l99 -29 q-75 -183 -200 -324 l587 0 q-131 150 -214 320 Z" /><glyph glyph-name="cid11590" unicode="&#x522b;" d="M405 545 l0 167 l-228 0 l0 -167 l228 0 ZM494 795 l0 -333 l-402 0 l0 333 l402 0 ZM309 363 l206 0 q-1 -25 -2 -38 q-7 -180 -16.5 -257.5 q-9.5 -77.5 -28.5 -100.5 q-23 -28 -64 -34 q-30 -4 -110 -2 q-4 52 -26 89 q49 -5 90 -5 q22 0 32 12 q22 26 31 251 l-120 0 q-16 -130 -63.5 -218.5 q-47.5 -88.5 -148.5 -143.5 q-20 41 -56 70 q85 44 125.5 115.5 q40.5 71.5 54.5 176.5 l-153 0 l0 85 l162 0 q2 25 4 75 l87 0 q-2 -50 -4 -75 ZM704 719 l0 -553 l-90 0 l0 553 l90 0 ZM822 819 l92 0 l0 -782 q0 -78 -46 -99 q-43 -20 -177 -18 q-8 49 -30 95 q41 -2 137 -2 q24 1 24 24 l0 782 Z" /><glyph glyph-name="cid11596" unicode="&#x5230;" d="M373 243 l0 -138 q66 11 200 35 l5 -81 q-16 -3 -496 -94 l-20 88 q84 11 223 36 l0 154 l-189 0 l0 81 l189 0 l0 99 l88 0 l0 -99 l189 0 l0 -81 l-189 0 ZM71 696 l0 81 l513 0 l0 -81 l-267 0 q-46 -92 -102 -166 l221 17 q-44 64 -66 91 l67 39 q99 -119 146 -213 l-72 -46 q-22 44 -29 55 q-216 -18 -277.5 -25.5 q-61.5 -7.5 -82.5 -15.5 q-21 66 -30 85 q20 5 48 45 q39 55 74 134 l-143 0 ZM718 751 l0 -600 l-87 0 l0 600 l87 0 ZM824 825 l91 0 l0 -774 q0 -75 -44 -94 q-39 -17 -163 -17 q-8 47 -33 90 q91 -3 127 -1 q13 0 17.5 4.5 q4.5 4.5 4.5 17.5 l0 774 Z" /><glyph glyph-name="cid11640" unicode="&#x524d;" d="M201 205 l198 0 l0 85 l-198 0 l0 -85 ZM399 443 l-198 0 l0 -82 l198 0 l0 82 ZM488 522 l0 -503 q0 -62 -38 -79 q-32 -16 -138 -16 q-12 47 -31 80 q72 -3 100 -1 q18 1 18 18 l0 113 l-198 0 l0 -208 l-87 0 l0 596 l374 0 ZM793 30 l0 511 l92 0 l0 -512 q0 -37 -10 -57.5 q-10 -20.5 -35 -30.5 q-41 -19 -160 -17 q-7 41 -33 88 q91 -3 125 -1 q12 1 16.5 5 q4.5 4 4.5 14 ZM680 513 l0 -407 l-86 0 l0 407 l86 0 ZM727 687 l219 0 l0 -85 l-891 0 l0 85 l229 0 q-26 55 -83 123 l87 30 q70 -75 96 -134 l-51 -19 l288 0 q55 78 88 156 l101 -31 q-52 -84 -83 -125 Z" /><glyph glyph-name="cid11778" unicode="&#x529b;" d="M497 627 l410 0 q-1 -33 -2 -46 q-17 -308 -34.5 -437 q-17.5 -129 -50.5 -167 q-34 -40 -92 -46 q-50 -6 -159 0 q-4 50 -33 96 q66 -6 152 -6 q31 0 46 15 q49 46 72 496 l-313 0 q-5 -68 -16.5 -127.5 q-11.5 -59.5 -37.5 -129.5 q-26 -70 -65 -129.5 q-39 -59.5 -102.5 -120 q-63.5 -60.5 -145.5 -109.5 q-25 39 -72 75 q310 177 340 541 l-310 0 l0 95 l315 0 l0 25 l0 185 l98 0 l0 -185 l0 -25 Z" /><glyph glyph-name="cid11795" unicode="&#x52a8;" d="M475 759 l0 -82 l-385 0 l0 82 l385 0 ZM517 96 l-80 -27 q-1 2 -16 59 q-284 -68 -326 -91 l0 3 q-1 -1 -1 -3 q-11 41 -29 84 q20 8 47 68 q49 126 76 253 l-132 0 l0 84 l437 0 l0 -84 l-210 0 q-31 -129 -94 -283 l207 47 q-29 86 -52 139 l75 20 q69 -151 98 -269 ZM725 616 l218 0 q-1 -32 -1 -45 q-9 -312 -20.5 -435.5 q-11.5 -123.5 -36.5 -155.5 q-26 -36 -76 -44 q-42 -5 -136 0 q-4 48 -28 90 q53 -4 121 -4 q25 -1 38 15 q18 22 28.5 131 q10.5 109 17.5 359 l-129 0 q-11 -208 -55 -358.5 q-44 -150.5 -144 -246.5 q-11 17 -31.5 38 q-20.5 21 -38.5 31 q90 84 129.5 216 q39.5 132 49.5 320 l-125 0 l0 89 l128 0 q2 67 2 205 l92 0 q0 -105 -3 -205 Z" /><glyph glyph-name="cid11947" unicode="&#x5305;" d="M517 448 l-229 0 l0 -139 l229 0 l0 139 ZM410 29 l351 0 q63 0 82 21.5 q19 21.5 27 97.5 q39 -25 90 -34 q-13 -102 -51 -137 q-38 -35 -143 -35 l-354 0 q-127 0 -171.5 31 q-44.5 31 -44.5 123 l0 419 q-37 -40 -84 -80 q-38 43 -77 70 q81 58 151 148 q70 90 113 190 l94 -27 q-27 -62 -55 -109 l539 0 q-1 -29 -1 -41 q-9 -251 -18.5 -350 q-9.5 -99 -29.5 -125 q-23 -33 -67 -39 q-38 -4 -115 -1 q-2 47 -24 88 q58 -6 92 -4 q20 -2 32 14 q23 32 35 370 l-501 0 q-36 -51 -70 -89 l398 0 l0 -305 l-320 0 l0 -129 q0 -42 22 -54.5 q22 -12.5 100 -12.5 Z" /><glyph glyph-name="cid11978" unicode="&#x5316;" d="M303 840 l93 -29 q-37 -93 -99 -195 l0 -695 l-97 0 l0 553 q-46 -59 -98 -111 q-32 60 -61 93 q78 68 148 170.5 q70 102.5 114 213.5 ZM662 31 l144 0 q35 0 46.5 40 q11.5 40 16.5 169 q41 -33 92 -44 q-9 -148 -38.5 -202.5 q-29.5 -54.5 -109.5 -54.5 l-163 0 q-82 0 -111 33.5 q-29 33.5 -29 127.5 l0 142 q-64 -42 -128 -73 q-25 35 -68 71 q98 47 196 115 l0 467 l100 0 l0 -390 q155 130 244 269 l89 -59 q-132 -185 -333 -333 l0 -211 q0 -42 9.5 -54.5 q9.5 -12.5 42.5 -12.5 Z" /><glyph glyph-name="cid12000" unicode="&#x5320;" d="M187 38 l749 0 l0 -89 l-847 0 l0 848 l835 0 l0 -89 l-737 0 l0 -670 ZM720 61 l-91 0 l0 298 l-228 0 q-12 -205 -102 -305 q-44 39 -79 54 q55 59 72.5 137 q17.5 78 17.5 173 l0 202 q309 11 471 45 l53 -76 q-174 -35 -432 -42 l0 -106 l496 0 l0 -82 l-178 0 l0 -298 Z" /><glyph glyph-name="cid12071" unicode="&#x5341;" d="M951 474 l0 -96 l-399 0 l0 -457 l-101 0 l0 457 l-393 0 l0 96 l393 0 l0 365 l101 0 l0 -365 l399 0 Z" /><glyph glyph-name="cid12078" unicode="&#x5347;" d="M950 443 l0 -89 l-209 0 l0 -432 l-95 0 l0 432 l-283 0 q-3 -66 -15.5 -121.5 q-12.5 -55.5 -39.5 -113 q-27 -57.5 -77 -108.5 q-50 -51 -122 -91 q-24 39 -66 71 q120 66 169.5 157 q49.5 91 57.5 206 l-218 0 l0 89 l220 0 l0 202 q-82 -23 -179 -45 q-9 39 -33 76 q281 65 428 152 l68 -76 q-77 -40 -191 -79 l0 -230 l281 0 l0 378 l95 0 l0 -378 l209 0 Z" /><glyph glyph-name="cid12144" unicode="&#x5373;" d="M409 705 l-209 0 l0 -111 l209 0 l0 111 ZM200 394 l209 0 l0 117 l-209 0 l0 -117 ZM311 232 l79 39 q101 -160 138 -256 l-85 -46 q-24 60 -40 93 q-176 -59 -230.5 -80 q-54.5 -21 -73.5 -35 q-13 61 -38 95 q44 23 44 66 l0 680 l397 0 l0 -477 l-302 0 l0 -223 l164 50 q-39 71 -53 94 ZM915 781 l0 -570 q0 -69 -37 -87 q-33 -17 -144 -17 q-6 49 -27 88 q72 -3 99 -1 q18 1 18 18 l0 484 l-154 0 l0 -775 l-93 0 l0 860 l338 0 Z" /><glyph glyph-name="cid12201" unicode="&#x539a;" d="M219 707 l0 -211 q0 -389 -104 -575 q-28 26 -81 47 q94 167 94 528 l0 296 l814 0 l0 -85 l-723 0 ZM388 492 l0 -55 l370 0 l0 55 l-370 0 ZM388 602 l0 -53 l370 0 l0 53 l-370 0 ZM850 377 l-550 0 l0 285 l550 0 l0 -285 ZM953 169 l0 -73 l-328 0 l0 -80 q0 -34 -10.5 -51.5 q-10.5 -17.5 -36.5 -25.5 q-41 -13 -170 -11 q-7 32 -32 75 q40 -2 85 -2.5 q45 -0.5 52 0.5 q13 1 17.5 4 q4.5 3 4.5 13 l0 78 l-316 0 l0 73 l316 0 l0 43 q69 19 142 52 l-382 0 l0 66 l494 0 l20 4 l56 -50 q-106 -65 -240 -107 l0 -8 l328 0 Z" /><glyph glyph-name="cid12268" unicode="&#x53c2;" d="M745 180 l86 -40 q-173 -168 -616 -221 q-15 46 -44 82 q424 37 574 179 ZM623 284 l78 -39 q-138 -105 -413 -164 q-24 44 -52 72 q112 18 219.5 53 q107.5 35 167.5 78 ZM947 438 l-238 0 q108 -117 256 -174 q-37 -32 -63 -76 q-84 39 -164 105.5 q-80 66.5 -136 144.5 l-199 0 q-55 -78 -122 -136 q172 40 260 96 l76 -41 q-113 -77 -306 -127 q-19 29 -49 56 q-68 -56 -154 -101 q-30 40 -71 74 q151 65 249 179 l-231 0 l0 83 l292 0 q24 42 40 79 q-172 -8 -208 -18 q-19 65 -27 86 q27 4 72 31 q34 18 94 60.5 q60 42.5 106 88.5 l84 -47 q-90 -75 -171 -123 l338 11 q-52 40 -106 75 l73 47 q70 -42 143 -99 q73 -57 112 -101 l-78 -54 q-21 25 -59 60 l-268 -12 q-18 -48 -39 -84 l494 0 l0 -83 Z" /><glyph glyph-name="cid12282" unicode="&#x53ca;" d="M357 693 l0 -48 q78 -304 261 -461 q119 114 172 277 l-253 0 q30 92 60 232 l-240 0 ZM845 553 l63 -26 q-57 -245 -214 -401 q115 -74 270 -111 q-33 -29 -63 -86 q-163 42 -285 130 q-116 -87 -281 -138 q-18 47 -53 82 q148 39 259 118 q-120 116 -196 298 q-39 -301 -240 -487 q-30 47 -68 80 q59 53 101.5 118.5 q42.5 65.5 65.5 124.5 q23 59 36 130 q13 71 16.5 121.5 q3.5 50.5 3.5 112.5 l0 74 l-168 0 l0 95 l620 0 q-21 -108 -51 -239 l166 0 l18 4 Z" /><glyph glyph-name="cid12292" unicode="&#x53d1;" d="M866 690 l-75 -49 q-34 49 -122 145 l73 43 q85 -87 124 -139 ZM728 346 l-284 0 q55 -103 145 -178 q90 78 139 178 ZM794 440 l63 -29 q-57 -179 -190 -299 q127 -78 299 -109 q-30 -29 -59 -84 q-182 38 -315 133 q-124 -85 -300 -132 q-18 44 -50 81 q159 37 274 113 q-75 70 -130 167 q-106 -176 -286 -282 q-10 15 -31 38 q-21 23 -38 36 q251 143 353 458 l-135 0 q-90 0 -104 -19 q-14 47 -31 86 q18 4 39 40 q47 85 67 176 l98 -17 q-23 -84 -70 -177 l161 0 q24 100 40 223 l103 -16 q-14 -109 -36 -207 l417 0 l-1 -89 l-439 0 q-18 -57 -33 -95 l316 0 l18 4 Z" /><glyph glyph-name="cid12301" unicode="&#x53d8;" d="M336 368 l0 290 l-264 0 l0 82 l397 0 q-18 43 -45 86 l91 22 q40 -62 61 -108 l352 0 l0 -82 l-266 0 l0 -289 l-94 0 l0 289 l-138 0 l0 -290 l-94 0 ZM683 578 l68 42 q108 -88 171 -176 l-72 -49 q-26 38 -74 90.5 q-48 52.5 -93 92.5 ZM212 624 l83 -23 q-51 -118 -142 -206 q-23 21 -73 50 q86 72 132 179 ZM690 262 l-377 0 q73 -85 188 -142 q121 60 189 142 ZM772 347 l59 -40 q-76 -135 -235 -228 q157 -58 358 -78 q-26 -28 -53 -81 q-236 29 -403 108 q-167 -73 -402 -109 q-16 47 -45 82 q199 24 354 79 q-119 75 -194 182 l-79 0 l0 81 l623 0 l17 4 Z" /><glyph glyph-name="cid12321" unicode="&#x53e3;" d="M219 121 l560 0 l0 524 l-560 0 l0 -524 ZM123 739 l757 0 l0 -792 l-101 0 l0 79 l-560 0 l0 -83 l-96 0 l0 796 Z" /><glyph glyph-name="cid12331" unicode="&#x53ea;" d="M584 178 l81 48 q186 -141 278 -248 l-87 -55 q-40 50 -118 123 q-78 73 -154 132 ZM330 223 l99 -38 q-56 -73 -137.5 -144.5 q-81.5 -71.5 -162.5 -121.5 q-30 31 -76 65 q80 45 158 111.5 q78 66.5 119 127.5 ZM253 677 l0 -283 l493 0 l0 283 l-493 0 ZM158 765 l688 0 l0 -459 l-688 0 l0 459 Z" /><glyph glyph-name="cid12339" unicode="&#x53ef;" d="M475 458 l-230 0 l0 -200 l230 0 l0 200 ZM567 170 l-322 0 l0 -78 l-90 0 l0 454 l412 0 l0 -376 ZM945 770 l0 -93 l-119 0 l0 -632 q0 -46 -13 -70.5 q-13 -24.5 -44 -34.5 q-46 -18 -213 -18 q-8 45 -39 100 q57 -3 183 -3 q17 1 23 6.5 q6 5.5 6 21.5 l0 630 l-672 0 l0 93 l888 0 Z" /><glyph glyph-name="cid12349" unicode="&#x53f6;" d="M292 660 l-126 0 l0 -404 l126 0 l0 404 ZM376 750 l0 -584 l-210 0 l0 -78 l-85 0 l0 662 l295 0 ZM958 501 l0 -91 l-225 0 l0 -490 l-97 0 l0 490 l-229 0 l0 91 l229 0 l0 324 l97 0 l0 -324 l225 0 Z" /><glyph glyph-name="cid12368" unicode="&#x5404;" d="M700 198 l-402 0 l0 -155 l402 0 l0 155 ZM204 -81 l0 363 l595 0 l0 -360 l-99 0 l0 39 l-402 0 l0 -42 l-94 0 ZM338 658 l-3 -4 q70 -76 171 -138 q111 68 176 142 l-344 0 ZM768 744 l65 -43 q-83 -132 -238 -235 q176 -88 375 -122 q-38 -39 -60 -86 q-221 46 -404 154 q-191 -106 -428 -159 q-19 52 -46 83 q207 42 389 132 q-75 53 -146 127 q-74 -68 -149 -115 q-36 43 -70 69 q96 52 180.5 131 q84.5 79 135.5 168 l88 -31 q-27 -43 -53 -78 l345 0 l16 5 Z" /><glyph glyph-name="cid12374" unicode="&#x5408;" d="M722 244 l-433 0 l0 -185 l433 0 l0 185 ZM195 -77 l0 404 l625 0 l0 -400 l-98 0 l0 46 l-433 0 l0 -50 l-94 0 ZM308 517 l411 0 q-111 72 -213 172 q-84 -93 -198 -172 ZM513 842 l82 -42 q-20 -30 -32 -45 q159 -157 406 -255 q-44 -37 -65 -85 q-95 47 -154 82 l0 -66 l-498 0 l0 50 q-85 -51 -144 -76 q-34 53 -68 83 q146 57 272.5 149.5 q126.5 92.5 200.5 204.5 Z" /><glyph glyph-name="cid12378" unicode="&#x540c;" d="M615 363 l-229 0 l0 -166 l229 0 l0 166 ZM701 119 l-315 0 l0 -70 l-86 0 l0 392 l401 0 l0 -322 ZM751 612 l0 -79 l-500 0 l0 79 l500 0 ZM914 790 l0 -757 q0 -76 -45 -96 q-41 -19 -169 -17 q-7 45 -32 91 q38 -2 132 -2 q23 1 23 24 l0 669 l-645 0 l0 -783 l-90 0 l0 871 l826 0 Z" /><glyph glyph-name="cid12380" unicode="&#x540d;" d="M342 55 l412 0 l0 210 l-412 0 l0 -210 ZM850 349 l0 -427 l-96 0 l0 48 l-412 0 l0 -48 l-93 0 l0 319 q-75 -24 -157 -45 q-20 51 -48 86 q186 38 350 121 q-55 50 -140 114 l72 54 q95 -68 154 -119 q143 89 226 204 l-346 0 q-100 -93 -231 -160 q-25 44 -64 74 q114 52 199 124.5 q85 72.5 133 148.5 l106 -22 q-33 -47 -61 -80 l325 0 l15 5 l64 -38 q-107 -214 -359 -359 l363 0 Z" /><glyph glyph-name="cid12395" unicode="&#x5417;" d="M268 662 l-108 0 l0 -394 l108 0 l0 394 ZM351 748 l0 -566 l-191 0 l0 -92 l-85 0 l0 658 l276 0 ZM779 212 l0 -83 l-390 0 l0 83 l390 0 ZM823 407 l116 0 q-1 -27 -3 -39 q-15 -196 -33 -287.5 q-18 -91.5 -45 -119.5 q-27 -30 -73 -34 q-42 -5 -119 0 q-2 44 -25 84 q45 -5 105 -5 q24 -1 36 12 q39 36 62 309 l-389 0 l0 1 l-24 0 q21 142 33 320 l87 -6 q-11 -132 -22 -235 l205 0 q20 174 31 293 l-348 0 l0 84 l364 0 l14 4 l66 -7 q-9 -113 -38 -374 Z" /><glyph glyph-name="cid12456" unicode="&#x5438;" d="M257 662 l-99 0 l0 -394 l99 0 l0 394 ZM337 182 l-179 0 l0 -92 l-80 0 l0 658 l259 0 l0 -566 ZM720 691 l-158 0 q-6 -122 -16 -210 q56 -173 160 -296 q78 106 116 247 l-173 0 q31 91 71 259 ZM869 516 l57 -23 q-45 -219 -157 -372 q88 -80 197 -121 q-36 -32 -62 -77 q-108 48 -195 128 q-74 -78 -173 -131 q-28 45 -65 70 q98 47 176 126 q-73 88 -125 201 q-51 -259 -181 -398 q-22 22 -77 55 q109 103 154.5 276.5 q45.5 173.5 56.5 440.5 l-105 0 l0 85 l459 0 q-25 -104 -68 -264 l92 0 l16 4 Z" /><glyph glyph-name="cid12580" unicode="&#x548c;" d="M332 713 l0 -168 l161 0 l0 -86 l-161 0 l0 -23 q28 -28 85 -93.5 q57 -65.5 76 -89.5 l-56 -76 q-23 42 -105 153 l0 -407 l-93 0 l0 402 q-77 -181 -161 -271 q-14 37 -49 86 q53 53 104 140.5 q51 87.5 83 178.5 l-163 0 l0 86 l186 0 l0 149 q-42 -7 -154 -21 q-6 30 -26 72 q242 33 371 84 l62 -72 q-71 -27 -160 -44 ZM615 137 l195 0 l0 520 l-195 0 l0 -520 ZM525 746 l380 0 l0 -772 l-95 0 l0 74 l-195 0 l0 -81 l-90 0 l0 779 Z" /><glyph glyph-name="cid12663" unicode="&#x54c1;" d="M688 545 l0 163 l-375 0 l0 -163 l375 0 ZM783 797 l0 -341 l-559 0 l0 341 l559 0 ZM353 270 l-182 0 l0 -208 l182 0 l0 208 ZM83 -79 l0 438 l362 0 l0 -431 l-92 0 l0 45 l-182 0 l0 -52 l-88 0 ZM632 62 l198 0 l0 208 l-198 0 l0 -208 ZM543 359 l380 0 l0 -433 l-93 0 l0 47 l-198 0 l0 -52 l-89 0 l0 438 Z" /><glyph glyph-name="cid12717" unicode="&#x54ea;" d="M220 662 l-75 0 l0 -395 l75 0 l0 395 ZM293 182 l-148 0 l0 -96 l-71 0 l0 661 l219 0 l0 -565 ZM470 324 l77 0 q1 24 1.5 77 q0.5 53 0.5 80 l-71 0 q0 -82 -8 -157 ZM478 713 l0 -153 l71 0 l1 153 l-72 0 ZM326 792 l300 0 q0 -33 -1 -44 q-2 -467 -6 -607 q-4 -140 -21 -171 q-21 -37 -59 -43 q-32 -6 -91 -3 q-4 48 -22 82 q32 -3 75 -3 q18 0 27 20 q14 29 18 222 l-87 0 q-36 -208 -140 -327 q-8 13 -26 31.5 q-18 18.5 -30 25.5 q90 107 121 270 l-59 0 l0 79 l70 0 q8 73 8 157 l-77 0 l0 79 l77 0 l0 153 l-77 0 l0 79 ZM894 795 l57 -33 q-58 -224 -86 -311 q73 -111 73 -238 q0 -100 -38 -130 q-18 -15 -50 -20 q-20 -3 -55 -1 q0 45 -17 78 q15 -1 41 -1 q18 2 26 10 q16 15 16 76 q0 116 -70 218 q26 89 66 273 l-99 0 l0 -796 l-78 0 l0 872 l202 0 l12 3 Z" /><glyph glyph-name="cid12865" unicode="&#x5546;" d="M608 212 l-219 0 l0 -99 l219 0 l0 99 ZM684 46 l-295 0 l0 -44 l-78 0 l0 269 q-32 -24 -49 -34 q-18 46 -39 75 q114 66 174 127 l66 -31 q-57 -62 -142 -129 l363 0 l0 -233 ZM799 304 l-56 -62 q-63 59 -191 152 l53 55 q158 -114 194 -145 ZM939 737 l0 -79 l-579 0 q45 -79 56 -104 l-77 -30 l241 0 q38 66 64 132 l100 -21 q-38 -63 -72 -111 l216 0 l0 -508 q0 -34 -9.5 -51 q-9.5 -17 -33.5 -26 q-35 -13 -167 -13 q-7 37 -27 71 q95 -3 128 -1 q23 0 23 20 l0 433 l-598 0 l0 -526 l-88 0 l0 601 l211 0 q-15 38 -55 111 l66 23 l-274 0 l0 79 l405 0 q-16 44 -35 83 l92 24 q26 -51 49 -107 l364 0 Z" /><glyph glyph-name="cid12964" unicode="&#x5584;" d="M730 120 l-457 0 l0 -94 l457 0 l0 94 ZM182 -78 l0 271 l643 0 l0 -268 l-95 0 l0 28 l-457 0 l0 -31 l-91 0 ZM450 410 l-171 0 q35 -42 54 -93 l117 0 l0 93 ZM709 410 l-164 0 l0 -93 l120 0 q26 44 44 93 ZM762 317 l185 0 l0 -73 l-892 0 l0 73 l180 0 q-16 36 -43 76 l71 17 l-177 0 l0 71 l364 0 l0 58 l-275 0 l0 68 l275 0 l0 56 l-338 0 l0 70 l177 0 q-15 38 -44 83 l84 23 q37 -49 54 -93 l-42 -13 l266 0 q39 64 54 108 l97 -19 q-22 -41 -55 -89 l186 0 l0 -70 l-344 0 l0 -56 l282 0 l0 -68 l-282 0 l0 -58 l374 0 l0 -71 l-204 0 l89 -16 q-12 -23 -42 -77 Z" /><glyph glyph-name="cid13058" unicode="&#x55b7;" d="M599 615 l0 63 l-217 0 l0 76 l217 0 l0 77 l88 0 l0 -77 l223 0 l0 -76 l-223 0 l0 -63 l-88 0 ZM451 447 l0 58 l-109 0 l0 75 l109 0 l0 58 l85 0 l0 -58 l219 0 l0 58 l84 0 l0 -58 l111 0 l0 -75 l-111 0 l0 -58 l-84 0 l0 58 l-219 0 l0 -58 l-85 0 ZM884 97 l-85 0 l0 254 l-309 0 l0 -258 l-82 0 l0 334 l476 0 l0 -330 ZM234 662 l-89 0 l0 -394 l89 0 l0 394 ZM308 182 l-163 0 l0 -92 l-73 0 l0 658 l236 0 l0 -566 ZM686 288 l0 -110 q0 -39 -13 -71 q-13 -32 -47 -66.5 q-34 -34.5 -103.5 -63.5 q-69.5 -29 -172.5 -50 q-20 38 -52 65 q77 13 134 31 q57 18 88.5 36 q31.5 18 50.5 40.5 q19 22.5 24.5 40.5 q5.5 18 5.5 40 l0 108 l85 0 ZM679 54 l44 50 q36 -14 127 -55 q91 -41 122 -57 l-42 -72 q-40 26 -122.5 69.5 q-82.5 43.5 -128.5 64.5 Z" /><glyph glyph-name="cid13372" unicode="&#x5668;" d="M622 28 l152 0 l0 121 l-152 0 l0 -121 ZM366 28 l0 121 l-141 0 l0 -121 l141 0 ZM357 598 l0 119 l-153 0 l0 -119 l153 0 ZM626 717 l0 -119 l162 0 l0 119 l-162 0 ZM947 346 l-250 0 q115 -87 270 -123 q-33 -28 -58 -74 q-8 2 -23 7.5 q-15 5.5 -23 7.5 l0 -237 l-89 0 l0 21 l-152 0 l0 -26 l-85 0 l0 308 l187 0 q-84 50 -145 116 l-181 0 q-63 -66 -140 -116 l197 0 l0 -303 l-89 0 l0 21 l-141 0 l0 -26 l-85 0 l0 244 q-26 -13 -56 -25 q-20 44 -50 72 q139 51 240 133 l-220 0 l0 82 l303 0 q39 48 60 91 l-296 0 l0 277 l324 0 l0 -265 l72 -14 q-18 -39 -51 -89 l245 0 q-46 30 -106 52 l41 39 l-105 0 l0 277 l336 0 l0 -277 l-199 0 q85 -35 124 -67 l-25 -24 l170 0 l0 -82 Z" /><glyph glyph-name="cid13579" unicode="&#x56db;" d="M181 114 l632 0 l0 141 q-17 -6 -61 -6 l-98 0 q-58 0 -78 28.5 q-20 28.5 -20 97.5 l0 289 l-122 0 q-2 -85 -6 -142 q-4 -57 -16 -115 q-12 -58 -32.5 -97 q-20.5 -39 -54.5 -73.5 q-34 -34.5 -83 -59.5 q-20 44 -56 73 q98 49 126.5 137 q28.5 88 31.5 277 l-163 0 l0 -550 ZM813 283 l0 381 l-170 0 l0 -291 q0 -26 4.5 -36 q4.5 -10 19.5 -10 l83 0 q36 0 59 6 q0 -8 1.5 -24.5 q1.5 -16.5 2.5 -25.5 ZM88 754 l822 0 l0 -793 l-97 0 l0 64 l-632 0 l0 -72 l-93 0 l0 801 Z" /><glyph glyph-name="cid13593" unicode="&#x56e2;" d="M769 557 l0 -82 l-140 0 l0 -289 q0 -34 -8 -53 q-8 -19 -30 -28 q-33 -16 -133 -16 q-8 39 -31 83 q69 -3 95 -1 q17 0 17 16 l0 189 q-118 -127 -264 -209 q-27 37 -60 64 q79 42 157 106 q78 64 135 138 l-272 0 l0 82 l304 0 l0 119 l90 0 l0 -119 l140 0 ZM179 44 l638 0 l0 668 l-638 0 l0 -668 ZM84 797 l832 0 l0 -876 l-99 0 l0 39 l-638 0 l0 -39 l-95 0 l0 876 Z" /><glyph glyph-name="cid13634" unicode="&#x56fd;" d="M678 210 l89 0 l0 -77 l-533 0 l0 77 l217 0 l0 148 l-177 0 l0 79 l177 0 l0 121 l-203 0 l0 82 l499 0 l0 -82 l-209 0 l0 -121 l187 0 l0 -79 l-187 0 l0 -148 l138 0 q-28 48 -89 109 l59 32 q59 -54 93 -104 l-61 -37 ZM180 56 l634 0 l0 654 l-634 0 l0 -654 ZM86 796 l827 0 l0 -875 l-99 0 l0 49 l-634 0 l0 -49 l-94 0 l0 875 Z" /><glyph glyph-name="cid13704" unicode="&#x5728;" d="M685 290 l0 -258 l251 0 l0 -87 l-597 0 l0 87 l252 0 l0 258 l-214 0 l0 86 l214 0 l0 180 l94 0 l0 -180 l213 0 l0 -86 l-213 0 ZM437 693 l500 0 l0 -89 l-538 0 q-55 -115 -119 -201 l0 -480 l-93 0 l0 372 q-52 -51 -104 -87 q-19 47 -46 87 q153 104 257 309 l-230 0 l0 89 l270 0 q26 61 49 147 l97 -24 q-22 -68 -43 -123 Z" /><glyph glyph-name="cid13726" unicode="&#x573a;" d="M569 523 l374 0 q-1 -29 -2 -42 q-16 -257 -32.5 -368.5 q-16.5 -111.5 -42.5 -143.5 q-29 -34 -73 -39 q-36 -6 -111 -2 q-4 51 -25 87 q39 -4 93 -4 q21 -1 35 15 q38 41 61 410 l-54 0 q-99 -347 -335 -511 q-27 25 -72 51 q231 141 322 460 l-72 0 q-65 -188 -212 -299 q-8 8 -53 43 l3 -12 q-41 -17 -305 -123 l-30 95 q18 6 129 44 l0 327 l-116 0 l0 88 l116 0 l0 227 l87 0 l0 -227 l104 0 l0 -88 l-104 0 l0 -296 q21 8 100 37 l12 -55 q124 84 182 239 l-44 0 q-74 0 -88 -14 q-12 41 -39 87 q30 4 102 50 q91 58 191 145 l-294 0 l0 88 l393 0 l21 8 l68 -53 q-143 -128 -289 -224 Z" /><glyph glyph-name="cid13883" unicode="&#x57a2;" d="M350 259 l19 -86 q-72 -30 -297 -123 l-31 95 q103 37 123 44 l0 323 l-111 0 l0 88 l111 0 l0 226 l89 0 l0 -226 l103 0 l0 -88 l-103 0 l0 -290 l97 37 ZM822 286 l-218 0 l0 -205 l218 0 l0 205 ZM519 -66 l0 436 l393 0 l0 -432 l-90 0 l0 58 l-218 0 l0 -62 l-85 0 ZM493 572 l464 0 l0 -86 l-464 0 l0 -52 q0 -101 -8 -182 q-8 -81 -40 -177 q-32 -96 -87 -161 q-38 36 -75 55 q120 140 120 465 l0 341 q299 18 462 57 l58 -79 q-160 -38 -430 -54 l0 -127 Z" /><glyph glyph-name="cid14022" unicode="&#x57f9;" d="M925 728 l0 -83 l-545 0 l0 83 l232 0 q-10 55 -26 102 l84 14 q20 -56 32 -116 l223 0 ZM574 482 l-80 -26 q-11 77 -49 161 l76 23 q40 -86 53 -158 ZM239 214 l109 41 l17 -85 q-115 -49 -299 -124 l-29 95 q10 3 119 42 l0 328 l-111 0 l0 88 l111 0 l0 228 l83 0 l0 -228 l106 0 l0 -88 l-106 0 l0 -297 ZM791 209 l-281 0 l0 -166 l281 0 l0 166 ZM425 -78 l0 370 l454 0 l0 -366 l-88 0 l0 35 l-281 0 l0 -39 l-85 0 ZM794 452 l164 0 l0 -84 l-616 0 l0 84 l368 0 q43 103 63 192 l86 -23 q-34 -95 -65 -169 Z" /><glyph glyph-name="cid14023" unicode="&#x57fa;" d="M332 426 l0 -60 l340 0 l0 60 l-340 0 ZM672 675 l-340 0 l0 -56 l340 0 l0 56 ZM332 551 l0 -57 l340 0 l0 57 l-340 0 ZM955 289 l-200 0 q90 -93 212 -136 q-33 -28 -61 -72 q-72 31 -139 86.5 q-67 55.5 -113 121.5 l-298 0 q-35 -52 -88 -101 l183 0 l0 75 l94 0 l0 -75 l198 0 l0 -74 l-198 0 l0 -89 l336 0 l0 -77 l-753 0 l0 77 l323 0 l0 89 l-191 0 l0 66 q-75 -67 -165 -110 q-26 44 -60 71 q123 47 216 148 l-206 0 l0 77 l194 0 l0 309 l-145 0 l0 76 l145 0 l0 87 l93 0 l0 -87 l340 0 l0 86 l95 0 l0 -86 l143 0 l0 -76 l-143 0 l0 -309 l188 0 l0 -77 Z" /><glyph glyph-name="cid14255" unicode="&#x5883;" d="M900 772 l0 -77 l-502 0 l0 77 l206 0 q-14 40 -22 57 l86 17 q20 -39 32 -74 l200 0 ZM926 590 l0 -78 l-557 0 l0 78 l132 0 q-13 47 -27 83 l75 17 q24 -51 34 -95 l-19 -5 l141 0 q31 81 36 98 l85 -17 q-6 -12 -19 -40 q-13 -28 -20 -41 l139 0 ZM343 250 l19 -85 q-180 -74 -297 -119 l-31 95 q83 27 120 40 l0 330 l-104 0 l0 88 l104 0 l0 227 l91 0 l0 -227 l91 0 l0 -88 l-91 0 l0 -297 l98 36 ZM498 296 l0 -56 l288 0 l0 56 l-288 0 ZM498 407 l0 -53 l288 0 l0 53 l-288 0 ZM792 7 l39 0 q20 0 29 3 q10 5 14 21 q3 14 5 80 q27 -24 73 -39 q-4 -74 -13 -95 q-13 -25 -39 -34 q-22 -9 -61 -9 l-66 0 q-45 0 -71 21 q-14 11 -19.5 29 q-5.5 18 -5.5 59 l0 136 l-81 0 q-14 -110 -67.5 -169.5 q-53.5 -59.5 -185.5 -92.5 q-13 40 -48 73 q114 22 157.5 64 q43.5 42 54.5 125 l-94 0 l0 290 l462 0 l0 -290 l-112 0 l0 -141 q0 -22 7 -26 q6 -5 22 -5 Z" /><glyph glyph-name="cid14446" unicode="&#x58f0;" d="M453 374 l-210 0 l0 -51 q0 -44 -4 -81 l214 0 l0 132 ZM773 242 l0 132 l-230 0 l0 -132 l230 0 ZM866 450 l0 -338 l-93 0 l0 51 l-545 0 q-32 -157 -126 -246 q-12 14 -35 34 q-23 20 -38 29 q123 115 123 344 l0 126 l714 0 ZM928 680 l-384 0 l0 -82 l340 0 l0 -79 l-752 0 l0 79 l319 0 l0 82 l-380 0 l0 79 l380 0 l0 81 l93 0 l0 -81 l384 0 l0 -79 Z" /><glyph glyph-name="cid14485" unicode="&#x590d;" d="M907 671 l-652 0 q-66 -86 -147 -146 q-35 50 -59 71 q65 44 122 108 q57 64 90 134 l84 -25 q-18 -38 -36 -66 l598 0 l0 -76 ZM681 192 l-346 0 q66 -60 169 -98 q105 38 177 98 ZM303 436 l0 -57 l437 0 l0 57 l-437 0 ZM303 550 l0 -54 l437 0 l0 54 l-437 0 ZM768 266 l59 -38 q-73 -102 -208 -171 q153 -38 343 -47 q-28 -31 -51 -81 q-240 19 -401 81 q-179 -64 -440 -90 q-9 45 -35 82 q201 14 367 58 q-81 48 -129 100 q-56 -46 -115 -81 q-32 36 -66 60 q138 68 228 176 l-110 0 l0 300 l627 0 l0 -300 l-430 0 l11 -4 q-24 -32 -40 -49 l376 0 l14 4 Z" /><glyph glyph-name="cid14506" unicode="&#x5916;" d="M451 691 l18 3 l66 -20 q-73 -562 -420 -743 q-11 17 -35 41 q-24 24 -43 36 q177 85 276 259 q-52 49 -147 117 l56 63 q79 -54 132 -97 q47 117 70 253 l-172 0 q-58 -160 -136 -260 q-29 27 -79 59 q125 141 185 438 l93 -17 q-11 -50 -34 -132 l170 0 ZM698 515 l34 25 q174 -149 235 -225 l-79 -64 q-53 72 -190 199 l0 -528 l-98 0 l0 917 l98 0 l0 -324 Z" /><glyph glyph-name="cid14516" unicode="&#x591a;" d="M743 759 l61 -37 q-46 -81 -121.5 -150 q-75.5 -69 -168 -118 q-92.5 -49 -190.5 -83.5 q-98 -34.5 -203 -55.5 q-21 53 -44 82 q172 29 316 93 q-43 39 -101 78 l69 45 q63 -39 115 -82 q116 64 184 141 l-268 0 q-100 -75 -223 -133 q-26 40 -63 67 q114 46 203 108.5 q89 62.5 140 126.5 l101 -23 q-24 -29 -62 -64 l239 0 l16 5 ZM880 402 l64 -37 q-50 -108 -136 -189 q-86 -81 -199.5 -132 q-113.5 -51 -234.5 -80.5 q-121 -29.5 -266 -45.5 q-12 53 -37 90 q274 23 458 100 q-46 45 -103 86 l76 46 q69 -50 114 -91 q123 70 189 166 l-251 0 q-125 -97 -301 -166 q-23 44 -58 72 q144 49 250.5 121 q106.5 72 165.5 150 l102 -23 q-32 -40 -63 -71 l214 0 l16 4 Z" /><glyph glyph-name="cid14544" unicode="&#x5927;" d="M939 466 l-365 0 q53 -162 149.5 -280.5 q96.5 -118.5 233.5 -175.5 q-42 -36 -69 -87 q-261 121 -386 461 q-91 -322 -386 -461 q-26 43 -71 78 q301 132 375 465 l-355 0 l0 96 l372 0 q10 80 12 276 l101 0 q-2 -179 -14 -276 l403 0 l0 -96 Z" /><glyph glyph-name="cid14548" unicode="&#x5929;" d="M932 370 l-366 0 q54 -135 154.5 -227 q100.5 -92 245.5 -132 q-40 -38 -63 -86 q-276 92 -401 370 q-89 -249 -400 -371 q-25 48 -61 79 q310 119 380 367 l-351 0 l0 95 l369 0 q5 42 5 97 l0 109 l-338 0 l0 96 l785 0 l0 -96 l-350 0 l0 -110 q0 -52 -4 -96 l395 0 l0 -95 Z" /><glyph glyph-name="cid14697" unicode="&#x597d;" d="M339 553 l-123 0 q-26 -122 -53 -220 q87 -65 99 -75 q57 131 77 295 ZM379 642 l56 -14 q-20 -257 -100 -430 q76 -67 112 -115 l-61 -79 q-39 52 -98 108 q-79 -120 -202 -191 q-28 50 -58 74 q116 60 190 179 q-68 59 -158 124 q36 110 66 255 l-82 0 l0 86 l100 0 q19 110 28 199 l93 -6 q-11 -87 -32 -193 l129 0 l17 3 ZM959 424 l0 -89 l-211 0 l0 -309 q0 -39 -10.5 -59.5 q-10.5 -20.5 -36.5 -30.5 q-40 -16 -164 -16 q-8 44 -32 89 q91 -3 126 -1 q12 0 17 4 q5 4 5 15 l0 308 l-221 0 l0 89 l221 0 l0 106 q68 59 133 156 l-312 0 l0 85 l376 0 l21 5 l64 -45 q-85 -130 -187 -220 l0 -87 l211 0 Z" /><glyph glyph-name="cid14719" unicode="&#x5986;" d="M237 532 l0 306 l86 0 l0 -917 l-86 0 l0 342 q-88 -85 -147 -137 l-52 79 q80 65 199 175 l0 148 l-74 -48 q-32 61 -120 187 l71 41 q84 -112 123 -176 ZM770 518 l-167 0 q-39 -122 -78 -222 q86 -52 141 -89 q72 111 104 311 ZM960 518 l-96 0 q-34 -232 -120 -364 q121 -80 210 -156 l-76 -67 q-62 57 -190 152 q-99 -106 -278 -164 q-19 46 -54 81 q162 44 255 138 q-103 72 -201 129 q49 105 97 251 l-155 0 l0 91 l185 0 q37 127 56 231 l95 -11 q-19 -89 -56 -220 l328 0 l0 -91 Z" /><glyph glyph-name="cid15785" unicode="&#x5b50;" d="M950 403 l0 -93 l-397 0 l0 -273 q0 -43 -12.5 -66 q-12.5 -23 -43.5 -33 q-48 -17 -201 -17 q-11 49 -40 96 q52 -2 106.5 -2.5 q54.5 -0.5 66.5 0.5 q16 1 21.5 6 q5.5 5 5.5 18 l0 271 l-403 0 l0 93 l403 0 l0 141 q122 58 226 141 l-530 0 l0 91 l632 0 l21 5 l70 -54 q-143 -138 -322 -232 l0 -92 l397 0 Z" /><glyph glyph-name="cid15792" unicode="&#x5b54;" d="M477 787 l65 -45 q-87 -123 -202 -216 l0 -128 q83 21 181 49 l13 -88 q-24 -7 -90.5 -26 q-66.5 -19 -103.5 -29 l0 -272 q0 -39 -9.5 -60.5 q-9.5 -21.5 -33.5 -32.5 q-39 -18 -157 -16 q-8 51 -29 93 q52 -2 118 -2 q12 1 16 4.5 q4 3.5 4 14.5 l0 246 q-38 -11 -103 -28.5 q-65 -17.5 -91 -24.5 l-20 93 q83 20 214 54 l0 191 q74 52 139 132 l-328 0 l0 86 l399 0 l18 5 ZM730 15 l108 0 q26 0 34.5 35.5 q8.5 35.5 12.5 149.5 q38 -29 84 -42 q-8 -130 -32.5 -178.5 q-24.5 -48.5 -91.5 -48.5 l-129 0 q-72 0 -96.5 30.5 q-24.5 30.5 -24.5 116.5 l0 740 l93 0 l0 -741 q0 -40 7.5 -51 q7.5 -11 34.5 -11 Z" /><glyph glyph-name="cid15830" unicode="&#x5b66;" d="M167 595 l0 -123 l-87 0 l0 205 l158 0 q-28 56 -79 117 l79 36 q67 -76 93 -133 l-40 -20 l198 0 q-23 66 -70 140 l82 31 q61 -88 79 -149 l-55 -22 l148 0 q59 77 94 156 l95 -32 q-49 -73 -90 -124 l155 0 l0 -205 l-92 0 l0 123 l-668 0 ZM942 279 l0 -86 l-397 0 l0 -164 q0 -39 -12 -59.5 q-12 -20.5 -42 -30.5 q-44 -15 -187 -15 q-13 48 -39 89 q114 -3 161 -1 q14 1 19 4.5 q5 3.5 5 14.5 l0 162 l-387 0 l0 86 l387 0 l0 68 q71 27 148 75 l-364 0 l0 81 l469 0 l19 5 l60 -47 q-94 -85 -237 -151 l0 -31 l397 0 Z" /><glyph glyph-name="cid15908" unicode="&#x5b8c;" d="M175 641 l0 -143 l-93 0 l0 232 l375 0 q-17 45 -42 91 l94 28 q37 -60 59 -119 l347 0 l0 -232 l-96 0 l0 143 l-644 0 ZM761 464 l-527 0 l0 85 l527 0 l0 -85 ZM707 21 l121 0 q26 0 33.5 22.5 q7.5 22.5 10.5 104.5 q31 -24 84 -37 q-7 -105 -31.5 -140 q-24.5 -35 -88.5 -35 l-141 0 q-76 0 -101 24.5 q-25 24.5 -25 94.5 l0 224 l-157 0 q-6 -81 -20.5 -134 q-14.5 -53 -48.5 -100 q-34 -47 -94 -76.5 q-60 -29.5 -154 -48.5 q-13 39 -49 79 q83 15 134.5 37 q51.5 22 80.5 58 q29 36 40.5 77 q11.5 41 15.5 108 l-258 0 l0 87 l881 0 l0 -87 l-277 0 l0 -224 q0 -22 7.5 -28 q7.5 -6 36.5 -6 Z" /><glyph glyph-name="cid15946" unicode="&#x5b9e;" d="M181 648 l0 -126 l-92 0 l0 213 l377 0 q-18 40 -45 84 l94 29 q46 -77 60 -113 l339 0 l0 -213 l-97 0 l0 126 l-636 0 ZM442 504 l-59 -67 q-46 56 -144 113 l55 61 q104 -57 148 -107 ZM140 398 l54 62 q96 -46 154 -104 l-57 -69 q-53 57 -151 111 ZM534 93 l44 68 q98 -32 194.5 -76.5 q96.5 -44.5 157.5 -84.5 l-57 -74 q-129 94 -339 167 ZM556 265 l376 0 l0 -79 l-406 0 q-45 -97 -137.5 -161 q-92.5 -64 -253.5 -102 q-16 45 -52 81 q249 53 333 182 l-342 0 l0 79 l381 0 q15 42 23 100 q8 58 11 104.5 q3 46.5 5 132.5 l98 0 q-7 -228 -36 -337 Z" /><glyph glyph-name="cid15995" unicode="&#x5bb6;" d="M173 670 l0 -129 l-90 0 l0 213 l366 0 q-12 30 -31 65 l97 28 q24 -37 47 -93 l361 0 l0 -213 l-95 0 l0 129 l-655 0 ZM780 483 l76 -61 q-51 -42 -141 -104 q33 -96 98 -170.5 q65 -74.5 152 -109.5 q-34 -27 -61 -75 q-178 82 -262 308 q-6 -4 -19.5 -12 q-13.5 -8 -20.5 -12 q23 -94 9 -173.5 q-14 -79.5 -55 -111.5 q-41 -40 -108 -40 q-32 -1 -83 2 q-4 51 -25 87 q58 -5 89 -5 q40 0 60 22 q41 34 35 142 q-84 -62 -197.5 -117.5 q-113.5 -55.5 -218.5 -86.5 q-19 44 -49 77 q120 28 248 88.5 q128 60.5 201 124.5 q-11 35 -21 56 q-156 -102 -365 -169 q-24 46 -47 73 q93 21 201.5 66.5 q108.5 45.5 173.5 90.5 q-16 24 -39 48 q-126 -69 -282 -112 q-22 43 -49 74 q208 45 339 128 l-203 0 l0 80 l566 0 l0 -80 l-237 0 q-19 -17 -65 -49 q60 -57 96 -139 q123 82 204 160 Z" /><glyph glyph-name="cid16002" unicode="&#x5bb9;" d="M174 668 l0 -110 l-91 0 l0 194 l377 0 q-15 38 -34 74 l96 21 q29 -48 48 -95 l347 0 l0 -194 l-94 0 l0 110 l-649 0 ZM574 579 l64 53 q170 -102 255 -188 l-67 -60 q-38 41 -110.5 96.5 q-72.5 55.5 -141.5 98.5 ZM328 633 l87 -30 q-47 -63 -116 -122 q-69 -59 -140 -99 q-35 45 -64 70 q68 32 130.5 80.5 q62.5 48.5 102.5 100.5 ZM322 256 l375 0 q-106 68 -194 162 q-77 -89 -181 -162 ZM310 34 l378 0 l0 140 l-378 0 l0 -140 ZM488 543 l81 -35 q-5 -9 -17 -25 q147 -160 407 -257 q-39 -36 -60 -77 q-40 17 -116 56 l0 -281 l-95 0 l0 28 l-378 0 l0 -31 l-91 0 l0 272 q-66 -36 -121 -57 q-23 41 -59 75 q142 50 261.5 137 q119.5 87 187.5 195 Z" /><glyph glyph-name="cid16134" unicode="&#x5bf9;" d="M387 732 l60 -20 q-31 -228 -112 -407 q77 -111 112 -183 l-68 -70 q-33 67 -92 159 q-80 -141 -188 -226 q-28 46 -65 74 q112 81 195 241 q-78 114 -172 239 l61 57 q104 -134 154 -203 q50 123 73 253 l-294 0 l0 82 l321 0 l15 4 ZM958 626 l0 -89 l-114 0 l0 -496 q0 -42 -10.5 -64.5 q-10.5 -22.5 -35.5 -33.5 q-39 -19 -170 -19 q-8 47 -31 96 q41 -2 81.5 -2.5 q40.5 -0.5 49.5 0.5 q13 0 18.5 5 q5.5 5 5.5 18 l0 496 l-274 0 l0 89 l274 0 l0 211 l92 0 l0 -211 l114 0 ZM690 204 l-82 -40 q-12 49 -45 117.5 q-33 68.5 -71 125.5 l76 37 q93 -133 122 -240 Z" /><glyph glyph-name="cid16139" unicode="&#x5bfc;" d="M731 724 l-501 0 l0 -87 l501 0 l0 87 ZM738 392 l-376 0 q-134 0 -181.5 24.5 q-47.5 24.5 -47.5 100.5 l0 288 l689 0 l0 -248 l-592 0 l0 -39 q0 -31 24.5 -41 q24.5 -10 103.5 -10 l372 0 q58 0 77 14 q19 14 26 63 q36 -20 88 -28 q-10 -76 -47 -100 q-37 -24 -136 -24 ZM940 300 l0 -86 l-211 0 l0 -191 q0 -39 -12 -58.5 q-12 -19.5 -42 -28.5 q-43 -13 -197 -13 q-8 36 -32 83 q115 -3 161 -1 q15 0 20.5 4.5 q5.5 4.5 5.5 15.5 l0 189 l-344 0 q107 -86 149 -151 l-68 -63 q-22 36 -69 84.5 q-47 48.5 -96 88.5 l46 41 l-188 0 l0 86 l570 0 l0 69 l96 0 l0 -69 l211 0 Z" /><glyph glyph-name="cid16173" unicode="&#x5c0f;" d="M453 825 l101 0 l0 -781 q0 -46 -12.5 -69.5 q-12.5 -23.5 -42.5 -35.5 q-50 -19 -199 -17 q-12 52 -37 97 q47 -2 99 -2.5 q52 -0.5 63 0.5 q16 1 22 6.5 q6 5.5 6 20.5 l0 781 ZM692 570 l90 34 q66 -107 120 -230 q54 -123 72 -212 l-101 -40 q-15 86 -66.5 211 q-51.5 125 -114.5 237 ZM194 596 l105 -19 q-68 -300 -176 -438 q-45 33 -89 49 q58 72 99 184 q41 112 61 224 Z" /><glyph glyph-name="cid16177" unicode="&#x5c11;" d="M226 686 l89 -23 q-78 -199 -181 -338 q-26 20 -81 45 q101 121 173 316 ZM691 650 l75 39 q126 -184 186 -311 l-80 -47 q-53 125 -181 319 ZM749 327 l84 -40 q-98 -159 -287 -245.5 q-189 -86.5 -468 -119.5 q-16 53 -44 89 q267 25 446 99.5 q179 74.5 269 216.5 ZM440 837 l93 0 l0 -613 l-93 0 l0 613 Z" /><glyph glyph-name="cid16224" unicode="&#x5c31;" d="M929 651 l-65 -42 q-29 67 -100 153 l61 35 q74 -82 104 -146 ZM507 721 l0 -82 l-452 0 l0 82 l200 0 q-16 53 -39 101 l85 19 q35 -71 50 -120 l156 0 ZM133 278 l78 -17 q-39 -159 -100 -251 q-34 27 -66 44 q59 82 88 224 ZM185 498 l0 -105 l199 0 l0 105 l-199 0 ZM469 320 l-136 0 l0 -306 q0 -58 -32 -73 q-29 -14 -114 -14 q-5 37 -26 77 q33 -1 75 -1 q14 0 14 13 l0 304 l-146 0 l0 251 l365 0 l0 -251 ZM362 259 l66 30 q54 -91 75 -175 l-71 -32 q-17 83 -70 177 ZM823 13 l35 0 q18 0 24 5 q8 3 13 27 q4 24 4 109 q25 -24 73 -39 q-4 -91 -12 -119 q-12 -32 -35 -43 q-21 -11 -58 -11 l-63 0 q-41 0 -65 20 q-13 11 -18 31 q-5 20 -5 67 l0 340 q-47 -326 -213 -480 q-29 35 -67 57 q175 155 206 523 l-123 0 l0 84 l128 0 q5 86 5 253 l88 0 q-2 -168 -7 -253 l220 0 l0 -84 l-225 0 q-1 -11 -3.5 -33 q-2.5 -22 -3.5 -33 l76 0 l0 -381 q0 -30 6 -35 q8 -5 20 -5 Z" /><glyph glyph-name="cid16251" unicode="&#x5c42;" d="M795 714 l-572 0 l0 -104 l572 0 l0 104 ZM888 531 l-665 0 l0 -28 q0 -393 -108 -579 q-34 28 -83 47 q42 71 65 175 q23 104 27.5 180 q4.5 76 4.5 176 l0 291 l759 0 l0 -262 ZM871 374 l-562 0 l0 81 l562 0 l0 -81 ZM939 203 l-402 0 q-61 -98 -128 -171 l338 19 q-63 98 -66 103 l82 34 q104 -149 150 -235 l-87 -42 q-16 33 -36 67 q-301 -22 -382.5 -29.5 q-81.5 -7.5 -107.5 -16.5 q-18 54 -33 84 q24 6 56 44 q46 49 98 143 l-173 0 l0 82 l691 0 l0 -82 Z" /><glyph glyph-name="cid17051" unicode="&#x5ddd;" d="M160 787 l95 0 l0 -339 q0 -175 -28.5 -304.5 q-28.5 -129.5 -116.5 -230.5 q-33 38 -79 67 q78 89 103.5 202 q25.5 113 25.5 266 l0 339 ZM469 745 l95 0 l0 -733 l-95 0 l0 733 ZM788 789 l98 0 l0 -866 l-98 0 l0 866 Z" /><glyph glyph-name="cid17105" unicode="&#x5e02;" d="M949 607 l-404 0 l0 -124 l321 0 l0 -343 q0 -39 -10 -60 q-10 -21 -37 -31 q-39 -16 -174 -16 q-7 44 -33 91 q60 -2 136 -2 q13 1 17.5 5 q4.5 4 4.5 14 l0 251 l-225 0 l0 -468 l-97 0 l0 468 l-211 0 l0 -361 l-94 0 l0 452 l305 0 l0 124 l-396 0 l0 91 l414 0 q-24 58 -59 122 l91 27 q58 -99 76 -149 l375 0 l0 -91 Z" /><glyph glyph-name="cid17106" unicode="&#x5e03;" d="M940 603 l-536 0 q-41 -89 -95 -169 l193 0 l0 126 l94 0 l0 -126 l292 0 l0 -315 q0 -36 -9.5 -55.5 q-9.5 -19.5 -34.5 -29.5 q-41 -16 -168 -14 q-7 43 -30 84 q92 -3 127 -1 q12 0 16.5 4 q4.5 4 4.5 14 l0 226 l-198 0 l0 -427 l-94 0 l0 427 l-188 0 l0 -336 l-93 0 l0 309 q-61 -67 -136 -121 q-24 47 -54 81 q165 113 269 323 l-238 0 l0 89 l278 0 q32 81 49 149 l96 -23 q-15 -52 -43 -126 l498 0 l0 -89 Z" /><glyph glyph-name="cid17111" unicode="&#x5e08;" d="M174 725 l0 -482 l-83 0 l0 482 l83 0 ZM250 443 l0 394 l86 0 l0 -394 q0 -177 -33.5 -302 q-33.5 -125 -135.5 -218 q-27 36 -69 62 q49 43 81 95.5 q32 52.5 46.5 114.5 q14.5 62 19.5 117.5 q5 55.5 5 130.5 ZM945 705 l-242 0 l0 -109 l210 0 l0 -434 q0 -61 -32 -77 q-29 -15 -115 -15 q-3 36 -26 80 q59 -2 73 0 q14 0 14 13 l0 350 l-124 0 l0 -589 l-87 0 l0 589 l-115 0 l0 -448 l-85 0 l0 531 l200 0 l0 109 l-232 0 l0 85 l561 0 l0 -85 Z" /><glyph glyph-name="cid17186" unicode="&#x5e38;" d="M329 484 l0 -82 l342 0 l0 82 l-342 0 ZM864 261 l0 -205 q0 -35 -9.5 -54.5 q-9.5 -19.5 -34.5 -29.5 q-38 -14 -161 -14 q-8 38 -31 85 q53 -2 120 -2 q12 1 16 4 q4 3 4 12 l0 120 l-208 0 l0 -256 l-96 0 l0 256 l-221 0 l0 -211 l-94 0 l0 295 l315 0 l0 73 l-224 0 l0 218 l526 0 l0 -218 l-206 0 l0 -73 l304 0 ZM755 692 l166 0 l0 -223 l-92 0 l0 143 l-655 0 l0 -143 l-89 0 l0 223 l148 0 q-30 57 -68 105 l84 33 q49 -52 79 -112 l-59 -26 l186 0 l0 147 l96 0 l0 -147 l179 0 l-60 23 q52 64 78 116 l99 -32 q-58 -73 -92 -107 Z" /><glyph glyph-name="cid17281" unicode="&#x5e72;" d="M945 438 l0 -96 l-397 0 l0 -420 l-103 0 l0 420 l-388 0 l0 96 l388 0 l0 238 l-337 0 l0 95 l791 0 l0 -95 l-351 0 l0 -238 l397 0 Z" /><glyph glyph-name="cid17283" unicode="&#x5e74;" d="M303 232 l201 0 l0 177 l-201 0 l0 -177 ZM951 232 l0 -90 l-351 0 l0 -221 l-96 0 l0 221 l-455 0 l0 90 l161 0 l0 264 l294 0 l0 138 l-229 0 q-66 -113 -144 -190 q-38 34 -81 60 q68 59 125.5 148.5 q57.5 89.5 92.5 190.5 l94 -25 q-15 -37 -39 -94 l579 0 l0 -90 l-302 0 l0 -138 l279 0 l0 -87 l-279 0 l0 -177 l351 0 Z" /><glyph glyph-name="cid17287" unicode="&#x5e76;" d="M377 351 l250 0 l0 197 l-250 0 l0 -179 l0 -18 ZM947 351 l0 -89 l-222 0 l0 -340 l-98 0 l0 340 l-256 0 q-6 -53 -20.5 -97.5 q-14.5 -44.5 -42 -90.5 q-27.5 -46 -73.5 -86.5 q-46 -40.5 -110 -73.5 q-29 45 -67 76 q184 92 214 272 l-216 0 l0 89 l224 0 l0 20 l0 177 l-190 0 l0 89 l221 0 q-27 78 -95 171 l88 34 q74 -96 102 -171 l-81 -34 l278 0 q51 97 86 206 l108 -30 q-59 -117 -93 -176 l213 0 l0 -89 l-192 0 l0 -197 l222 0 Z" /><glyph glyph-name="cid17546" unicode="&#x5efa;" d="M796 684 l-134 0 l0 -60 l134 0 l0 60 ZM796 490 l0 61 l-134 0 l0 -61 l134 0 ZM575 624 l0 60 l-181 0 l0 73 l181 0 l0 78 l87 0 l0 -78 l217 0 l0 -133 l62 0 l0 -73 l-62 0 l0 -134 l-217 0 l0 -62 l232 0 l0 -70 l-232 0 l0 -67 l266 0 l0 -75 l-266 0 l0 -85 l-87 0 l0 85 l-234 0 l0 75 l234 0 l0 67 l-194 0 l0 70 l194 0 l0 62 l-187 0 l0 73 l187 0 l0 61 l-241 0 l0 73 l241 0 ZM291 504 l52 -14 q-23 -216 -83 -354 q67 -62 160.5 -85.5 q93.5 -23.5 224.5 -23.5 q257 0 315 1 q-25 -38 -34 -85 l-283 0 q-145 0 -246.5 25.5 q-101.5 25.5 -174.5 91.5 q-48 -81 -117 -135 q-10 13 -31 32.5 q-21 19.5 -36 29.5 q76 52 124 142 q-52 75 -88 191 l69 26 q25 -81 57 -135 q34 92 50 209 l-160 0 q66 114 138 279 l-163 0 l0 81 l292 0 q-65 -143 -133 -279 l50 0 l17 3 Z" /><glyph glyph-name="cid17581" unicode="&#x5f0f;" d="M353 347 l0 -249 q74 13 201 40 l7 -84 q-151 -34 -473 -105 l-27 94 q37 6 199 36 l0 268 l-166 0 l0 90 l434 0 l0 -90 l-175 0 ZM709 783 l61 51 q92 -60 139 -115 l-65 -58 q-48 60 -135 122 ZM944 570 l-281 0 q17 -241 66 -397 q49 -156 113 -156 q34 0 42 184 q35 -37 82 -53 q-12 -133 -40.5 -181 q-28.5 -48 -91.5 -48 q-60 0 -108 50 q-48 50 -79.5 141 q-31.5 91 -51.5 205.5 q-20 114.5 -30 254.5 l-507 0 l0 91 l501 0 q-4 114 -4 173 l100 0 q-1 -79 2 -173 l287 0 l0 -91 Z" /><glyph glyph-name="cid17592" unicode="&#x5f15;" d="M201 350 l354 0 q-1 -28 -3 -41 q-13 -165 -28 -241.5 q-15 -76.5 -40 -102.5 q-29 -31 -88 -36 q-57 -5 -156 1 q-4 51 -34 96 q75 -7 153 -7 q30 0 45 11 q31 27 49 234 l-269 0 l-96 -1 q35 150 54 310 l313 0 l0 139 l-343 0 l0 86 l435 0 l0 -312 l-322 0 q-20 -115 -24 -136 ZM767 826 l93 0 l0 -905 l-93 0 l0 905 Z" /><glyph glyph-name="cid17614" unicode="&#x5f20;" d="M833 796 l91 -25 q-44 -81 -111.5 -156.5 q-67.5 -75.5 -139.5 -127.5 q-38 40 -71 64 q70 43 131.5 108 q61.5 65 99.5 137 ZM180 346 l192 0 q0 -25 -2 -36 q-9 -176 -20 -250.5 q-11 -74.5 -33 -97.5 q-25 -28 -72 -32 q-45 -5 -128 0 q-2 42 -27 81 q60 -5 113 -5 q25 0 36 11 q25 28 37 245 l-192 0 q22 145 31 321 l162 0 l0 137 l-187 0 l0 86 l276 0 l0 -309 l-171 0 q-10 -104 -15 -151 ZM954 375 l-210 0 q69 -266 229 -365 q-38 -31 -64 -74 q-176 119 -253 439 l-83 0 l0 -312 l134 51 q0 -57 6 -87 q-221 -92 -242 -111 q-13 50 -38 78 q47 24 47 72 l0 309 l-100 0 l0 88 l100 0 l0 357 l93 0 l0 -357 l381 0 l0 -88 Z" /><glyph glyph-name="cid17767" unicode="&#x5f71;" d="M826 820 l88 -36 q-104 -139 -262 -236 q-29 37 -66 64 q68 38 134.5 94.5 q66.5 56.5 105.5 113.5 ZM855 552 l85 -36 q-52 -71 -129.5 -137 q-77.5 -66 -158.5 -113 q-26 37 -64 66 q76 40 150 99.5 q74 59.5 117 120.5 ZM193 638 l0 -51 l279 0 l0 51 l-279 0 ZM193 744 l0 -49 l279 0 l0 49 l-279 0 ZM598 472 l0 -73 l-540 0 l0 73 l227 0 q-7 19 -19 38 l80 17 l-241 0 l0 277 l459 0 l0 -277 l-209 0 q21 -34 30 -55 l213 0 ZM149 145 l78 -22 q-40 -96 -106 -167 q-25 23 -65 50 q58 59 93 139 ZM203 293 l0 -70 l258 0 l0 70 l-258 0 ZM551 160 l-176 0 l0 -149 q0 -32 -7.5 -48 q-7.5 -16 -27.5 -25 q-30 -13 -121 -13 q-6 38 -28 76 q36 -1 79 -1 q14 0 14 12 l0 148 l-168 0 l0 197 l435 0 l0 -197 ZM873 270 l87 -32 q-56 -96 -143.5 -176 q-87.5 -80 -191.5 -134 q-20 34 -61 69 l-67 -33 q-21 59 -85 154 l66 29 q63 -90 88 -145 q96 45 178.5 116 q82.5 71 128.5 152 Z" /><glyph glyph-name="cid17870" unicode="&#x5fae;" d="M620 757 l0 -243 l-318 0 l0 243 l63 0 l0 -168 l61 0 l0 249 l70 0 l0 -249 l59 0 l0 168 l65 0 ZM196 839 l84 -31 q-87 -140 -203 -234 q-22 41 -48 71 q48 38 94.5 92 q46.5 54 72.5 102 ZM214 636 l82 -29 q-31 -62 -67 -121 l0 -565 l-84 0 l0 443 q-50 -62 -74 -85 q-22 46 -51 83 q121 116 194 274 ZM588 155 l72 42 q8 -35 20 -67 q-139 -90 -162 -119 q-11 42 -33 76 q29 18 29 65 l0 96 l-107 0 l0 -43 q0 -184 -90 -279 q-32 42 -59 61 q70 75 70 220 l0 114 l260 0 l0 -166 ZM844 560 l-101 0 q-2 -6 -5.5 -18.5 q-3.5 -12.5 -5.5 -18.5 q18 -136 53 -249 q39 108 59 286 ZM959 560 l-33 0 q-28 -243 -98 -393 q58 -118 142 -169 q-31 -28 -60 -73 q-74 53 -130 156 q-66 -99 -161 -163 q-18 36 -51 67 q109 68 173 187 q-31 85 -57 226 q-13 -27 -29 -53 q-12 18 -37 47 l0 -20 l-330 0 l0 79 l327 0 q66 134 92 387 l85 -13 q-13 -99 -30 -186 l197 0 l0 -79 Z" /><glyph glyph-name="cid17905" unicode="&#x5fc3;" d="M338 750 l63 62 q191 -127 273 -214 l-69 -71 q-40 45 -117 109 q-77 64 -150 114 ZM748 487 l86 34 q96 -197 132 -372 l-93 -39 q-13 75 -48.5 181 q-35.5 106 -76.5 196 ZM130 492 l91 -17 q-31 -255 -82 -401 l-93 39 q61 162 84 379 ZM297 559 l96 0 l0 -477 q0 -35 12 -45 q12 -10 52 -10 l169 0 q42 0 55 36 q13 36 18 162 q35 -27 87 -40 q-8 -144 -38.5 -194.5 q-30.5 -50.5 -115.5 -50.5 l-185 0 q-88 0 -119 29.5 q-31 29.5 -31 112.5 l0 477 Z" /><glyph glyph-name="cid18006" unicode="&#x6001;" d="M137 -42 l-84 43 q61 91 95 246 l83 -27 q-46 -184 -94 -262 ZM433 25 l201 0 q38 0 49 20.5 q11 20.5 16 95.5 q29 -22 83 -33 q-8 -100 -36.5 -133 q-28.5 -33 -104.5 -33 l-214 0 q-93 0 -125 24.5 q-32 24.5 -32 93.5 l0 184 l92 0 l0 -184 q0 -22 13 -28.5 q13 -6.5 58 -6.5 ZM381 402 l78 49 q108 -60 167 -117 l-85 -53 q-46 52 -160 121 ZM408 263 l72 42 q106 -93 154 -165 l-76 -49 q-45 72 -150 172 ZM743 234 l82 27 q92 -155 121 -265 l-89 -32 q-13 52 -45 128.5 q-32 76.5 -69 141.5 ZM946 618 l-343 0 q109 -201 357 -257 q-36 -34 -61 -86 q-275 76 -390 336 q-42 -123 -137 -209 q-95 -86 -274 -135 q-13 37 -51 79 q157 40 242 108 q85 68 122 164 l-354 0 l0 87 l379 0 q10 46 20 140 l97 0 q-9 -83 -20 -140 l413 0 l0 -87 Z" /><glyph glyph-name="cid18022" unicode="&#x600e;" d="M402 654 l-107 0 q-68 -132 -158 -217 q-33 33 -77 65 q69 58 124.5 148 q55.5 90 85.5 192 l95 -23 q-14 -42 -32 -85 l591 0 l0 -80 l-429 0 l0 -75 l376 0 l0 -74 l-376 0 l0 -78 l402 0 l0 -77 l-402 0 l0 -76 q89 -64 147 -116 l-63 -65 q-52 54 -170 143 l35 33 l-42 0 l0 385 ZM144 -43 l-87 40 q48 84 91 233 l81 -33 q-53 -172 -85 -240 ZM437 18 l203 0 q38 0 49 17.5 q11 17.5 16 84.5 q33 -23 84 -33 q-10 -92 -38 -122 q-28 -30 -104 -30 l-217 0 q-94 0 -126.5 24 q-32.5 24 -32.5 92 l0 170 l92 0 l0 -169 q0 -22 13.5 -28 q13.5 -6 60.5 -6 ZM747 218 l88 24 q89 -168 123 -251 l-95 -31 q-34 96 -116 258 Z" /><glyph glyph-name="cid18061" unicode="&#x6027;" d="M99 368 l-70 24 q37 102 50 258 l67 -10 q-10 -157 -47 -272 ZM708 43 l242 0 l0 -88 l-613 0 l0 88 l278 0 l0 227 l-203 0 l0 87 l203 0 l0 188 l-130 0 q-29 -86 -64 -148 q-36 25 -83 43 q22 34 37 69 l-56 -27 q-13 57 -60 157 l0 -717 l-93 0 l0 917 l93 0 l0 -185 l59 24 q48 -90 65 -150 q45 113 66 266 l91 -15 q-9 -63 -30 -146 l105 0 l0 202 l93 0 l0 -202 l216 0 l0 -88 l-216 0 l0 -188 l194 0 l0 -87 l-194 0 l0 -227 Z" /><glyph glyph-name="cid18262" unicode="&#x60a3;" d="M216 349 l237 0 l0 84 l-237 0 l0 -84 ZM783 433 l-231 0 l0 -84 l231 0 l0 84 ZM251 622 l202 0 l0 76 l-202 0 l0 -76 ZM750 698 l-198 0 l0 -76 l198 0 l0 76 ZM453 239 l0 40 l-333 0 l0 223 l333 0 l0 51 l-295 0 l0 214 l295 0 l0 72 l99 0 l0 -72 l297 0 l0 -214 l-297 0 l0 -51 l334 0 l0 -223 l-334 0 l0 -60 l-57 0 q92 -43 143 -88 l-59 -62 q-27 28 -80 60.5 q-53 32.5 -106 56.5 l55 55 l5 -2 ZM130 -42 l-82 49 q75 65 120 183 l83 -35 q-56 -135 -121 -197 ZM437 17 l172 0 q33 0 43 18 q10 18 14 85 q34 -22 84 -32 q-9 -92 -35.5 -121.5 q-26.5 -29.5 -96.5 -29.5 l-189 0 q-89 0 -119.5 22.5 q-30.5 22.5 -30.5 87.5 l0 133 l96 0 l0 -132 q0 -20 11 -25.5 q11 -5.5 51 -5.5 ZM721 165 l80 38 q105 -107 146 -195 l-87 -43 q-18 41 -57.5 97.5 q-39.5 56.5 -81.5 102.5 Z" /><glyph glyph-name="cid18324" unicode="&#x60c5;" d="M99 366 l-70 23 q31 99 43 257 l67 -9 q-6 -148 -40 -271 ZM351 557 l-63 -30 q-19 66 -51 140 l0 -745 l-85 0 l0 917 l85 0 l0 -164 l58 23 q45 -97 56 -141 ZM464 140 l331 0 l0 62 l-331 0 l0 -62 ZM795 333 l-331 0 l0 -62 l331 0 l0 62 ZM883 403 l0 -386 q0 -62 -39 -79 q-33 -14 -147 -14 q-7 40 -27 80 q31 -2 107 -2 q18 1 18 17 l0 54 l-331 0 l0 -151 l-86 0 l0 481 l505 0 ZM674 521 l283 0 l0 -69 l-649 0 l0 69 l274 0 l0 58 l-219 0 l0 65 l219 0 l0 52 l-243 0 l0 69 l243 0 l0 74 l92 0 l0 -74 l253 0 l0 -69 l-253 0 l0 -52 l227 0 l0 -65 l-227 0 l0 -58 Z" /><glyph glyph-name="cid18371" unicode="&#x60e0;" d="M761 596 l-220 0 l0 -56 l220 0 l0 56 ZM761 427 l0 57 l-220 0 l0 -57 l220 0 ZM541 300 l161 2 q-36 20 -67 33 l46 34 l-140 0 l0 -69 ZM227 427 l218 0 l0 57 l-218 0 l0 -57 ZM227 596 l0 -56 l218 0 l0 56 l-218 0 ZM445 654 l0 56 l-369 0 l0 74 l369 0 l0 54 l96 0 l0 -54 l381 0 l0 -74 l-381 0 l0 -56 l312 0 l0 -285 l-129 0 q133 -66 205 -136 l-63 -51 q-5 6 -57 50 q-99 -3 -336 -7 q104 -55 155 -109 l-63 -55 q-54 60 -158 118 l55 46 q-117 -2 -381 -5 l-4 79 q93 -1 368 1 l0 69 l-306 0 l0 285 l306 0 ZM129 -50 l-80 45 q57 67 93 182 l80 -33 q-44 -131 -93 -194 ZM425 12 l197 0 q36 0 46.5 16.5 q10.5 16.5 14.5 77.5 q29 -20 81 -31 q-9 -84 -36 -112 q-27 -28 -98 -28 l-212 0 q-93 0 -124.5 22 q-31.5 22 -31.5 85 l0 129 l92 0 l0 -128 q0 -20 13 -25.5 q13 -5.5 58 -5.5 ZM746 147 l80 27 q36 -45 68 -98 q32 -53 44 -92 l-85 -30 q-25 82 -107 193 Z" /><glyph glyph-name="cid18397" unicode="&#x60f3;" d="M816 636 l0 76 l-221 0 l0 -76 l221 0 ZM816 487 l0 78 l-221 0 l0 -78 l221 0 ZM816 338 l0 79 l-221 0 l0 -79 l221 0 ZM905 787 l0 -523 l-395 0 l0 523 l395 0 ZM412 230 l64 50 q97 -90 137 -137 l-68 -57 q-34 45 -133 144 ZM129 -26 l-84 42 q55 75 91 205 l82 -33 q-41 -141 -89 -214 ZM319 253 l-88 -1 l0 234 q-63 -117 -136 -179 q-22 33 -61 66 q52 37 101 102.5 q49 65.5 81 138.5 l-158 0 l0 79 l173 0 l0 143 l88 0 l0 -143 l150 0 l0 -79 l-150 0 l0 -48 q41 -25 163 -114 l-50 -76 q-40 42 -113 104 l0 -227 ZM435 25 l180 0 q35 0 45 19.5 q10 19.5 15 94.5 q28 -21 84 -34 q-10 -99 -37 -131 q-27 -32 -100 -32 l-195 0 q-90 0 -120.5 23.5 q-30.5 23.5 -30.5 89.5 l0 149 l92 0 l0 -148 q0 -20 12 -25.5 q12 -5.5 55 -5.5 ZM754 198 l81 38 q92 -139 122 -198 l-86 -44 q-30 64 -117 204 Z" /><glyph glyph-name="cid18477" unicode="&#x611f;" d="M133 -44 l-86 35 q55 73 99 180 l81 -30 q-65 -141 -94 -185 ZM553 610 l0 -65 l-309 0 l0 65 l309 0 ZM465 338 l0 91 l-139 0 l0 -91 l139 0 ZM538 281 l0 -8 l-286 0 l0 221 l286 0 l0 -204 q62 35 114 86 q-49 115 -68 290 l-373 0 l0 -74 q0 -264 -100 -397 q-10 13 -32 31.5 q-22 18.5 -36 24.5 q83 117 83 342 l0 148 l451 0 q-2 31 -4 97 l87 0 q0 -50 3 -97 l127 0 q-38 31 -88 60 l54 40 q77 -38 115 -75 l-31 -25 l105 0 l0 -75 l-276 0 q15 -126 48 -217 q65 84 98 179 l84 -21 q-51 -135 -143 -242 q43 -68 93 -68 q17 0 25 28 q8 28 12 95 q31 -28 73 -39 q-10 -98 -34.5 -133 q-24.5 -35 -79.5 -35 q-89 0 -150 87 q-52 -46 -99 -76 q-30 35 -58 57 ZM415 203 l73 35 q99 -97 131 -143 l-78 -41 q-36 59 -126 149 ZM426 5 l196 0 q39 0 50 20 q11 20 16 96 q30 -20 86 -31 q-9 -96 -37.5 -127 q-28.5 -31 -108.5 -31 l-209 0 q-94 0 -126 21 q-32 21 -32 82 l0 157 l93 0 l0 -155 q0 -20 13 -26 q13 -6 59 -6 ZM753 164 l83 26 q76 -110 109 -187 l-89 -31 q-29 82 -103 192 Z" /><glyph glyph-name="cid18785" unicode="&#x61c2;" d="M483 654 l0 50 l-138 0 l0 66 l138 0 l0 69 l80 0 l0 -69 l172 0 l0 69 l81 0 l0 -69 l139 0 l0 -66 l-139 0 l0 -47 l-81 0 l0 47 l-172 0 l0 -50 l-80 0 ZM102 364 l-72 25 q36 94 48 257 l69 -10 q-6 -154 -45 -272 ZM170 -79 l0 918 l88 0 l0 -918 l-88 0 ZM479 226 l128 0 l0 52 l-128 0 l0 -52 ZM479 379 l0 -51 l128 0 l0 51 l-128 0 ZM823 379 l-131 0 l0 -51 l131 0 l0 51 ZM823 226 l0 52 l-131 0 l0 -52 l131 0 ZM692 14 l272 0 l0 -68 l-634 0 l0 68 l277 0 l0 50 l-226 0 l0 66 l226 0 l0 44 l-211 0 l0 257 l211 0 l0 41 l-266 0 l0 64 l-36 -15 q-11 60 -44 144 l61 23 q31 -71 49 -139 l-26 -11 l262 0 l0 39 q-115 -5 -203 -5 q-3 28 -18 59 q311 5 499 32 l41 -60 q-93 -11 -234 -21 l0 -44 l271 0 l0 -66 l-271 0 l0 -41 l218 0 l0 -257 l-218 0 l0 -44 l233 0 l0 -66 l-233 0 l0 -50 Z" /><glyph glyph-name="cid19035" unicode="&#x624b;" d="M951 328 l0 -91 l-401 0 l0 -196 q0 -45 -13.5 -67.5 q-13.5 -22.5 -45.5 -33.5 q-48 -18 -212 -16 q-11 45 -39 92 q55 -2 113 -2.5 q58 -0.5 70 0.5 q17 0 23.5 6 q6.5 6 6.5 22 l0 195 l-402 0 l0 91 l402 0 l0 142 l-334 0 l0 89 l334 0 l0 136 q-167 -14 -317 -20 q-2 36 -22 81 q465 22 674 82 l69 -76 q-111 -32 -307 -56 l0 -147 l344 0 l0 -89 l-344 0 l0 -142 l401 0 Z" /><glyph glyph-name="cid19038" unicode="&#x624d;" d="M935 640 l0 -95 l-247 0 l0 -491 q0 -46 -12.5 -69.5 q-12.5 -23.5 -41.5 -34.5 q-44 -18 -200 -18 q-7 46 -32 98 q44 -2 156 -2 q15 1 21.5 6.5 q6.5 5.5 6.5 19.5 l0 462 q-86 -143 -214.5 -274 q-128.5 -131 -260.5 -208 q-30 49 -73 84 q127 64 248.5 180 q121.5 116 204.5 247 l-421 0 l0 95 l516 0 l0 199 l102 0 l0 -199 l247 0 Z" /><glyph glyph-name="cid19118" unicode="&#x6280;" d="M367 408 l11 -84 l-114 -33 l0 -263 q0 -68 -39 -87 q-36 -18 -142 -16 q-8 47 -28 84 q77 -2 98 0 q20 0 20 19 l0 237 q-69 -19 -110 -30 l-24 89 q51 12 134 32 l0 201 l-123 0 l0 86 l123 0 l0 196 l91 0 l0 -195 l105 0 l0 -87 l-105 0 l0 -176 l103 27 ZM799 382 l-280 0 q49 -120 134 -206 q96 88 146 206 ZM857 470 l60 -24 q-58 -200 -195 -331 q105 -79 246 -116 q-32 -28 -60 -79 q-148 43 -259 135 q-117 -88 -273 -133 q-21 49 -50 84 q141 35 257 113 q-98 108 -155 259 l13 4 l-40 0 l0 85 l206 0 l0 137 l-224 0 l0 85 l224 0 l0 150 l92 0 l0 -150 l231 0 l0 -85 l-231 0 l0 -137 l142 0 l16 3 Z" /><glyph glyph-name="cid19134" unicode="&#x628a;" d="M362 409 l12 -86 q-86 -26 -118 -34 l0 -266 q0 -65 -35 -84 q-37 -19 -127 -17 q-6 43 -25 85 q57 -3 80 -1 q16 0 16 17 l0 239 l-105 -29 l-24 90 q60 13 129 32 l0 203 l-114 0 l0 86 l114 0 l0 195 l91 0 l0 -195 l98 0 l0 -86 l-98 0 l0 -178 l106 29 ZM616 699 l-117 0 l0 -295 l117 0 l0 295 ZM819 404 l0 295 l-116 0 l0 -295 l116 0 ZM577 34 l224 0 q43 0 57 27 q14 27 21 115 q36 -24 90 -36 q-12 -112 -44 -153.5 q-32 -41.5 -117 -41.5 l-239 0 q-96 0 -130.5 32 q-34.5 32 -34.5 127 l0 686 l513 0 l0 -538 l-98 0 l0 64 l-320 0 l0 -212 q0 -44 14 -57 q14 -13 64 -13 Z" /><glyph glyph-name="cid19154" unicode="&#x6297;" d="M712 701 l-90 -30 q-20 67 -63 152 l88 25 q51 -99 65 -147 ZM961 670 l0 -88 l-564 0 l0 88 l564 0 ZM380 411 l11 -85 q-23 -6 -63.5 -17.5 q-40.5 -11.5 -57.5 -16.5 l0 -262 q0 -68 -39 -86 q-36 -18 -143 -18 q-5 44 -27 85 q44 -1 98 -1 q20 1 20 20 l0 235 l-125 -34 l-21 91 q33 7 146 36 l0 199 l-128 0 l0 86 l128 0 l0 196 l91 0 l0 -195 l110 0 l0 -87 l-110 0 l0 -176 l110 30 ZM844 10 l23 0 q14 0 19 5 q6 6 9 33 q3 30 3 122 q30 -25 70 -37 q-2 -109 -10 -141 q-8 -35 -30 -49 q-20 -15 -58 -15 l-53 0 q-40 0 -63 22 q-13 13 -18 34.5 q-5 21.5 -5 72.5 l0 347 l-163 0 l0 -95 q0 -275 -190 -396 q-9 15 -29 38.5 q-20 23.5 -33 33.5 q51 32 84.5 72.5 q33.5 40.5 49 86 q15.5 45.5 21 83.5 q5.5 38 5.5 84 l0 180 l347 0 l0 -434 q0 -37 5 -42 q5 -5 16 -5 Z" /><glyph glyph-name="cid19169" unicode="&#x62a4;" d="M376 415 l12 -85 q-76 -24 -114 -35 l0 -262 q0 -70 -37 -89 q-34 -19 -136 -19 q-8 47 -28 91 q41 -1 92 -1 q18 0 18 18 l0 235 l-123 -36 l-22 91 q18 4 40.5 10 q22.5 6 54 14 q31.5 8 50.5 13 l0 196 l-129 0 l0 89 l129 0 l0 193 l91 0 l0 -193 l106 0 l0 -89 l-106 0 l0 -170 l102 29 ZM534 414 l298 0 l0 171 l-298 0 l0 -171 ZM692 668 l232 0 l0 -401 l-92 0 l0 59 l-300 0 q-16 -273 -137 -409 q-11 15 -34.5 36.5 q-23.5 21.5 -39.5 31.5 q72 80 96 187.5 q24 107.5 24 236.5 l0 259 l229 0 q-27 65 -82 135 l83 33 q64 -77 90 -139 l-69 -29 Z" /><glyph glyph-name="cid19171" unicode="&#x62a5;" d="M379 413 l12 -90 l-114 -32 l0 -261 q0 -73 -44 -92 q-36 -17 -161 -17 q-9 53 -29 89 q85 -3 117 -1 q13 0 17.5 4.5 q4.5 4.5 4.5 17.5 l0 232 q-43 -12 -125 -34 l-22 95 q4 1 59 14.5 q55 13.5 88 21.5 l0 194 l-133 0 l0 90 l133 0 l0 194 l95 0 l0 -194 l105 0 l0 -90 l-105 0 l0 -168 q11 3 32 8.5 q21 5.5 38 10 q17 4.5 32 8.5 ZM511 379 l0 -389 q88 43 163 120 q-88 113 -143 269 l-20 0 ZM821 379 l-201 0 q40 -106 111 -195 q59 85 90 195 ZM870 466 l59 -19 q-35 -192 -135 -332 q78 -75 170 -113 q-36 -29 -65 -80 q-92 46 -166 120 q-76 -77 -165 -124 q-18 29 -57 66 l0 -61 l-92 0 l0 881 l483 0 q-1 -24 -2 -36 q-4 -106 -12 -155.5 q-8 -49.5 -25 -67.5 q-27 -27 -80 -30 q-50 -3 -158 2 q-2 40 -25 77 q74 -6 143 -6 q30 0 40 9 q15 15 21 121 l-293 0 l0 -255 l342 0 l17 3 Z" /><glyph glyph-name="cid19274" unicode="&#x62e9;" d="M781 708 l-231 0 q47 -66 111 -116 q70 51 120 116 ZM855 794 l56 -29 q-58 -123 -180 -221 q109 -64 243 -93 q-37 -37 -57 -77 q-143 37 -258 118 q-120 -76 -259 -117 q-21 46 -48 73 q130 33 239 98 q-80 72 -130 162 l-62 0 l0 83 l441 0 l15 3 ZM371 334 l-110 -34 l0 -273 q0 -67 -36 -86 q-32 -18 -133 -18 q-6 42 -26 87 q19 -1 88 -1 q17 1 17 18 l0 244 q-22 -6 -60 -17.5 q-38 -11.5 -52 -15.5 l-22 90 q90 24 134 36 l0 195 l-123 0 l0 86 l123 0 l0 192 l90 0 l0 -192 l112 0 l0 -86 l-112 0 l0 -169 l98 29 l12 -85 ZM703 248 l0 -89 l251 0 l0 -83 l-251 0 l0 -157 l-93 0 l0 157 l-244 0 l0 83 l244 0 l0 89 l-194 0 l0 82 l194 0 l0 83 l93 0 l0 -83 l184 0 l0 -82 l-184 0 Z" /><glyph glyph-name="cid19319" unicode="&#x6307;" d="M383 416 l12 -86 l-125 -36 l0 -269 q0 -68 -39 -87 q-38 -18 -140 -16 q-5 36 -27 85 q68 -3 95 -1 q11 0 15 4 q4 4 4 15 l0 242 q-40 -12 -121 -34 l-24 90 q1 0 56.5 13.5 q55.5 13.5 88.5 22.5 l0 199 l-131 0 l0 86 l131 0 l0 194 l92 0 l0 -194 l109 0 l0 -86 l-109 0 l0 -173 q89 24 113 31 ZM819 286 l-294 0 l0 -84 l294 0 l0 84 ZM525 42 l294 0 l0 87 l-294 0 l0 -87 ZM437 -78 l0 441 l474 0 l0 -436 l-92 0 l0 40 l-294 0 l0 -45 l-88 0 ZM603 519 l202 0 q39 0 50.5 21.5 q11.5 21.5 16.5 98.5 q28 -20 84 -34 q-9 -102 -38 -136 q-29 -34 -107 -34 l-215 0 q-94 0 -126 25.5 q-32 25.5 -32 99.5 l0 276 l92 0 l0 -141 q191 42 297 91 l69 -68 q-136 -56 -366 -98 l0 -60 q0 -26 13.5 -33.5 q13.5 -7.5 59.5 -7.5 Z" /><glyph glyph-name="cid19325" unicode="&#x6309;" d="M472 635 l0 -119 l-87 0 l0 201 l232 0 q-11 52 -31 112 l93 15 q24 -63 39 -127 l226 0 l0 -200 l-90 0 l0 118 l-382 0 ZM760 368 l-166 0 q-37 -84 -60 -131 q93 -47 139 -73 q62 75 87 204 ZM958 368 l-98 0 q-31 -153 -105 -249 q136 -79 200 -128 l-67 -72 q-73 59 -198 134 q-102 -88 -289 -134 q-12 43 -44 81 q163 34 251 101 q-80 46 -196 105 q40 69 81 162 l-124 0 l10 -68 q-66 -22 -118 -38 l0 -239 q0 -66 -38 -85 q-36 -18 -139 -16 q-5 36 -27 84 q69 -3 96 -1 q19 0 19 19 l0 211 l-120 -36 l-20 90 q74 19 140 38 l0 231 l-127 0 l0 86 l127 0 l0 194 l89 0 l0 -194 l101 0 l0 -86 l-101 0 l0 -206 l93 27 l0 73 l173 0 q31 78 49 148 l95 -14 q-14 -54 -44 -134 l331 0 l0 -84 Z" /><glyph glyph-name="cid19480" unicode="&#x636e;" d="M355 327 l-109 -34 l0 -260 q0 -66 -36 -85 q-32 -18 -130 -18 q-4 44 -25 86 q40 -1 88 -1 q18 0 18 18 l0 233 l-108 -33 l-21 90 q24 6 129 36 l0 199 l-116 0 l0 86 l116 0 l0 193 l85 0 l0 -193 l107 0 l0 -86 l-107 0 l0 -175 l96 28 l13 -84 ZM480 427 l174 0 l0 100 l-173 0 l0 -30 q0 -45 -1 -70 ZM834 716 l-353 0 l0 -108 l353 0 l0 108 ZM842 31 l0 129 l-277 0 l0 -129 l277 0 ZM953 349 l-212 0 l0 -111 l185 0 l0 -314 l-84 0 l0 32 l-277 0 l0 -35 l-81 0 l0 317 l170 0 l0 111 l-178 0 q-21 -283 -119 -428 q-45 40 -77 53 q36 53 60 120 q24 67 34 141.5 q10 74.5 13.5 132 q3.5 57.5 3.5 129.5 l0 300 l531 0 l0 -270 l-181 0 l0 -100 l212 0 l0 -78 Z" /><glyph glyph-name="cid19527" unicode="&#x6388;" d="M862 834 l57 -69 q-185 -47 -534 -65 q-5 38 -21 71 q338 20 498 63 ZM704 569 l-78 -20 q-6 54 -38 137 l74 17 q32 -74 42 -134 ZM527 561 l-74 -27 q-16 63 -56 131 l70 23 q46 -74 60 -127 ZM438 456 l0 -84 l-83 0 l0 161 l390 0 q60 95 91 183 l87 -27 q-61 -110 -91 -156 l114 0 l0 -161 l-86 0 l0 84 l-422 0 ZM349 332 l-105 -33 l0 -275 q0 -66 -36 -85 q-32 -18 -130 -18 q-6 47 -26 86 q70 -2 89 0 q9 0 13 3.5 q4 3.5 4 13.5 l0 247 q-21 -7 -57.5 -17.5 q-36.5 -10.5 -48.5 -14.5 l-21 89 q14 4 57 15.5 q43 11.5 70 19.5 l0 195 l-117 0 l0 86 l117 0 l0 193 l86 0 l0 -193 l98 0 l0 -86 l-98 0 l0 -169 q54 14 93 27 l12 -84 ZM771 276 l-251 0 q43 -85 121 -146 q85 60 130 146 ZM832 356 l55 -23 q-51 -153 -173 -252 q104 -57 244 -80 q-36 -38 -55 -81 q-161 34 -266 106 q-112 -67 -280 -103 q-12 46 -41 82 q139 22 249 78 q-80 74 -128 178 l50 15 l-81 0 l0 76 l411 0 l15 4 Z" /><glyph glyph-name="cid19533" unicode="&#x638c;" d="M166 634 l0 -129 l-87 0 l0 206 l157 0 q-24 46 -63 94 l81 32 q47 -51 75 -104 l-48 -22 l170 0 l0 127 l93 0 l0 -127 l170 0 l-49 19 q41 42 82 106 l95 -30 q-50 -58 -90 -95 l173 0 l0 -206 l-91 0 l0 129 l-668 0 ZM311 524 l0 -67 l376 0 l0 67 l-376 0 ZM779 398 l-554 0 l0 185 l554 0 l0 -185 ZM938 122 l0 -65 l-394 0 l0 -50 q0 -34 -11 -51 q-11 -17 -38 -25 q-40 -12 -180 -12 q-7 28 -31 73 q90 -4 144 -1 q24 0 24 19 l0 47 l-389 0 l0 65 l389 0 l0 55 l-332 0 l0 65 l332 0 l0 50 q-115 -6 -284 -6 q-1 23 -17 61 q415 2 623 37 l58 -56 q-126 -21 -288 -31 l0 -55 l343 0 l0 -65 l-343 0 l0 -55 l394 0 Z" /><glyph glyph-name="cid19543" unicode="&#x6392;" d="M364 407 l11 -85 l-111 -32 l0 -260 q0 -65 -36 -83 q-33 -17 -131 -17 q-6 42 -27 83 q38 -1 87 -1 q18 1 18 18 l0 235 l-117 -32 l-15 91 q11 3 57.5 14 q46.5 11 74.5 18 l0 201 l-121 0 l0 86 l121 0 l0 195 l89 0 l0 -195 l99 0 l0 -86 l-99 0 l0 -176 l100 26 ZM537 675 l0 155 l89 0 l0 -908 l-89 0 l0 253 l-159 0 l0 84 l159 0 l0 126 l-136 0 l0 82 l136 0 l0 125 l-139 0 l0 83 l139 0 ZM960 256 l0 -84 l-162 0 l0 -252 l-89 0 l0 910 l89 0 l0 -155 l150 0 l0 -83 l-150 0 l0 -125 l142 0 l0 -82 l-142 0 l0 -129 l162 0 Z" /><glyph glyph-name="cid19584" unicode="&#x63a8;" d="M521 189 l0 -118 l150 0 l0 118 l-150 0 ZM671 467 l0 112 l-150 0 l0 -112 l150 0 ZM671 271 l0 114 l-150 0 l0 -114 l150 0 ZM954 71 l0 -85 l-433 0 l0 -66 l-89 0 l0 560 q-35 -54 -73 -96 l-11 12 l11 -70 l-107 -33 l0 -263 q0 -68 -36 -88 q-33 -19 -132 -19 q-6 49 -27 91 q63 -3 88 -1 q18 0 18 18 l0 234 q-57 -18 -108 -33 l-21 90 q20 5 64.5 17.5 q44.5 12.5 64.5 17.5 l0 204 l-120 0 l0 86 l120 0 l0 190 l89 0 l0 -190 l107 0 l0 -86 l-107 0 l0 -178 l84 25 q-32 34 -45 43 q135 140 210 382 l89 -23 q-31 -89 -57 -146 l170 0 q-19 60 -63 135 l80 32 q51 -78 71 -142 l-58 -25 l201 0 l0 -85 l-177 0 l0 -112 l163 0 l0 -82 l-163 0 l0 -114 l162 0 l0 -82 l-162 0 l0 -118 l197 0 Z" /><glyph glyph-name="cid19647" unicode="&#x63d0;" d="M799 673 l0 66 l-304 0 l0 -66 l304 0 ZM799 544 l0 66 l-304 0 l0 -66 l304 0 ZM888 807 l0 -332 l-478 0 l0 332 l478 0 ZM352 326 l-109 -34 l0 -259 q0 -66 -35 -85 q-32 -18 -130 -18 q-4 44 -25 86 q40 -1 88 -1 q17 0 17 18 l0 232 l-105 -32 l-21 90 q44 11 126 34 l0 201 l-116 0 l0 86 l116 0 l0 193 l85 0 l0 -193 l106 0 l0 -86 l-106 0 l0 -176 l96 28 l13 -84 ZM690 160 l0 -139 q34 -5 83 -5 q159 0 196 1 q-20 -36 -26 -82 l-172 0 q-116 0 -189.5 32.5 q-73.5 32.5 -118.5 124.5 q-41 -106 -113 -171 q-32 34 -70 56 q120 95 146 322 l84 -10 q-8 -60 -19 -105 q37 -102 112 -138 l0 292 l-240 0 l0 76 l577 0 l0 -76 l-250 0 l0 -104 l200 0 l0 -74 l-200 0 Z" /><glyph glyph-name="cid19683" unicode="&#x63e1;" d="M329 407 l12 -83 q-61 -21 -108 -34 l0 -258 q0 -66 -35 -85 q-34 -19 -128 -19 q-6 46 -26 88 q39 -1 86 -1 q17 0 17 18 l0 230 l-95 -29 l-22 88 q59 14 117 31 l0 205 l-102 0 l0 86 l102 0 l0 193 l86 0 l0 -193 l102 0 l0 -86 l-102 0 l0 -180 l96 29 ZM826 727 l-369 0 l0 -80 l369 0 l0 80 ZM733 15 l227 0 l0 -74 l-557 0 l0 74 l240 0 l0 95 l-181 0 l0 72 l181 0 l0 77 q-128 -9 -150 -18 q-15 48 -29 76 q20 4 48 33 q28 26 74 93 l-130 0 q-9 -351 -120 -524 q-12 11 -37 26 q-25 15 -41 20 q66 104 87 240.5 q21 136.5 21 297.5 l0 297 l554 0 l0 -227 l-463 0 l0 -58 l469 0 l0 -72 l-237 0 q-40 -58 -95 -114 l206 12 q-21 28 -53 63 l67 28 q37 -36 70.5 -81 q33.5 -45 49.5 -79 l-73 -32 q-5 13 -17 35 l-111 -9 l0 -84 l186 0 l0 -72 l-186 0 l0 -95 Z" /><glyph glyph-name="cid19921" unicode="&#x6469;" d="M791 389 l-70 0 l0 105 q-56 -68 -117 -99 q-19 28 -47 51 q82 35 142 110 l-106 0 l0 61 l128 0 l0 56 l70 0 l0 -56 l147 0 l0 -61 l-123 0 q64 -74 146 -110 q-26 -20 -49 -53 q-62 35 -121 103 l0 -107 ZM437 380 l-69 0 l0 109 q-58 -68 -115 -98 q-15 23 -46 52 q80 34 143 113 l-121 0 l0 61 l139 0 l0 56 l69 0 l0 -56 l128 0 l0 -61 l-128 0 l0 -4 q102 -58 124 -74 l-46 -49 q-14 15 -78 64 l0 -113 ZM948 689 l-758 0 l0 -238 q0 -359 -87 -534 q-10 13 -33 31 q-23 18 -39 26 q72 147 72 477 l0 311 l393 0 q-10 30 -27 65 l93 20 q19 -37 37 -85 l349 0 l0 -73 ZM625 185 l0 -57 l327 0 l0 -62 l-327 0 l0 -59 q0 -35 -10.5 -52 q-10.5 -17 -37.5 -25 q-37 -11 -178 -11 q-8 35 -29 72 q59 -2 141 -2 q23 1 23 19 l0 58 l-329 0 l0 62 l329 0 l0 57 l-278 0 l0 62 l278 0 l0 51 q-123 -7 -246 -9 q-3 25 -18 57 q355 6 538 42 l57 -52 q-79 -17 -240 -31 l0 -58 l282 0 l0 -62 l-282 0 Z" /><glyph glyph-name="cid20092" unicode="&#x64cd;" d="M747 645 l0 87 l-208 0 l0 -87 l208 0 ZM831 800 l0 -222 l-373 0 l0 222 l373 0 ZM335 333 l-95 -36 l0 -271 q0 -63 -33 -80 q-29 -18 -112 -18 q-5 40 -24 83 l67 0 q15 0 15 15 l0 239 q-72 -26 -94 -33 l-23 89 q51 15 117 36 l0 201 l-105 0 l0 87 l105 0 l0 194 l87 0 l0 -194 l88 0 l0 -87 l-88 0 l0 -170 l81 27 l14 -82 ZM544 376 l0 96 l-109 0 l0 -96 l109 0 ZM740 472 l0 -96 l114 0 l0 96 l-114 0 ZM950 165 l-216 0 q44 -46 106.5 -85 q62.5 -39 125.5 -60 q-33 -30 -59 -72 q-125 54 -220 164 l0 -192 l-88 0 l0 186 q-111 -113 -261 -165 q-29 44 -59 72 q167 48 271 152 l-203 0 l0 76 l252 0 l0 68 l-235 0 l0 229 l255 0 l0 -227 l48 0 l0 227 l263 0 l0 -229 l-243 0 l0 -68 l263 0 l0 -76 Z" /><glyph glyph-name="cid20304" unicode="&#x6536;" d="M320 276 l0 547 l92 0 l0 -903 l-92 0 l0 266 q-187 -66 -223 -93 q-12 46 -36 85 q35 23 35 68 l0 483 l91 0 l0 -495 l133 42 ZM604 562 l-8 -21 q41 -159 109 -279 q62 120 91 300 l-192 0 ZM956 562 l-67 0 q-42 -238 -129 -385 q89 -118 205 -177 q-35 -26 -64 -75 q-111 63 -194 173 q-85 -110 -214 -180 q-18 36 -61 77 q138 66 223 184 q-60 102 -109 253 q-27 -54 -66 -101 q-32 47 -66 79 q115 134 162 429 l95 -16 q-15 -90 -39 -173 l324 0 l0 -88 Z" /><glyph glyph-name="cid20330" unicode="&#x6548;" d="M518 697 l0 -83 l-460 0 l0 83 l206 0 q-17 49 -62 114 l78 29 q50 -64 71 -118 l-60 -25 l227 0 ZM165 598 l81 -24 q-67 -151 -148 -251 q-31 35 -64 58 q82 93 131 217 ZM477 79 l-75 -58 q-34 63 -95 139 q-80 -131 -205 -217 q-31 44 -64 67 q130 78 212 221 q-68 77 -113 122 l68 50 q26 -26 86 -88 q26 63 41 125 l88 -16 q-27 -99 -66 -179 q89 -103 123 -166 ZM809 575 l-143 0 q-12 -34 -22 -66 q27 -127 81 -242 q60 127 84 308 ZM951 575 l-52 0 q-37 -248 -123 -397 q80 -122 191 -182 q-36 -29 -65 -76 q-101 61 -180 178 q-85 -112 -222 -182 q-8 13 -28 35.5 q-20 22.5 -35 34.5 q151 67 237 193 q-50 98 -83 212 q-26 -46 -49 -78 q-26 40 -60 73 q13 16 21 31 l-61 -35 q-29 79 -112 185 l68 36 q81 -93 114 -171 q87 148 126 407 l87 -13 q-13 -70 -34 -165 l260 0 l0 -86 Z" /><glyph glyph-name="cid20341" unicode="&#x654f;" d="M314 152 l74 0 q5 64 8 137 l-209 0 q-2 -26 -13 -137 l119 0 q-28 57 -75 106 l56 30 q56 -58 80 -112 l-40 -24 ZM284 494 l-79 0 q-2 -22 -5.5 -65 q-3.5 -43 -5.5 -63 l105 0 q-23 56 -67 101 l52 27 ZM317 366 l83 0 q2 89 4 128 l-117 0 q52 -53 72 -106 l-42 -22 ZM548 76 l-83 0 q-10 -82 -28 -108 q-23 -32 -65 -38 q-38 -6 -107 -1 q-4 46 -22 79 q56 -6 89 -4 q21 -1 31 15 q10 15 17 57 l-301 0 q13 92 25 213 l-64 0 l0 77 l71 0 q7 75 12 153 q-10 -16 -23 -32 q-19 19 -73 53 q86 102 131 299 l87 -18 q-8 -34 -25 -89 l322 0 l0 -81 l-352 0 q-17 -41 -37 -81 l336 0 q-1 -29 -1 -40 q-3 -86 -6 -164 l72 0 l0 -77 l-75 0 q-3 -68 -8 -137 l77 0 l0 -76 ZM814 567 l-157 0 q29 -177 82 -299 q51 118 75 299 ZM953 567 l-51 0 q-34 -240 -114 -395 q70 -116 176 -178 q-37 -28 -63 -75 q-93 60 -166 169 q-72 -98 -181 -165 q-22 36 -61 69 q123 67 195 180 q-51 109 -87 263 q-19 -39 -42 -73 q-28 32 -68 62 q97 134 143 415 l86 -15 q-17 -87 -38 -173 l271 0 l0 -84 Z" /><glyph glyph-name="cid20357" unicode="&#x6559;" d="M801 569 l-147 0 q26 -155 76 -280 q50 120 71 280 ZM433 438 l35 -27 q30 39 52 85 l-133 0 q-30 -39 -53 -63 l82 0 l17 5 ZM290 577 l51 0 q24 31 55 84 l-106 0 l0 -84 ZM959 569 l-62 0 q-34 -237 -115 -385 q77 -126 186 -183 q-37 -32 -66 -80 q-106 63 -177 176 q-90 -111 -222 -179 q-19 41 -55 84 q143 65 227 186 q-50 111 -80 244 q-24 -47 -59 -95 q-27 30 -58 53 q-61 -70 -145 -131 l0 -38 q12 1 84.5 7.5 q72.5 6.5 110.5 10.5 l0 -80 l-195 -20 l0 -125 q0 -33 -8.5 -50.5 q-8.5 -17.5 -30.5 -26.5 q-30 -14 -138 -14 q-5 40 -28 79 q78 -2 101 0 q17 0 17 14 l0 114 l-197 -19 l-10 83 q14 1 87.5 7.5 q73.5 6.5 119.5 10.5 l0 67 l-1 1 q39 23 100 79 l-87 0 q-72 -64 -163 -118 q-22 33 -63 71 q54 29 93 56 l0 65 l84 0 q39 35 64 63 l-232 0 l0 81 l163 0 l0 84 l-123 0 l0 79 l123 0 l0 98 l86 0 l0 -98 l112 0 l0 -69 q44 79 67 143 l87 -24 q-47 -116 -110 -213 l76 0 l0 -78 q71 141 101 340 l94 -15 q-17 -97 -38 -168 l280 0 l0 -87 Z" /><glyph glyph-name="cid20392" unicode="&#x6570;" d="M435 823 l78 -33 q-62 -93 -89 -124 l-60 27 q41 62 71 130 ZM213 691 l-71 -31 q-13 59 -59 129 l68 28 q48 -70 62 -126 ZM250 402 l0 105 q-79 -85 -164 -131 q-19 40 -49 70 q104 42 184 138 l-169 0 l0 74 l198 0 l0 181 l85 0 l0 -181 l197 0 l0 -74 l-171 0 q85 -50 143 -89 l-50 -66 q-37 36 -119 97 l0 -124 l-85 0 ZM396 252 l-143 0 q-16 -29 -38 -68 q44 -19 99 -47 q52 52 82 115 ZM462 51 l-56 -62 q-37 29 -82 54 q-99 -77 -242 -115 q-18 44 -42 70 q122 29 209 87 q-62 34 -147 68 q15 21 61 99 l-92 0 l0 76 l130 0 q19 41 25 62 l83 -16 q-1 -3 -20 -46 l147 0 l15 4 l50 -20 q-36 -124 -117 -213 q60 -35 78 -48 ZM796 564 l-139 0 q26 -146 75 -268 q43 116 64 268 ZM947 564 l-65 0 q-33 -229 -103 -366 q76 -132 191 -196 q-29 -22 -61 -72 q-103 62 -180 184 q-86 -123 -229 -197 q-15 35 -49 76 q153 72 233 206 q-50 110 -80 240 q-25 -59 -61 -111 q-27 30 -69 58 q106 143 146 446 l85 -12 q-12 -84 -32 -169 l274 0 l0 -87 Z" /><glyph glyph-name="cid20398" unicode="&#x6574;" d="M160 614 l0 -63 l89 0 l0 63 l-89 0 ZM415 614 l-84 0 l0 -63 l84 0 l0 63 ZM331 458 l30 35 l-30 0 l0 -35 ZM795 657 l-147 0 q29 -67 81 -127 q45 57 66 127 ZM249 330 l0 102 q-74 -77 -154 -114 q-23 34 -53 59 q99 36 177 116 l-132 0 l0 179 l162 0 l0 43 l-188 0 l0 68 l188 0 l0 56 l82 0 l0 -56 l182 0 l0 -68 l-182 0 l0 -43 l161 0 l0 -76 q96 85 138 243 l83 -20 q-13 -48 -30 -87 l265 0 l0 -75 l-65 0 q-33 -109 -95 -183 q77 -61 173 -89 q-30 -30 -52 -72 q-99 34 -177 106 q-70 -62 -185 -104 q-25 42 -53 67 q113 35 183 93 q-44 55 -74 114 q-27 -35 -52 -60 q-28 38 -59 62 l0 -98 l-120 0 q78 -38 119 -76 l-39 -53 q-38 37 -121 82 l0 -116 l-82 0 ZM544 93 l0 -68 l407 0 l0 -78 l-901 0 l0 78 l157 0 l0 158 l88 0 l0 -158 l157 0 l0 203 l-338 0 l0 77 l774 0 l0 -77 l-344 0 l0 -64 l272 0 l0 -71 l-272 0 Z" /><glyph glyph-name="cid20452" unicode="&#x6591;" d="M549 686 l-88 -33 q-16 55 -57 150 l84 27 q52 -114 61 -144 ZM328 179 l13 -83 q-137 -40 -293 -83 l-19 88 q83 20 117 29 l0 248 l-92 0 l0 83 l92 0 l0 223 l-101 0 l0 84 l279 0 l0 -84 l-97 0 l0 -223 l81 0 l0 -83 l-81 0 l0 -226 q92 24 101 27 ZM617 95 l-77 -47 q-20 52 -45 110 q-66 -145 -160 -233 q-25 34 -62 63 q111 97 175 270 q-61 124 -123 238 l71 38 q27 -49 87 -161 q21 89 37 196 l-208 0 l0 82 l337 0 l0 -82 l-45 0 q-25 -170 -67 -301 q49 -97 80 -173 ZM825 42 l133 0 l0 -86 l-372 0 l0 86 l152 0 l0 301 l-104 0 l0 84 l104 0 l0 262 l-117 0 l0 85 l327 0 l0 -85 l-123 0 l0 -262 l100 0 l0 -84 l-100 0 l0 -301 Z" /><glyph glyph-name="cid20503" unicode="&#x65ad;" d="M462 770 l74 -20 q-50 -123 -75 -173 l-54 17 q34 87 55 176 ZM296 598 l-63 -20 q-5 85 -39 171 l59 20 q36 -88 43 -171 ZM319 125 l0 217 q-55 -111 -115 -167 q-10 34 -37 77 q86 80 143 215 l-124 0 l0 78 l133 0 l0 292 l78 0 l0 -292 l138 0 l0 -78 l-138 0 l0 -10 q21 -19 70.5 -74 q49.5 -55 64.5 -75 l-51 -63 q-18 32 -84 121 l0 -241 l-78 0 ZM507 99 l0 -81 l-424 0 l0 786 l81 0 l0 -705 l343 0 ZM959 508 l0 -86 l-96 0 l0 -501 l-88 0 l0 501 l-119 0 q0 -152 -19 -275 q-19 -123 -72 -232 q-31 32 -73 56 q46 99 61 209 q15 110 15 248 l0 307 q210 51 313 107 l77 -68 q-112 -55 -302 -97 l0 -169 l303 0 Z" /><glyph glyph-name="cid20509" unicode="&#x65b0;" d="M503 737 l0 -77 l-440 0 l0 77 l183 0 q-22 55 -36 85 l82 21 q31 -59 49 -106 l162 0 ZM129 234 l75 -20 q-39 -111 -102 -185 q-22 21 -62 45 q61 65 89 160 ZM505 266 l-177 0 l0 -237 q0 -59 -32 -74 q-31 -15 -113 -15 q-5 39 -25 78 q32 -1 73 -1 q8 0 10.5 2.5 q2.5 2.5 2.5 10.5 l0 236 l-191 0 l0 79 l191 0 l0 91 l-197 0 l0 78 l110 0 q-10 68 -36 125 l75 19 q31 -63 40 -129 l-56 -15 l138 0 q28 66 49 145 l86 -18 q-33 -85 -51 -127 l117 0 l0 -78 l-191 0 l0 -91 l177 0 l0 -79 ZM358 206 l62 33 q55 -78 83 -150 l-65 -39 q-27 72 -80 156 ZM957 507 l0 -86 l-101 0 l0 -496 l-91 0 l0 496 l-128 0 l0 -21 q0 -324 -102 -468 q-26 31 -71 55 q53 78 69.5 181.5 q16.5 103.5 16.5 231.5 l0 343 q198 34 306 81 l74 -68 q-107 -41 -293 -74 l0 -175 l320 0 Z" /><glyph glyph-name="cid20528" unicode="&#x65b9;" d="M937 582 l-506 0 q-6 -96 -12 -142 l425 0 q-1 -29 -4 -42 q-14 -209 -31 -303 q-17 -94 -47 -124 q-33 -33 -95 -39 q-57 -5 -169 2 q-2 48 -33 91 q83 -7 167 -7 q32 0 48 12 q39 32 62 320 l-337 0 q-27 -144 -94 -253.5 q-67 -109.5 -196 -179.5 q-24 42 -68 76 q52 26 93 61.5 q41 35.5 69.5 71.5 q28.5 36 49 83.5 q20.5 47.5 32.5 87.5 q12 40 20 94.5 q8 54.5 11 94.5 q3 40 6 96 l-262 0 l0 91 l428 0 q-18 57 -63 140 l91 34 q51 -89 71 -145 l-67 -29 l411 0 l0 -91 Z" /><glyph glyph-name="cid20534" unicode="&#x65bd;" d="M233 471 l184 0 q0 -26 -1 -38 q-5 -251 -12 -347 q-7 -96 -25 -121 q-22 -29 -61 -36 q-37 -6 -104 -1 q-4 46 -24 82 q48 -4 84 -4 q20 0 29 14 q12 16 18 96 q6 80 10 271 l-102 0 q-23 -323 -127 -466 q-26 37 -68 64 q67 92 89 239 q22 147 26 372 l-103 0 l0 86 l188 0 q-15 66 -49 135 l83 22 q37 -76 54 -137 l-63 -20 l183 0 l0 -86 l-205 0 q-2 -84 -4 -125 ZM653 3 l178 0 q32 0 41.5 20 q9.5 20 13.5 90 q33 -22 77 -32 q-8 -93 -33.5 -125 q-25.5 -32 -92.5 -32 l-191 0 q-81 0 -109 25.5 q-28 25.5 -28 100.5 l0 221 l-49 -24 l-33 76 l82 39 l0 143 q-10 -14 -30 -38 q-34 39 -71 65 q104 106 148 307 l90 -18 q-17 -67 -34 -116 l337 0 l0 -84 l-373 0 q-24 -52 -60 -107 l75 0 l0 -113 l81 37 l0 151 l78 0 l0 -114 l90 42 l7 5 l15 11 l58 -22 l-4 -13 q0 -249 -5 -284 q-3 -47 -43 -61 q-28 -10 -78 -8 q-4 42 -18 70 q16 -1 43 -1 q15 0 19 18 q3 16 3 193 l-87 -41 l0 -289 l-78 0 l0 252 l-81 -38 l0 -259 q0 -30 11 -38.5 q11 -8.5 51 -8.5 Z" /><glyph glyph-name="cid20587" unicode="&#x65d7;" d="M944 664 l-438 0 q-43 -83 -98 -138 q-28 32 -64 57 l14 14 l-139 0 q-2 -84 -4 -125 l166 0 l0 -38 q-6 -251 -13.5 -345.5 q-7.5 -94.5 -24.5 -118.5 q-19 -28 -57 -35 q-34 -5 -87 -2 q-2 47 -22 82 q29 -3 68 -3 q17 -1 27 14 q19 29 27 362 l-88 0 q-19 -323 -112 -468 q-27 38 -64 61 q60 93 79.5 241.5 q19.5 148.5 23.5 374.5 l-95 0 l0 83 l167 0 q-17 54 -63 136 l78 24 q42 -65 69 -135 l-68 -25 l157 0 l0 -54 q69 88 106 217 l82 -19 q-16 -49 -30 -84 l403 0 l0 -76 ZM562 111 l82 -26 q-61 -91 -165 -168 q-37 37 -68 56 q97 58 151 138 ZM715 71 l65 44 q102 -78 157 -146 l-68 -50 q-52 67 -154 152 ZM595 255 l0 -60 l180 0 l0 60 l-180 0 ZM775 491 l-180 0 l0 -55 l180 0 l0 55 ZM595 374 l0 -58 l180 0 l0 58 l-180 0 ZM857 195 l97 0 l0 -77 l-545 0 l0 77 l105 0 l0 296 l-63 0 l0 76 l63 0 l0 61 l81 0 l0 -61 l180 0 l0 61 l82 0 l0 -61 l72 0 l0 -76 l-72 0 l0 -296 Z" /><glyph glyph-name="cid20605" unicode="&#x65e0;" d="M661 36 l151 0 q33 0 43 27 q10 27 15 127 q32 -26 89 -39 q-9 -123 -37 -164.5 q-28 -41.5 -103 -41.5 l-170 0 q-83 0 -112 27.5 q-29 27.5 -29 105.5 l0 317 l-9 0 q-16 -76 -44 -141.5 q-28 -65.5 -73.5 -128 q-45.5 -62.5 -115.5 -115 q-70 -52.5 -162 -89.5 q-25 46 -63 78 q291 110 363 396 l-348 0 l0 91 l365 0 q11 75 15 198 l-320 0 l0 90 l778 0 l0 -90 l-363 0 q-6 -132 -15 -198 l434 0 l0 -91 l-345 0 l0 -316 q0 -28 10 -35.5 q10 -7.5 46 -7.5 Z" /><glyph glyph-name="cid20680" unicode="&#x660e;" d="M307 696 l-140 0 l0 -168 l140 0 l0 168 ZM167 269 l140 0 l0 176 l-140 0 l0 -176 ZM394 184 l-227 0 l0 -90 l-86 0 l0 687 l313 0 l0 -597 ZM589 320 l239 0 l0 155 l-234 0 l0 -33 q0 -70 -5 -122 ZM828 711 l-234 0 l0 -152 l234 0 l0 152 ZM919 797 l0 -762 q0 -40 -10.5 -62.5 q-10.5 -22.5 -35.5 -32.5 q-39 -18 -174 -18 q-10 51 -34 90 q30 -1 139 -1 q24 1 24 25 l0 200 l-251 0 q-38 -211 -174 -321 q-31 39 -72 62 q56 45 92.5 102.5 q36.5 57.5 52 123 q15.5 65.5 21 119 q5.5 53.5 5.5 121.5 l0 354 l417 0 Z" /><glyph glyph-name="cid20690" unicode="&#x6613;" d="M276 565 l0 -84 l458 0 l0 84 l-458 0 ZM276 718 l0 -81 l458 0 l0 81 l-458 0 ZM340 331 l562 0 q-2 -25 -4 -38 q-15 -161 -31.5 -238 q-16.5 -77 -40.5 -102 q-28 -28 -73 -31 q-44 -5 -123 0 q-4 46 -25 79 q46 -5 107 -5 q24 0 36 12 q33 29 53 242 l-105 0 q-80 -208 -231 -335 q-25 27 -73 58 q134 97 208 277 l-113 0 q-54 -92 -132.5 -172 q-78.5 -80 -166.5 -136 q-31 37 -70 67 q166 90 264 241 l-116 0 q-73 -71 -158 -127 q-31 38 -71 66 q156 86 248 217 l-100 0 l0 388 l644 0 l0 -388 l-435 0 q-18 -28 -54 -75 Z" /><glyph glyph-name="cid20721" unicode="&#x6625;" d="M330 41 l338 0 l0 78 l-338 0 l0 -78 ZM668 189 l0 76 l-338 0 l0 -76 l338 0 ZM625 406 l-241 0 q-29 -42 -49 -65 l336 0 q-26 32 -46 65 ZM946 406 l-218 0 q93 -115 238 -172 q-36 -28 -64 -78 q-67 32 -133 87 l0 -316 l-101 0 l0 36 l-338 0 l0 -40 l-97 0 l0 318 q-65 -52 -133 -88 q-9 18 -28 41 q-19 23 -36 34 q139 70 228 178 l-209 0 l0 80 l268 0 q28 47 36 65 l-217 0 l0 75 l249 0 q8 20 20 60 l-303 0 l0 78 l320 0 q5 23 11 74 l98 -8 q-6 -44 -10 -66 l365 0 l0 -78 l-382 0 q-8 -30 -18 -60 l369 0 l0 -75 l-397 0 q-17 -38 -32 -65 l514 0 l0 -80 Z" /><glyph glyph-name="cid20733" unicode="&#x662f;" d="M741 666 l0 67 l-489 0 l0 -67 l489 0 ZM741 534 l0 67 l-489 0 l0 -67 l489 0 ZM835 802 l0 -336 l-673 0 l0 336 l673 0 ZM556 150 l0 -120 q41 -4 102 -4 q104 -2 303 1 q-22 -35 -32 -88 l-276 0 q-155 0 -248.5 32.5 q-93.5 32.5 -151.5 122.5 q-56 -108 -148 -175 q-31 37 -69 66 q150 95 189 314 l93 -13 q-12 -56 -25 -94 q51 -114 170 -146 l0 280 l-400 0 l0 82 l876 0 l0 -82 l-383 0 l0 -95 l318 0 l0 -81 l-318 0 Z" /><glyph glyph-name="cid20753" unicode="&#x663e;" d="M738 632 l0 87 l-477 0 l0 -87 l477 0 ZM738 475 l0 87 l-477 0 l0 -87 l477 0 ZM833 792 l0 -390 l-663 0 l0 390 l663 0 ZM754 106 l-72 34 q82 104 127 198 l80 -35 q-64 -109 -135 -197 ZM298 138 l-75 -36 q-35 83 -103 199 l72 30 q77 -121 106 -193 ZM652 56 l306 0 l0 -89 l-916 0 l0 89 l300 0 l0 310 l89 0 l0 -310 l133 0 l0 310 l88 0 l0 -310 Z" /><glyph glyph-name="cid20830" unicode="&#x666f;" d="M257 635 l0 -55 l480 0 l0 55 l-480 0 ZM257 744 l0 -52 l480 0 l0 52 l-480 0 ZM935 466 l0 -75 l-875 0 l0 75 l391 0 q-7 14 -23 36 l50 17 l-310 0 l0 286 l662 0 l0 -286 l-313 0 q22 -28 34 -53 l384 0 ZM283 117 l86 -34 q-101 -84 -258 -147 q-32 38 -67 66 q157 49 239 115 ZM280 279 l0 -76 l440 0 l0 76 l-440 0 ZM814 136 l-267 0 l0 -131 q0 -33 -9.5 -49 q-9.5 -16 -33.5 -24 q-33 -11 -151 -11 q-5 27 -28 74 q47 -2 111 -2 q18 1 18 16 l0 127 l-263 0 l0 210 l623 0 l0 -210 ZM614 62 l61 51 q151 -51 262 -120 l-64 -59 q-98 66 -259 128 Z" /><glyph glyph-name="cid21055" unicode="&#x66f4;" d="M244 315 l213 0 q2 16 2 49 l0 36 l-215 0 l0 -85 ZM244 557 l0 -85 l215 0 l0 85 l-215 0 ZM778 557 l-222 0 l0 -85 l222 0 l0 85 ZM778 315 l0 85 l-222 0 l0 -37 q0 -32 -2 -48 l224 0 ZM870 239 l-327 0 q-19 -92 -83 -157 q89 -35 210 -48 q121 -13 298 -15 q-31 -40 -39 -92 q-191 7 -320 26.5 q-129 19.5 -226 67.5 q-100 -63 -278 -101 q-27 52 -57 82 q152 26 248 73 q-66 50 -116 129 l81 32 q46 -66 112 -110 q51 46 71 113 l-288 0 l0 394 l303 0 l0 72 l-391 0 l0 84 l865 0 l0 -84 l-377 0 l0 -72 l314 0 l0 -394 Z" /><glyph glyph-name="cid21091" unicode="&#x6709;" d="M732 359 l0 87 l-391 0 l0 -87 l391 0 ZM341 194 l391 0 l0 87 l-391 0 l0 -87 ZM938 627 l-534 0 q-22 -46 -52 -100 l471 0 l0 -498 q0 -39 -10 -60.5 q-10 -21.5 -36 -31.5 q-35 -15 -174 -15 q-5 39 -29 90 q40 -2 83.5 -2.5 q43.5 -0.5 52.5 0.5 q13 0 17.5 4.5 q4.5 4.5 4.5 15.5 l0 86 l-391 0 l0 -195 l-92 0 l0 458 q-69 -82 -150 -138 q-33 47 -61 72 q156 105 263 314 l-236 0 l0 87 l274 0 q25 62 42 125 l95 -22 q-24 -74 -35 -103 l497 0 l0 -87 Z" /><glyph glyph-name="cid21154" unicode="&#x672a;" d="M941 346 l-345 0 q67 -91 167 -171 q100 -80 202 -124 q-29 -25 -68 -80 q-93 47 -185 126 q-92 79 -164 174 l0 -349 l-98 0 l0 345 q-71 -92 -162.5 -169.5 q-91.5 -77.5 -185.5 -125.5 q-29 42 -68 79 q102 45 201.5 125 q99.5 80 165.5 170 l-338 0 l0 92 l387 0 l0 152 l-315 0 l0 92 l315 0 l0 157 l98 0 l0 -157 l323 0 l0 -92 l-323 0 l0 -152 l393 0 l0 -92 Z" /><glyph glyph-name="cid21180" unicode="&#x673a;" d="M447 355 l-51 -90 q-33 60 -92 148 l0 -492 l-93 0 l0 437 q-58 -160 -125 -249 q-12 30 -49 84 q49 65 94.5 167 q45.5 102 70.5 201 l-148 0 l0 88 l157 0 l0 190 l93 0 l0 -190 l127 0 l0 -88 l-127 0 l0 -30 q84 -96 143 -176 ZM846 19 l20 0 q11 0 17 6 q7 8 8 37 q3 35 3 136 q31 -24 70 -39 q0 -108 -10 -153 q-5 -39 -28 -57 q-22 -16 -57 -16 l-51 0 q-36 0 -61 22 q-13 14 -18 38 q-5 24 -5 85 l0 616 l-158 0 l0 -231 q0 -377 -165 -544 q-12 14 -35.5 33.5 q-23.5 19.5 -39.5 28.5 q47 48 78.5 108.5 q31.5 60.5 45 128.5 q13.5 68 18 122.5 q4.5 54.5 4.5 122.5 l0 319 l345 0 l0 -706 q0 -46 4 -51 q6 -6 15 -6 Z" /><glyph glyph-name="cid21243" unicode="&#x6765;" d="M942 313 l-332 0 q66 -85 162 -160 q96 -75 193 -117 q-41 -39 -65 -79 q-94 48 -187 127.5 q-93 79.5 -164 173.5 l0 -337 l-98 0 l0 335 q-71 -92 -163.5 -170.5 q-92.5 -78.5 -186.5 -125.5 q-26 42 -66 78 q98 41 194.5 115.5 q96.5 74.5 163.5 159.5 l-334 0 l0 90 l392 0 l0 232 l-345 0 l0 89 l345 0 l0 115 l98 0 l0 -115 l353 0 l0 -89 l-353 0 l0 -232 l393 0 l0 -90 ZM181 592 l82 31 q70 -105 90 -182 l-88 -35 q-22 88 -84 186 ZM730 405 l-80 27 q54 87 94 194 l97 -29 q-66 -129 -111 -192 Z" /><glyph glyph-name="cid21292" unicode="&#x6784;" d="M402 343 l-56 -67 q-22 50 -66 133 l0 -488 l-90 0 l0 441 q-50 -158 -112 -249 q-17 48 -46 92 q46 58 87 158 q41 100 64 201 l-133 0 l0 86 l140 0 l0 188 l90 0 l0 -188 l107 0 l0 -86 l-107 0 l0 -40 q20 -27 64.5 -93 q44.5 -66 57.5 -88 ZM782 156 l-75 -30 q-14 50 -19 66 q-221 -44 -261 -62 q-6 24 -28 81 q20 5 48 59 q17 30 48 109.5 q31 79.5 49 154.5 l88 -26 q-46 -143 -116 -271 l146 26 q-21 56 -42 103 l69 24 q68 -146 93 -234 ZM937 679 l0 -46 q-12 -351 -25 -488.5 q-13 -137.5 -41 -173.5 q-26 -40 -79 -46 q-36 -6 -131 -2 q-4 51 -30 92 q52 -5 120 -5 q26 0 38 17 q21 24 33 150 q12 126 21 416 l-323 0 q-41 -88 -94 -158 q-24 24 -75 58 q105 121 159 346 l91 -21 q-19 -69 -44 -139 l380 0 Z" /><glyph glyph-name="cid21312" unicode="&#x6790;" d="M426 316 l-56 -73 q-25 52 -79 137 l0 -459 l-89 0 l0 435 q-57 -170 -123 -257 q-14 37 -47 86 q48 60 92 159.5 q44 99.5 67 197.5 l-132 0 l0 88 l143 0 l0 209 l89 0 l0 -209 l143 0 l0 -88 l-143 0 l0 -46 q85 -106 135 -180 ZM956 502 l0 -88 l-137 0 l0 -493 l-92 0 l0 493 l-159 0 q-2 -334 -110 -491 q-29 27 -77 47 q42 61 65.5 149.5 q23.5 88.5 28.5 155.5 q5 67 5 155 l0 300 q224 42 342 98 l79 -73 q-121 -51 -333 -91 l0 -162 l388 0 Z" /><glyph glyph-name="cid21324" unicode="&#x6797;" d="M474 345 l-59 -80 q-31 52 -98 143 l0 -485 l-91 0 l0 447 q-69 -182 -146 -272 q-15 40 -49 89 q54 61 103.5 158.5 q49.5 97.5 76.5 195.5 l-154 0 l0 88 l169 0 l0 211 l91 0 l0 -211 l136 0 l0 -88 l-136 0 l0 -20 q54 -51 157 -176 ZM939 541 l-161 0 q34 -115 85 -218 q51 -103 107 -165 q-42 -31 -71 -73 q-75 99 -143 292 l0 -454 l-93 0 l0 448 q-84 -201 -190 -307 q-14 33 -54 85 q70 66 131 172 q61 106 96 220 l-155 0 l0 88 l172 0 l0 211 l93 0 l0 -211 l183 0 l0 -88 Z" /><glyph glyph-name="cid21445" unicode="&#x67e5;" d="M74 -49 l0 83 l856 0 l0 -83 l-856 0 ZM682 282 l0 67 l-372 0 l0 -67 l372 0 ZM682 152 l0 68 l-372 0 l0 -68 l372 0 ZM218 413 l560 0 l0 -326 l-560 0 l0 326 ZM941 638 l-305 0 q61 -62 148 -113 q87 -51 178 -80 q-38 -34 -61 -75 q-99 37 -194.5 104.5 q-95.5 67.5 -163.5 149.5 l0 -181 l-92 0 l0 181 q-65 -83 -159.5 -152 q-94.5 -69 -195.5 -110 q-23 39 -59 75 q87 28 172.5 82 q85.5 54 146.5 119 l-296 0 l0 81 l391 0 l0 120 l92 0 l0 -120 l398 0 l0 -81 Z" /><glyph glyph-name="cid21499" unicode="&#x6807;" d="M899 769 l0 -87 l-433 0 l0 87 l433 0 ZM417 361 l-52 -74 q-17 36 -80 132 l0 -498 l-92 0 l0 459 q-53 -161 -118 -248 q-14 38 -49 89 q44 54 84.5 145 q40.5 91 63.5 183 l-126 0 l0 86 l145 0 l0 204 l92 0 l0 -204 l123 0 l0 -86 l-123 0 l0 -24 q22 -24 70.5 -84.5 q48.5 -60.5 61.5 -79.5 ZM480 344 l84 -20 q-47 -187 -132 -310 q-29 26 -74 49 q79 103 122 281 ZM953 446 l-232 0 l0 -411 q0 -73 -41 -92 q-36 -18 -148 -18 q-5 47 -28 96 q75 -3 104 -1 q10 0 14 3.5 q4 3.5 4 13.5 l0 409 l-204 0 l0 87 l531 0 l0 -87 ZM773 321 l78 26 q82 -174 108 -304 l-85 -32 q-22 134 -101 310 Z" /><glyph glyph-name="cid21541" unicode="&#x6821;" d="M949 696 l0 -86 l-546 0 l0 86 l238 0 q-22 54 -71 118 l81 32 q53 -60 80 -122 l-64 -28 l282 0 ZM713 552 l64 51 q123 -116 174 -202 l-69 -59 q-22 42 -70 101 q-48 59 -99 109 ZM393 317 l-55 -69 q-16 43 -66 144 l0 -470 l-85 0 l0 448 q-51 -180 -111 -273 q-18 52 -45 91 q42 59 80.5 159.5 q38.5 100.5 59.5 201.5 l-108 0 l0 86 l124 0 l0 203 l85 0 l0 -204 l106 0 l0 -85 l-106 0 l0 -36 q38 -54 121 -196 ZM750 419 l89 -23 q-40 -137 -117 -241 q103 -101 246 -144 q-36 -32 -63 -83 q-141 50 -244 156 q-100 -100 -245 -163 q-32 51 -59 71 q150 63 244 161 q-76 103 -122 231 q-34 -32 -50 -47 q-24 29 -64 57 q98 80 164 202 l82 -38 q-50 -84 -119 -158 l64 16 q38 -107 103 -192 q63 88 91 195 Z" /><glyph glyph-name="cid21583" unicode="&#x6839;" d="M398 345 l-56 -64 q-22 51 -61 127 l0 -486 l-84 0 l0 445 q-50 -162 -114 -253 q-15 45 -47 92 q47 57 88.5 157.5 q41.5 100.5 64.5 200.5 l-139 0 l0 86 l147 0 l0 188 l84 0 l0 -188 l112 0 l0 -86 l-112 0 l0 -41 q19 -24 61 -89 q42 -65 56 -89 ZM521 538 l0 -104 l267 0 l0 104 l-267 0 ZM788 715 l-267 0 l0 -101 l267 0 l0 101 ZM874 330 l62 -64 q-79 -63 -158 -110 q76 -104 186 -149 q-37 -34 -62 -79 q-216 104 -299 425 l-82 0 l0 -312 l164 39 q-2 -44 4 -82 q-227 -59 -254 -78 q-13 45 -40 76 q36 21 36 69 l0 731 l447 0 l0 -443 l-194 0 q21 -69 53 -131 q86 59 137 108 Z" /><glyph glyph-name="cid21588" unicode="&#x683c;" d="M787 211 l-272 0 l0 -153 l272 0 l0 153 ZM427 -76 l0 369 l452 0 l0 -367 l-92 0 l0 50 l-272 0 l0 -52 l-88 0 ZM392 399 l-20 -24 q127 41 219 98 q-60 54 -99 113 q-34 -45 -72 -81 q-20 36 -49 68 l0 -9 l-101 0 l0 -12 q24 -24 122 -153 ZM787 661 l-245 0 l-2 -2 q44 -76 120 -138 q78 61 127 140 ZM856 747 l59 -35 q-61 -138 -181 -243 q104 -62 234 -92 q-20 -31 -33 -86 q-153 43 -270 124 q-129 -86 -289 -135 q-7 21 -32 60 l-10 -12 q-21 44 -64 116 l0 -523 l-88 0 l0 454 q-47 -164 -108 -257 q-17 51 -45 93 q42 58 81 157 q39 99 59 196 l-118 0 l0 86 l131 0 l0 188 l88 0 l0 -188 l101 0 l0 -66 q110 101 167 260 l82 -23 q-19 -48 -34 -78 l255 0 l15 4 Z" /><glyph glyph-name="cid21760" unicode="&#x68a6;" d="M232 405 l0 175 q-65 -97 -136 -150 q-28 40 -60 64 q45 27 90.5 72.5 q45.5 45.5 78.5 95.5 l-146 0 l0 79 l173 0 l0 97 l85 0 l0 -97 l158 0 l0 -79 l-151 0 q84 -54 148 -107 l-48 -76 q-37 43 -107 107 l0 -181 l-85 0 ZM763 359 l17 4 l63 -42 q-167 -316 -715 -403 q-19 51 -49 87 q207 26 359 87 q-80 51 -158 87 l72 50 q81 -33 180 -93 q112 62 173 146 l-323 0 q-107 -72 -221 -118 q-28 35 -70 65 q103 37 200 95.5 q97 58.5 147 117.5 l93 -37 q-20 -21 -48 -46 l280 0 ZM946 662 l-159 0 q36 -50 85.5 -95 q49.5 -45 98.5 -71 q-33 -25 -61 -67 q-85 58 -159 163 l0 -187 l-87 0 l0 171 q-69 -93 -142 -141 q-26 38 -60 66 q101 54 177 161 l-135 0 l0 79 l160 0 l0 97 l87 0 l0 -97 l195 0 l0 -79 Z" /><glyph glyph-name="cid21804" unicode="&#x68c0;" d="M480 534 l329 0 q-101 84 -177 175 q-66 -93 -152 -175 ZM468 455 l0 68 q-47 -43 -106 -85 q-27 46 -55 76 q94 57 177 145.5 q83 88.5 133 187.5 l80 -29 q-3 -7 -10 -20 q-7 -13 -9 -17 q52 -67 133 -134.5 q81 -67.5 157 -109.5 q-27 -35 -46 -86 q-63 41 -112 82 l0 -78 l-342 0 ZM702 156 l-76 -12 q-7 87 -39 236 l72 10 q30 -111 43 -234 ZM531 134 l-75 -20 q-15 106 -60 238 l72 18 q48 -126 63 -236 ZM369 356 l-54 -63 q-9 24 -57 122 l0 -493 l-85 0 l0 434 q-42 -144 -93 -224 q-13 39 -44 93 q39 55 74 150.5 q35 95.5 56 192.5 l-116 0 l0 87 l123 0 l0 183 l85 0 l0 -183 l92 0 l0 -87 l-92 0 l0 -37 q20 -27 60 -90.5 q40 -63.5 51 -84.5 ZM830 390 l82 -20 q-75 -193 -147 -322 l169 0 l0 -82 l-588 0 l0 82 l343 0 q89 167 141 342 Z" /><glyph glyph-name="cid22455" unicode="&#x6a21;" d="M500 619 l0 67 l-132 0 l0 77 l132 0 l0 75 l88 0 l0 -75 l136 0 l0 75 l90 0 l0 -75 l127 0 l0 -77 l-127 0 l0 -67 l-90 0 l0 67 l-136 0 l0 -67 l-88 0 ZM376 338 l-57 -67 q-13 37 -62 134 l0 -484 l-88 0 l0 401 q-42 -133 -90 -209 q-15 41 -47 92 q41 56 78 152 q37 96 59 196 l0 11 l-117 0 l0 86 l117 0 l0 188 l88 0 l0 -188 l97 0 l0 -85 l-97 0 l0 -40 q64 -91 119 -187 ZM489 411 l0 -59 l314 0 l0 59 l-314 0 ZM489 533 l0 -58 l314 0 l0 58 l-314 0 ZM942 135 l-202 0 q72 -106 227 -136 q-39 -37 -57 -78 q-180 51 -256 203 q-31 -74 -99 -123.5 q-68 -49.5 -191 -80.5 q-13 36 -47 75 q185 38 242 140 l-211 0 l0 78 l239 0 q7 25 12 72 l-197 0 l0 316 l491 0 l0 -316 l-203 0 q-5 -43 -10 -72 l262 0 l0 -78 Z" /><glyph glyph-name="cid22915" unicode="&#x6b21;" d="M819 584 l-340 0 q-49 -128 -107 -208 q-26 20 -91 52 q114 138 166 411 l100 -18 q-19 -84 -37 -145 l339 0 l19 6 l67 -39 q-32 -135 -104 -278 q-42 24 -78 40 q35 72 66 179 ZM308 640 l-59 -77 q-29 30 -84.5 70 q-55.5 40 -109.5 71 l56 67 q132 -69 197 -131 ZM243 386 l74 -62 q-91 -161 -189 -307 l-86 63 q109 144 201 306 ZM659 544 l0 -64 q0 -21 -2 -67 q73 -319 306 -402 q-36 -32 -63 -83 q-190 82 -277 312 q-73 -206 -307 -325 q-26 40 -72 74 q84 41 145 93.5 q61 52.5 93 101.5 q32 49 50.5 107.5 q18.5 58.5 23 99.5 q4.5 41 4.5 91 l0 62 l99 0 Z" /><glyph glyph-name="cid23034" unicode="&#x6b62;" d="M588 63 l360 0 l0 -93 l-898 0 l0 93 l133 0 l0 563 l96 0 l0 -563 l210 0 l0 773 l99 0 l0 -320 l312 0 l0 -93 l-312 0 l0 -360 Z" /><glyph glyph-name="cid23035" unicode="&#x6b63;" d="M576 53 l372 0 l0 -90 l-895 0 l0 90 l130 0 l0 456 l96 0 l0 -456 l199 0 l0 626 l-389 0 l0 91 l828 0 l0 -91 l-341 0 l0 -245 l298 0 l0 -90 l-298 0 l0 -291 Z" /><glyph glyph-name="cid23283" unicode="&#x6bd5;" d="M815 371 l-164 0 q-80 0 -107 25 q-27 25 -27 97 l0 338 l94 0 l0 -164 q151 51 237 104 l66 -74 q-115 -56 -303 -111 l0 -92 q0 -25 9.5 -32.5 q9.5 -7.5 42.5 -7.5 l144 0 q28 0 37 21.5 q9 21.5 13 99.5 q34 -24 83 -36 q-8 -99 -33 -133.5 q-25 -34.5 -92 -34.5 ZM234 459 l248 48 q-4 -46 2 -82 q-323 -68 -350 -82 q-16 47 -44 77 q49 32 49 84 l0 324 l95 0 l0 -124 l239 0 l0 -82 l-239 0 l0 -163 ZM949 243 l0 -84 l-405 0 l0 -236 l-94 0 l0 236 l-397 0 l0 84 l397 0 l0 120 l94 0 l0 -120 l405 0 Z" /><glyph glyph-name="cid23297" unicode="&#x6bdb;" d="M566 28 l227 0 q43 0 56.5 25 q13.5 25 19.5 111 q40 -27 91 -38 q-11 -109 -43.5 -149 q-32.5 -40 -117.5 -40 l-239 0 q-99 0 -134 32 q-35 32 -35 125 l0 105 l-318 -42 l-13 91 l331 42 l0 134 l-286 -39 l-13 89 l299 40 l0 133 q-172 -30 -292 -45 q-7 43 -28 83 q457 58 680 150 l78 -75 q-143 -54 -342 -94 l0 -138 l369 50 l13 -87 l-382 -53 l0 -136 l434 55 l13 -87 l-447 -59 l0 -118 q0 -41 14 -53 q14 -12 65 -12 Z" /><glyph glyph-name="cid23390" unicode="&#x6c14;" d="M925 655 l-652 0 q-75 -142 -164 -231 q-42 33 -84 56 q72 62 131.5 158 q59.5 96 95.5 203 l93 -24 q-16 -45 -33 -83 l613 0 l0 -79 ZM847 516 l-587 0 l0 76 l587 0 l0 -76 ZM156 448 l617 0 q3 -189 27.5 -311.5 q24.5 -122.5 73.5 -122.5 q22 0 24 133 q35 -38 64 -56 q-5 -93 -25 -131 q-20 -38 -69 -38 q-50 0 -85.5 33 q-35.5 33 -55.5 97.5 q-20 64.5 -30 139 q-10 74.5 -15 176.5 l-526 0 l0 80 Z" /><glyph glyph-name="cid23419" unicode="&#x6c27;" d="M929 684 l-666 0 q-73 -113 -172 -193 q-32 44 -64 73 q68 49 127 122.5 q59 73.5 94 153.5 l88 -25 q-6 -14 -29 -60 l622 0 l0 -71 ZM847 569 l-587 0 l0 68 l587 0 l0 -68 ZM300 352 l137 0 q36 55 55 96 l-221 0 q36 -52 48 -90 l-19 -6 ZM155 520 l642 0 q-2 -255 14 -381.5 q16 -126.5 65 -125.5 q22 0 24 144 q32 -35 62 -56 q-5 -102 -24.5 -141.5 q-19.5 -39.5 -68.5 -39.5 q-42 0 -71.5 25.5 q-29.5 25.5 -47 67.5 q-17.5 42 -28 113 q-10.5 71 -14 143.5 q-3.5 72.5 -4.5 178.5 l-196 0 l74 -20 q-24 -38 -52 -76 l134 0 l0 -67 l-237 0 l0 -51 l209 0 l0 -65 l-209 0 l0 -55 l259 0 l0 -70 l-259 0 l0 -123 l-90 0 l0 123 l-272 0 l0 70 l272 0 l0 55 l-207 0 l0 65 l207 0 l0 51 l-242 0 l0 67 l136 0 q-18 44 -39 77 l68 19 l-105 0 l0 72 Z" /><glyph glyph-name="cid23440" unicode="&#x6c34;" d="M349 594 l62 -24 q-34 -193 -112.5 -335.5 q-78.5 -142.5 -186.5 -221.5 q-12 17 -35 39.5 q-23 22.5 -40 33.5 q91 60 159 166 q68 106 102 244 l-228 0 l0 94 l262 0 l17 4 ZM807 659 l85 -61 q-121 -131 -226 -220 q129 -191 307 -274 q-44 -38 -69 -85 q-213 113 -352 389 l0 -365 q0 -43 -10.5 -67 q-10.5 -24 -35.5 -36 q-42 -21 -165 -21 q-10 58 -35 104 q83 -4 125 -2 q23 0 23 22 l0 795 l98 0 l0 -239 q30 -80 70 -149 q113 107 185 209 Z" /><glyph glyph-name="cid23456" unicode="&#x6c42;" d="M819 552 l82 -57 q-90 -104 -199 -199 q113 -145 262 -208 q-40 -37 -67 -83 q-216 109 -352 378 l0 -342 q0 -45 -11.5 -68.5 q-11.5 -23.5 -38.5 -34.5 q-43 -19 -185 -19 q-9 48 -33 98 q103 -3 148 -1 q14 0 19.5 5.5 q5.5 5.5 5.5 19.5 l0 191 q-160 -102 -349 -213 l-60 84 q120 60 409 226 l0 261 l-383 0 l0 90 l383 0 l0 157 l95 0 l0 -157 l237 0 q-67 51 -157 97 l55 59 q121 -59 183 -108 l-42 -48 l116 0 l0 -90 l-392 0 l0 -10 q41 -116 107 -216 q103 96 167 188 ZM348 357 l-76 -55 q-22 39 -68 92.5 q-46 53.5 -93 96.5 l70 50 q49 -42 96.5 -93.5 q47.5 -51.5 70.5 -90.5 Z" /><glyph glyph-name="cid23507" unicode="&#x6c61;" d="M889 782 l0 -88 l-497 0 l0 88 l497 0 ZM330 724 l-55 -76 q-44 31 -185 111 l52 67 q122 -60 188 -102 ZM279 456 l-51 -77 q-66 45 -184 108 l51 68 q123 -58 184 -99 ZM157 -67 l-80 63 q96 133 188 316 l69 -61 q-82 -164 -177 -318 ZM957 469 l-399 0 q-16 -80 -32 -147 l360 0 q-1 -27 -3 -39 q-11 -147 -25 -216 q-14 -69 -40 -93 q-33 -32 -102 -35 q-61 -3 -189 2 q-4 48 -36 89 q90 -8 196 -8 q36 0 51 9 q30 23 47 203 l-377 0 q34 113 57 235 l-139 0 l0 88 l631 0 l0 -88 Z" /><glyph glyph-name="cid23605" unicode="&#x6ca1;" d="M532 718 l0 -27 q0 -191 -177 -275 q-8 14 -28.5 36 q-20.5 22 -34.5 33 q89 39 119.5 91 q30.5 52 30.5 118 l0 110 l353 0 l0 -207 q0 -23 4 -31.5 q4 -8.5 17 -8.5 l77 0 q36 0 57 7 q4 -58 8 -90 q-21 -7 -64 -7 l-86 0 q-62 0 -83 29 q-21 29 -21 103 l0 119 l-172 0 ZM320 720 l-55 -76 q-52 40 -180 114 l52 67 q117 -61 183 -105 ZM271 458 l-52 -77 q-55 40 -184 109 l50 68 q124 -57 186 -100 ZM245 311 l68 -59 q-79 -167 -168 -317 l-78 60 q88 131 178 316 ZM765 318 l-292 0 q54 -97 146 -168 q95 73 146 168 ZM831 408 l62 -25 q-57 -172 -192 -285 q112 -63 265 -91 q-35 -34 -61 -85 q-162 35 -287 116 q-124 -76 -298 -116 q-15 48 -48 84 q154 29 268 92 q-97 85 -158 207 l37 13 l-74 0 l0 87 l469 0 l17 3 Z" /><glyph glyph-name="cid23640" unicode="&#x6cb9;" d="M286 454 l-52 -77 q-65 48 -189 110 l50 69 q128 -58 191 -102 ZM159 -64 l-80 60 q72 105 161 281 l70 -59 q-71 -151 -151 -282 ZM96 758 l53 69 q128 -57 194 -106 l-54 -76 q-70 54 -193 113 ZM684 73 l148 0 l0 194 l-148 0 l0 -194 ZM451 267 l0 -194 l142 0 l0 194 l-142 0 ZM593 544 l-142 0 l0 -188 l142 0 l0 188 ZM832 544 l-148 0 l0 -188 l148 0 l0 188 ZM684 633 l238 0 l0 -702 l-90 0 l0 53 l-381 0 l0 -59 l-87 0 l0 708 l229 0 l0 204 l91 0 l0 -204 Z" /><glyph glyph-name="cid23681" unicode="&#x6cd5;" d="M279 462 l-51 -77 q-63 53 -184 108 l49 70 q119 -47 186 -101 ZM157 -67 l-80 63 q94 131 189 317 l68 -62 q-89 -177 -177 -318 ZM99 760 l52 68 q118 -49 188 -102 l-54 -77 q-62 56 -186 111 ZM945 -36 l-84 -42 q-12 41 -41 94 q-257 -31 -331 -42.5 q-74 -11.5 -97 -22.5 q-11 42 -32 93 q26 6 64 65 q57 77 123 231 l-206 0 l0 88 l247 0 l0 162 l-205 0 l0 88 l205 0 l0 161 l95 0 l0 -161 l213 0 l0 -88 l-213 0 l0 -162 l251 0 l0 -88 l-276 0 q-69 -148 -159 -277 l278 30 q-25 41 -78 117 l75 36 q54 -68 102 -146.5 q48 -78.5 69 -135.5 Z" /><glyph glyph-name="cid23705" unicode="&#x6ce1;" d="M341 726 l-55 -77 q-65 58 -185 110 l51 69 q118 -46 189 -102 ZM279 456 l-51 -77 q-63 53 -184 108 l49 69 q125 -50 186 -100 ZM155 -66 l-77 62 q94 133 188 316 l67 -59 q-85 -172 -178 -319 ZM670 476 l-187 0 l0 -155 l187 0 l0 155 ZM568 24 l245 0 q41 0 54.5 20 q13.5 20 19.5 88 q33 -21 81 -31 q-10 -91 -40 -123 q-30 -32 -111 -32 l-254 0 q-98 0 -132.5 27.5 q-34.5 27.5 -34.5 107.5 l0 416 q-36 -46 -54 -65 q-35 45 -66 71 q124 123 189 338 l90 -23 q-20 -58 -32 -86 l394 0 l0 -41 q-1 -281 -5 -374.5 q-4 -93.5 -19 -116.5 q-20 -31 -63 -39 q-42 -5 -106 -2 q-2 43 -25 84 q49 -4 86 -4 q19 0 28 15 q15 24 16 394 l-344 0 q-23 -47 -51 -94 l317 0 l0 -311 l-268 0 l0 -162 q0 -36 15.5 -46.5 q15.5 -10.5 69.5 -10.5 Z" /><glyph glyph-name="cid23706" unicode="&#x6ce2;" d="M321 727 l-55 -75 q-58 50 -172 111 l53 67 q120 -60 174 -103 ZM269 467 l-54 -77 q-52 44 -177 105 l52 69 q118 -53 179 -97 ZM224 307 l71 -56 q-73 -172 -152 -318 l-82 56 q78 127 163 318 ZM778 373 l-238 0 q45 -110 124 -195 q74 84 114 195 ZM589 614 l-146 0 l0 -159 l146 0 l0 159 ZM833 459 l58 -26 q-49 -187 -161 -316 q103 -81 234 -116 q-37 -33 -61 -80 q-132 43 -238 132 q-95 -85 -227 -134 q-27 49 -59 78 q128 42 223 119 q-96 109 -150 257 l-10 0 q-12 -300 -124 -451 q-35 31 -79 46 q70 93 92.5 215 q22.5 122 22.5 266 l0 252 l235 0 l0 138 l91 0 l0 -138 l194 0 l16 3 l67 -17 q-44 -134 -83 -205 l-79 23 q18 39 42 109 l-157 0 l0 -159 l135 0 l18 4 Z" /><glyph glyph-name="cid23716" unicode="&#x6ce8;" d="M337 725 l-54 -77 q-63 51 -186 111 l52 67 q123 -54 188 -101 ZM279 454 l-51 -77 q-58 45 -184 108 l50 68 q118 -51 185 -99 ZM260 309 l68 -61 q-91 -178 -178 -317 l-78 63 q90 125 188 315 ZM690 40 l270 0 l0 -89 l-649 0 l0 89 l282 0 l0 232 l-213 0 l0 89 l213 0 l0 202 l-251 0 l0 88 l282 0 q-21 70 -77 162 l85 30 q61 -95 83 -159 l-88 -33 l308 0 l0 -88 l-245 0 l0 -202 l210 0 l0 -89 l-210 0 l0 -232 Z" /><glyph glyph-name="cid23838" unicode="&#x6d3b;" d="M330 724 l-55 -75 q-52 37 -183 110 l52 66 q119 -58 186 -101 ZM279 456 l-51 -77 q-72 49 -184 107 l51 69 q127 -62 184 -99 ZM142 -66 l-78 62 q94 133 188 316 l67 -62 q-83 -169 -177 -316 ZM809 48 l0 180 l-331 0 l0 -180 l331 0 ZM956 460 l-265 0 l0 -148 l206 0 l0 -385 l-88 0 l0 37 l-331 0 l0 -42 l-85 0 l0 390 l210 0 l0 148 l-278 0 l0 89 l278 0 l0 142 q-101 -16 -208 -24 q-7 41 -27 78 q322 34 475 91 l73 -72 q-89 -33 -225 -58 l0 -157 l265 0 l0 -89 Z" /><glyph glyph-name="cid23861" unicode="&#x6d4b;" d="M485 89 l58 34 q91 -89 131 -155 l-58 -39 q-44 73 -131 160 ZM311 783 l342 0 l0 -629 l-74 0 l0 561 l-196 0 l0 -564 l-72 0 l0 632 ZM854 825 l75 0 l0 -803 q0 -64 -38 -81 q-31 -16 -143 -16 q-5 36 -26 77 q26 -1 112 -1 q11 0 15.5 4.5 q4.5 4.5 4.5 15.5 l0 804 ZM718 749 l73 0 l0 -600 l-73 0 l0 600 ZM442 650 l70 0 l0 -362 q0 -56 -8 -102 q-8 -46 -28.5 -96.5 q-20.5 -50.5 -63.5 -93.5 q-43 -43 -107 -74 q-15 35 -42 58 q47 22 80.5 51 q33.5 29 52.5 57 q19 28 29.5 64.5 q10.5 36.5 13.5 66.5 q3 30 3 70 l0 361 ZM80 762 l55 67 q107 -54 163 -100 l-58 -76 q-50 47 -160 109 ZM39 497 l52 66 q108 -53 165 -96 l-55 -74 q-43 36 -162 104 ZM141 -66 l-84 48 q68 133 132 317 l75 -49 q-58 -173 -123 -316 Z" /><glyph glyph-name="cid23923" unicode="&#x6d77;" d="M937 649 l-480 0 q-50 -100 -102 -162 q-24 20 -80 52 q105 113 163 301 l90 -23 q-17 -48 -33 -85 l442 0 l0 -83 ZM325 724 l-55 -71 q-59 52 -172 108 l52 64 q112 -49 175 -101 ZM259 441 l-53 -71 q-56 52 -161 106 l51 63 q112 -53 163 -98 ZM153 -62 l-80 49 q80 161 136 322 l73 -51 q-66 -182 -129 -320 ZM662 148 l123 0 q7 61 11 132 l-202 0 q72 -56 107 -105 l-39 -27 ZM578 280 l-112 0 q-18 -119 -20 -132 l192 0 q-38 51 -103 105 l43 27 ZM598 485 l-107 0 q-2 -21 -14 -120 l178 0 q-36 46 -95 95 l38 25 ZM807 485 l-187 0 q65 -52 95 -95 l-35 -25 l121 0 q3 46 6 120 ZM963 280 l-82 0 q-5 -85 -10 -132 l65 0 l0 -80 l-76 0 q-11 -74 -31 -97 q-24 -34 -74 -40 q-38 -5 -125 0 q-4 47 -24 78 q48 -5 110 -5 q25 0 37 15 q12 14 19 49 l-428 0 q21 109 35 212 l-90 0 l0 85 l102 0 q9 70 22 200 l483 0 q-1 -29 -2 -41 q-1 -35 -4 -93 q-3 -58 -3 -66 l76 0 l0 -85 Z" /><glyph glyph-name="cid23946" unicode="&#x6d88;" d="M850 813 l89 -34 q-58 -118 -107 -187 l-80 32 q65 100 98 189 ZM151 -71 l-82 60 q86 136 170 320 l68 -57 q-76 -176 -156 -323 ZM272 453 l-56 -72 q-64 62 -176 119 l53 66 q118 -55 179 -113 ZM86 764 l55 64 q113 -54 174 -113 l-58 -72 q-57 60 -171 121 ZM530 627 l-84 -41 q-27 90 -96 186 l79 35 q73 -98 101 -180 ZM470 207 l338 0 l0 94 l-338 0 l0 -94 ZM808 472 l-338 0 l0 -92 l338 0 l0 92 ZM899 559 l0 -530 q0 -37 -9.5 -57.5 q-9.5 -20.5 -33.5 -30.5 q-34 -16 -159 -16 q-7 45 -29 88 q35 -2 73.5 -2.5 q38.5 -0.5 46.5 0.5 q11 1 15.5 5 q4.5 4 4.5 14 l0 98 l-338 0 l0 -207 l-91 0 l0 638 l216 0 l0 280 l94 0 l0 -280 l210 0 Z" /><glyph glyph-name="cid24127" unicode="&#x6df1;" d="M410 708 l0 -109 l-82 0 l0 188 l592 0 l0 -184 l-85 0 l0 105 l-425 0 ZM655 616 l67 44 q131 -116 189 -204 l-71 -50 q-55 89 -185 210 ZM499 652 l85 -27 q-36 -62 -91 -121.5 q-55 -59.5 -112 -100.5 q-31 38 -66 64 q55 33 104.5 82.5 q49.5 49.5 79.5 102.5 ZM295 733 l-49 -78 q-56 45 -164 102 l48 70 q103 -47 165 -94 ZM261 458 l-47 -77 q-63 53 -175 108 l45 70 q111 -50 177 -101 ZM220 314 l61 -63 q-74 -169 -153 -315 l-69 66 q75 124 161 312 ZM922 276 l-200 0 q42 -70 103.5 -131.5 q61.5 -61.5 127.5 -96.5 q-43 -39 -65 -74 q-125 82 -219 239 l0 -285 l-94 0 l0 286 q-98 -164 -246 -243 q-27 43 -62 71 q76 34 142.5 96 q66.5 62 111.5 138 l-197 0 l0 84 l251 0 l0 104 l94 0 l0 -104 l253 0 l0 -84 Z" /><glyph glyph-name="cid24138" unicode="&#x6df7;" d="M786 648 l0 75 l-345 0 l0 -75 l345 0 ZM786 499 l0 77 l-345 0 l0 -77 l345 0 ZM877 798 l0 -374 l-523 0 l0 374 l523 0 ZM325 718 l-58 -72 q-55 41 -176 113 l56 64 q119 -67 178 -105 ZM274 449 l-55 -73 q-55 40 -173 110 l53 65 q101 -51 175 -102 ZM255 312 l68 -61 q-85 -169 -178 -318 l-79 63 q87 121 189 316 ZM450 37 l156 32 q4 -47 12 -78 q-237 -56 -266 -73 q-11 56 -33 94 q41 14 41 55 l0 322 l90 0 l0 -111 l159 0 l0 -82 l-159 0 l0 -159 ZM764 18 l88 0 q19 0 25 20.5 q6 20.5 8 92.5 q27 -21 79 -35 q-7 -93 -28.5 -126 q-21.5 -33 -75.5 -33 l-109 0 q-65 0 -87 24 q-22 24 -22 91 l0 333 l90 0 l0 -146 q97 46 158 93 l64 -70 q-85 -53 -222 -105 l0 -104 q0 -22 6 -28.5 q6 -6.5 26 -6.5 Z" /><glyph glyph-name="cid24161" unicode="&#x6e05;" d="M297 719 l-58 -71 q-54 52 -156 109 l55 64 q109 -57 159 -102 ZM258 458 l-56 -73 q-53 50 -165 112 l53 66 q113 -58 168 -105 ZM152 -61 l-84 54 q81 143 150 318 l75 -55 q-68 -173 -141 -317 ZM448 141 l331 0 l0 64 l-331 0 l0 -64 ZM779 333 l-331 0 l0 -62 l331 0 l0 62 ZM867 403 l0 -386 q0 -33 -9 -51.5 q-9 -18.5 -31 -27.5 q-32 -14 -147 -14 q-3 36 -25 80 q31 -2 106 -2 q18 1 18 17 l0 54 l-331 0 l0 -151 l-87 0 l0 481 l506 0 ZM659 521 l290 0 l0 -69 l-663 0 l0 69 l281 0 l0 58 l-220 0 l0 65 l220 0 l0 52 l-245 0 l0 69 l245 0 l0 74 l92 0 l0 -74 l251 0 l0 -69 l-251 0 l0 -52 l226 0 l0 -65 l-226 0 l0 -58 Z" /><glyph glyph-name="cid24497" unicode="&#x6ecb;" d="M308 725 l-57 -74 q-52 49 -160 113 l54 65 q107 -58 163 -104 ZM248 461 l-55 -75 q-55 50 -157 104 l52 67 q104 -52 160 -96 ZM197 313 l71 -52 q-59 -160 -132 -311 l-80 51 q75 136 141 312 ZM963 -40 l-75 -28 q-9 42 -21 79 q-222 -35 -248 -49 q-6 28 -27 80 q15 4 30.5 21.5 q15.5 17.5 40.5 54.5 q41 57 94 160 q-122 -13 -147 -25 q-10 47 -26 78 q17 5 44 47 q54 97 84 203 l-286 0 l45 -18 q-40 -108 -107 -220 l97 8 q33 61 59 126 l78 -38 q-101 -214 -231 -383 l131 18 q-16 60 -30 96 l70 21 q46 -124 62 -236 l-74 -22 q-2 20 -12 73 q-209 -33 -242 -49 q-10 41 -27 81 q24 6 75 76 q40 54 101 161 q-114 -12 -139 -24 q-13 47 -27 78 q19 5 45 48 q55 98 87 204 l-110 0 l0 84 l201 0 q-31 70 -78 141 l77 32 q59 -81 88 -148 l-55 -25 l180 0 q44 87 71 172 l94 -28 q-36 -74 -76 -144 l170 0 l0 -84 l-199 0 l46 -19 q-46 -122 -104 -217 l102 8 q32 66 51 120 l80 -36 q-100 -221 -214 -376 l132 18 q-19 53 -40 96 l71 25 q62 -125 89 -240 Z" /><glyph glyph-name="cid25248" unicode="&#x706b;" d="M815 641 l101 -39 q-93 -195 -145 -277 l-80 34 q73 126 124 282 ZM204 641 l91 -28 q-46 -200 -122 -292 l-92 44 q82 96 123 276 ZM447 829 l104 0 q-2 -253 -20 -371 q45 -179 149 -291 q104 -112 281 -153 q-34 -33 -61 -86 q-152 43 -250 134.5 q-98 91.5 -157 235.5 q-91 -266 -379 -378 q-24 48 -65 78 q65 24 118 55 q53 31 92 65 q39 34 69 76.5 q30 42.5 49.5 83.5 q19.5 41 33 92 q13.5 51 20.5 97 q7 46 10.5 103.5 q3.5 57.5 4.5 106.5 q1 49 1 110 q0 28 0 42 Z" /><glyph glyph-name="cid25407" unicode="&#x70b9;" d="M743 299 l0 157 l-490 0 l0 -157 l490 0 ZM838 542 l0 -329 l-674 0 l0 329 l282 0 l0 297 l95 0 l0 -98 l367 0 l0 -86 l-367 0 l0 -113 l297 0 ZM127 -76 l-86 41 q75 64 131 197 l88 -23 q-53 -138 -133 -215 ZM333 131 l89 8 q24 -111 26 -197 l-94 -12 q0 86 -21 201 ZM537 130 l84 19 q53 -102 76 -193 l-91 -23 q-16 82 -69 197 ZM739 138 l83 31 q94 -121 131 -204 l-89 -36 q-33 85 -125 209 Z" /><glyph glyph-name="cid25498" unicode="&#x70ed;" d="M132 -83 l-88 37 q68 74 127 191 l87 -22 q-57 -123 -126 -206 ZM414 449 l-120 -32 l0 -150 q0 -64 -37 -81 q-31 -16 -137 -16 q-5 42 -27 83 q21 -1 97 -1 q18 0 18 16 l0 125 l-141 -38 l-21 89 q35 8 162 39 l0 134 l-141 0 l0 86 l141 0 l0 134 l86 0 l0 -134 l110 0 l0 -86 l-110 0 l0 -112 l110 28 l10 -84 ZM338 113 l87 9 q22 -110 24 -182 l-91 -13 q-2 95 -20 186 ZM541 115 l87 15 q46 -103 61 -182 l-92 -19 q-14 86 -56 186 ZM753 619 l-116 0 q-8 -120 -27 -199 q81 -50 127 -87 l-47 -75 q-33 28 -107 81 q-48 -113 -159 -178 q-8 16 -25.5 37 q-17.5 21 -32.5 32 q100 57 142 158 q-30 19 -93 57 l45 64 q44 -24 71 -42 q14 65 19 152 l-123 0 l0 79 l126 0 q2 88 2 142 l88 0 q-3 -136 -3 -142 l201 0 q-9 -220 -3.5 -334.5 q5.5 -114.5 35.5 -114.5 q22 0 26 105 q31 -25 71 -36 q-7 -86 -29 -118 q-22 -32 -72 -32 q-44 0 -69.5 30.5 q-25.5 30.5 -35 89 q-9.5 58.5 -12 142.5 q-2.5 84 0.5 189 ZM744 118 l82 36 q90 -113 130 -197 l-87 -41 q-38 90 -125 202 Z" /><glyph glyph-name="cid25574" unicode="&#x7115;" d="M327 658 l75 -27 q-74 -201 -77 -209 l-58 25 q37 98 60 211 ZM86 635 l62 -8 q-4 -152 -41 -262 l-63 25 q34 91 42 245 ZM391 103 l-62 -65 q-25 42 -94 137 q-40 -153 -133 -254 q-23 37 -61 65 q86 97 114 220.5 q28 123.5 28 285.5 l0 339 l83 0 l0 -339 q0 -136 -13 -222 q78 -86 138 -167 ZM527 295 l86 0 q10 46 10 113 l0 106 l-96 0 l0 -219 ZM725 674 l-150 0 q-31 -47 -65 -87 l146 0 q30 31 69 87 ZM793 295 l0 219 l-85 0 l0 -107 q0 -62 -10 -112 l95 0 ZM940 215 l-244 0 q42 -73 112 -130 q70 -57 154 -85 q-29 -26 -57 -73 q-160 64 -260 223 q-80 -136 -267 -229 q-17 29 -59 63 q199 91 267 231 l-210 0 l0 80 l67 0 l0 222 q-30 43 -59 63 q117 103 178 258 l89 -15 q-10 -28 -32 -71 l162 0 l14 4 l59 -39 q-36 -61 -97 -130 l123 0 l0 -292 l60 0 l0 -80 Z" /><glyph glyph-name="cid25644" unicode="&#x7136;" d="M931 691 l-70 -42 q-31 59 -98 135 l67 37 q75 -79 101 -130 ZM128 -80 l-87 36 q72 77 126 192 l87 -23 q-58 -123 -126 -205 ZM473 756 l56 -22 q-43 -214 -148 -353 q-105 -139 -257 -207 q-10 16 -30.5 38 q-20.5 22 -34.5 32 q116 50 199 131 q-53 45 -109 78 l51 49 q66 -38 107 -72 q25 32 51 77 q-61 41 -115 66 l42 53 q50 -21 104 -55 q22 53 36 107 l-148 0 q-79 -148 -181 -237 q-24 31 -62 59 q74 62 133 158 q59 96 87 190 l89 -23 q-25 -64 -29 -73 l141 0 l18 4 ZM338 116 l87 9 q22 -110 24 -183 l-90 -12 q-2 89 -21 186 ZM940 548 l-195 0 q63 -229 213 -307 q-32 -26 -62 -77 q-123 75 -190 245 q-61 -157 -243 -253 q-25 34 -66 65 q222 114 252 327 l-143 0 l0 88 l149 0 l0 1 l0 189 l88 0 l0 -190 l197 0 l0 -88 ZM541 118 l87 14 q42 -93 61 -182 l-91 -18 q-14 82 -57 186 ZM745 121 l82 35 q94 -120 131 -197 l-88 -40 q-34 80 -125 202 Z" /><glyph glyph-name="cid26213" unicode="&#x724c;" d="M174 490 l0 -49 q0 -52 -1 -81 l183 0 l0 -439 l-80 0 l0 360 l-106 0 q-13 -231 -62 -363 q-36 19 -80 30 q65 165 65 493 l0 375 l81 0 l0 -247 l74 0 l0 269 l78 0 l0 -269 l67 0 l0 -79 l-219 0 ZM518 430 l84 0 q17 39 26 87 l-110 0 l0 -87 ZM518 672 l0 -85 l118 0 l0 20 l0 65 l-118 0 ZM827 587 l0 85 l-107 0 l0 -67 l0 -18 l107 0 ZM827 430 l0 87 l-113 0 q-6 -42 -20 -87 l133 0 ZM956 196 l0 -80 l-179 0 l0 -195 l-89 0 l0 195 l-299 0 l0 80 l93 0 q-31 29 -61 48 q83 45 135 112 l-123 0 l0 390 l148 0 q17 52 23 92 l107 -11 q-15 -41 -36 -81 l240 0 l0 -390 l-255 0 q-56 -97 -158 -160 l186 0 l0 145 l89 0 l0 -145 l179 0 Z" /><glyph glyph-name="cid26293" unicode="&#x7279;" d="M387 373 l7 -86 q-17 -6 -49.5 -16.5 q-32.5 -10.5 -46.5 -15.5 l0 -334 l-89 0 l0 307 q-78 -26 -141 -44 l-19 94 q46 11 160 43 l0 230 l-65 0 q-14 -85 -36 -159 q-31 22 -70 37 q38 104 55 334 l75 -15 q-3 -36 -11 -108 l52 0 l0 199 l89 0 l0 -199 l86 0 l0 -89 l-86 0 l0 -205 l89 27 ZM457 208 l68 43 q83 -81 121 -154 l-72 -48 q-35 73 -117 159 ZM957 460 l-115 0 l0 -107 l108 0 l0 -86 l-108 0 l0 -238 q0 -39 -9.5 -60 q-9.5 -21 -34.5 -32 q-38 -16 -161 -16 q-5 45 -27 93 q89 -3 123 -1 q12 0 16.5 4 q4.5 4 4.5 14 l0 236 l-341 0 l0 86 l341 0 l0 107 l-359 0 l0 86 l241 0 l0 110 l-184 0 l0 84 l184 0 l0 100 l88 0 l0 -100 l189 0 l0 -84 l-189 0 l0 -110 l233 0 l0 -86 Z" /><glyph glyph-name="cid26384" unicode="&#x72b6;" d="M924 640 l-76 -46 q-39 81 -112 177 l70 39 q80 -100 118 -170 ZM947 462 l-262 0 q81 -342 287 -461 q-40 -31 -68 -78 q-173 117 -260 388 q-61 -238 -240 -389 q-19 21 -73 58 l0 -57 l-91 0 l0 345 q-108 -100 -154 -139 l-51 78 q79 61 205 175 l0 145 l-75 -48 q-31 73 -118 189 l72 43 q80 -97 121 -180 l0 309 l91 0 l0 -855 q212 177 244 477 l-214 0 l0 91 l219 0 q1 15 1 43 l0 240 l92 0 l0 -240 q0 -28 -1 -43 l275 0 l0 -91 Z" /><glyph glyph-name="cid26727" unicode="&#x7387;" d="M729 293 l-73 -29 q-9 22 -24 51 q-185 -18 -238 -25 q-53 -7 -71 -15 q-6 31 -25 78 q27 3 82 50 q32 23 97 88 q-109 -8 -134 -18 q-11 38 -26 75 q18 4 45 34 q23 22 65 87 l-353 0 l0 85 l391 0 q-11 23 -40 69 l93 22 q36 -50 57 -91 l362 0 l0 -85 l-415 0 q-49 -69 -83 -106 l111 5 q25 28 66 81 l72 -42 q-110 -131 -240 -236 l143 11 q-16 26 -41 58 l68 26 q83 -101 111 -173 ZM934 318 l-68 -56 q-68 64 -195 138 l65 51 q126 -71 198 -133 ZM820 640 l78 -46 q-58 -61 -145 -124 l-68 44 q85 65 135 126 ZM297 527 l-66 -56 q-47 51 -149 115 l63 51 q104 -62 152 -110 ZM300 452 l18 -69 q-142 -77 -218 -113 l-47 75 q96 37 247 107 ZM948 205 l0 -86 l-399 0 l0 -198 l-98 0 l0 198 l-399 0 l0 86 l399 0 l0 75 l98 0 l0 -75 l399 0 Z" /><glyph glyph-name="cid26784" unicode="&#x73af;" d="M241 182 l95 32 l15 -84 q-166 -59 -293 -101 l-22 87 q76 22 119 37 l0 252 l-98 0 l0 86 l98 0 l0 199 l-112 0 l0 85 l303 0 l0 -85 l-105 0 l0 -199 l83 0 l0 -86 l-83 0 l0 -223 ZM948 272 l-78 -58 q-51 95 -184 256 l0 -546 l-92 0 l0 480 q-80 -124 -169 -204 q-28 35 -73 74 q88 71 160.5 179.5 q72.5 108.5 120.5 237.5 l-242 0 l0 88 l554 0 l0 -88 l-210 0 q-26 -68 -49 -119 l0 -81 l59 41 q142 -160 203 -260 Z" /><glyph glyph-name="cid26785" unicode="&#x73b0;" d="M519 711 l0 -444 l-88 0 l0 525 l460 0 l0 -525 l-92 0 l0 444 l-280 0 ZM394 209 l11 -85 q-146 -44 -345 -99 l-20 89 q31 7 143 36 l0 255 l-114 0 l0 86 l114 0 l0 199 l-128 0 l0 85 l337 0 l0 -85 l-120 0 l0 -199 l99 0 l0 -86 l-99 0 l0 -230 q40 10 122 34 ZM773 14 l69 0 q22 0 29.5 30 q7.5 30 11.5 134 q31 -26 73 -36 q-8 -122 -28 -160 q-20 -38 -87 -38 l-82 0 q-57 0 -80.5 20.5 q-23.5 20.5 -23.5 74.5 l0 162 q-73 -182 -264 -282 q-29 45 -58 66 q72 37 125 85 q53 48 82.5 93.5 q29.5 45.5 46.5 101 q17 55.5 22 99.5 q5 44 5 97 l0 176 l86 0 l0 -178 q0 -99 -21 -182 l62 0 l0 -229 q0 -20 7 -27 q7 -7 25 -7 Z" /><glyph glyph-name="cid26868" unicode="&#x73ed;" d="M391 259 l-64 47 q44 83 46 330 l72 -8 q-1 -90 -3.5 -141.5 q-2.5 -51.5 -15 -118.5 q-12.5 -67 -35.5 -109 ZM346 159 l9 -83 q-252 -62 -305 -74 l-16 87 q13 2 55.5 11.5 q42.5 9.5 69.5 14.5 l0 253 l-101 0 l0 83 l101 0 l0 236 l-111 0 l0 85 l311 0 l0 -85 l-115 0 l0 -236 l93 0 l0 -83 l-93 0 l0 -233 l102 24 ZM580 839 l0 -427 q0 -67 -4 -117.5 q-4 -50.5 -17 -108 q-13 -57.5 -35.5 -101.5 q-22.5 -44 -62.5 -87 q-40 -43 -95 -77 q-28 45 -58 65 q49 30 84 68 q35 38 55.5 76 q20.5 38 32 87.5 q11.5 49.5 15 93.5 q3.5 44 3.5 102 l0 426 l82 0 ZM821 41 l139 0 l0 -86 l-393 0 l0 86 l165 0 l0 291 l-104 0 l0 84 l104 0 l0 273 l-119 0 l0 85 l329 0 l0 -85 l-121 0 l0 -273 l106 0 l0 -84 l-106 0 l0 -291 Z" /><glyph glyph-name="cid26906" unicode="&#x7406;" d="M357 213 l16 -88 q-170 -59 -315 -106 l-22 95 q86 24 128 37 l0 254 l-108 0 l0 86 l108 0 l0 199 l-118 0 l0 86 l318 0 l0 -86 l-111 0 l0 -199 l95 0 l0 -86 l-95 0 l0 -226 q92 30 104 34 ZM492 533 l0 -110 l131 0 l0 110 l-131 0 ZM492 715 l0 -108 l131 0 l0 108 l-131 0 ZM830 607 l0 108 l-128 0 l0 -108 l128 0 ZM830 423 l0 110 l-128 0 l0 -110 l128 0 ZM710 38 l254 0 l0 -85 l-639 0 l0 85 l290 0 l0 119 l-217 0 l0 84 l217 0 l0 103 l-208 0 l0 450 l512 0 l0 -450 l-209 0 l0 -103 l222 0 l0 -84 l-222 0 l0 -119 Z" /><glyph glyph-name="cid27440" unicode="&#x751f;" d="M550 42 l396 0 l0 -90 l-888 0 l0 90 l396 0 l0 230 l-285 0 l0 89 l285 0 l0 200 l-222 0 q-49 -95 -99 -155 q-37 31 -85 56 q118 124 181 362 l96 -22 q-21 -73 -52 -150 l181 0 l0 186 l96 0 l0 -186 l348 0 l0 -91 l-348 0 l0 -200 l311 0 l0 -89 l-311 0 l0 -230 Z" /><glyph glyph-name="cid27453" unicode="&#x7528;" d="M554 306 l242 0 l0 148 l-242 0 l0 -148 ZM240 306 l221 0 l0 148 l-217 0 l0 -40 q0 -59 -4 -108 ZM461 682 l-217 0 l0 -141 l217 0 l0 141 ZM796 541 l0 141 l-242 0 l0 -141 l242 0 ZM889 771 l0 -733 q0 -41 -11 -63.5 q-11 -22.5 -38 -32.5 q-43 -18 -187 -16 q-7 41 -31 90 q43 -2 149 -2 q14 0 19.5 5.5 q5.5 5.5 5.5 19.5 l0 179 l-242 0 l0 -286 l-93 0 l0 286 l-230 0 q-28 -196 -125 -303 q-11 14 -34 33.5 q-23 19.5 -39 27.5 q51 56 79 139 q28 83 34 147.5 q6 64.5 6 152.5 l0 356 l737 0 Z" /><glyph glyph-name="cid27471" unicode="&#x7535;" d="M220 275 l223 0 l0 122 l-223 0 l0 -122 ZM443 604 l-223 0 l0 -122 l223 0 l0 122 ZM771 604 l-229 0 l0 -122 l229 0 l0 122 ZM542 275 l229 0 l0 122 l-229 0 l0 -122 ZM609 29 l190 0 q39 0 52 29.5 q13 29.5 19 124.5 q35 -26 92 -40 q-11 -119 -42.5 -163 q-31.5 -44 -113.5 -44 l-206 0 q-93 0 -125 33.5 q-32 33.5 -32 132.5 l0 82 l-223 0 l0 -59 l-96 0 l0 570 l319 0 l0 140 l99 0 l0 -140 l324 0 l0 -511 l-324 0 l0 -84 q0 -45 12 -58 q12 -13 55 -13 Z" /><glyph glyph-name="cid27743" unicode="&#x75d8;" d="M188 467 l-74 -39 q-14 81 -73 193 l69 34 q60 -107 78 -188 ZM282 651 l0 -214 q0 -355 -159 -514 q-9 13 -30.5 33 q-21.5 20 -35.5 30 q98 100 125 274 q-23 -14 -65.5 -38.5 q-42.5 -24.5 -57.5 -33.5 l-30 87 q54 23 162 78 q2 30 2 85 l0 297 l340 0 q-16 43 -42 82 l89 25 q37 -51 58 -107 l315 0 l0 -84 l-671 0 ZM932 581 l0 -76 l-605 0 l0 76 l605 0 ZM461 365 l0 -109 l320 0 l0 109 l-320 0 ZM871 184 l-495 0 l0 253 l495 0 l0 -253 ZM761 24 l199 0 l0 -79 l-688 0 l0 79 l188 0 q-8 58 -46 132 l78 23 q39 -65 52 -128 l-81 -27 l209 0 q36 63 70 154 l89 -23 q-41 -84 -70 -131 Z" /><glyph glyph-name="cid28088" unicode="&#x7684;" d="M171 106 l186 0 l0 221 l-186 0 l0 -221 ZM357 598 l-186 0 l0 -190 l186 0 l0 190 ZM640 684 l290 0 q0 -32 -1 -44 q-11 -349 -24 -484.5 q-13 -135.5 -42 -171.5 q-18 -23 -37 -33 q-19 -10 -50 -14 q-48 -5 -151 0 q-4 50 -30 90 q77 -6 147 -6 q29 0 42 17 q23 24 35.5 147 q12.5 123 22.5 414 l-236 0 q-44 -100 -91 -168 q-29 27 -73 52 l0 -459 l-271 0 l0 -76 l-85 0 l0 731 l112 0 q26 89 35 162 l101 -17 q-27 -79 -52 -145 l160 0 l0 -189 q98 128 149 351 l90 -21 q-21 -82 -41 -136 ZM768 233 l-78 -49 q-40 87 -146 231 l73 41 q111 -145 151 -223 Z" /><glyph glyph-name="cid28156" unicode="&#x76ae;" d="M738 365 l-331 0 q60 -119 164 -203 q108 82 167 203 ZM238 463 l0 -11 l242 0 l0 167 l-242 0 l0 -156 ZM802 455 l62 -33 q-65 -190 -214 -314 q130 -73 308 -103 q-36 -39 -59 -88 q-197 41 -332 131 q-136 -83 -319 -126 q-7 19 -23.5 45.5 q-16.5 26.5 -30.5 40.5 q175 35 295 101 q-111 102 -179 256 l-75 0 q-16 -291 -129 -440 q-34 38 -76 60 q69 92 91.5 214 q22.5 122 22.5 265 l0 244 l336 0 l0 131 l95 0 l0 -131 l267 0 l16 4 l72 -18 q-47 -138 -90 -215 l-86 24 q23 45 48 116 l-227 0 l0 -167 l210 0 l17 3 Z" /><glyph glyph-name="cid28159" unicode="&#x76b1;" d="M357 666 l-123 0 q-45 -103 -97 -178 l141 0 q46 83 79 178 ZM411 750 l60 -37 q-51 -126 -105 -225 l86 0 l0 -549 l-86 0 l0 43 l-284 0 l0 86 l284 0 l0 130 l-259 0 l0 85 l259 0 l0 121 l-274 0 l0 24 q-30 40 -65 60 q121 143 173 351 l91 -13 q-15 -48 -27 -81 l133 0 l14 5 ZM834 383 l-166 0 q32 -109 90 -197 q49 86 76 197 ZM694 616 l-84 0 l0 -153 l84 0 l0 153 ZM877 465 l54 -15 q-32 -199 -117 -336 q73 -79 158 -114 q-33 -28 -58 -72 q-81 40 -151 118 q-64 -78 -153 -128 q-27 47 -53 70 q87 42 154 127 q-65 96 -103 219 q-12 -277 -82 -423 q-11 14 -33.5 34 q-22.5 20 -36.5 27 q67 149 67 470 l0 256 l171 0 l0 131 l83 0 l0 -131 l111 0 l12 3 l60 -13 q-21 -111 -46 -185 l-70 18 q7 25 19 95 l-86 0 l0 -153 l85 0 l15 2 Z" /><glyph glyph-name="cid28303" unicode="&#x770b;" d="M749 271 l0 57 l-400 0 l0 -57 l400 0 ZM349 29 l400 0 l0 61 l-400 0 l0 -61 ZM349 209 l0 -57 l400 0 l0 57 l-400 0 ZM938 458 l-545 0 q-24 -45 -33 -58 l482 0 l0 -482 l-93 0 l0 38 l-400 0 l0 -38 l-89 0 l0 351 q-76 -81 -168 -134 q-22 40 -57 73 q153 87 252 250 l-225 0 l0 74 l265 0 q7 13 28 60 l-222 0 l0 73 l247 0 q7 19 17 57 q-147 -5 -259 -5 q-2 37 -18 71 q466 2 699 45 l56 -67 q-149 -26 -375 -39 q-4 -14 -20 -62 l402 0 l0 -73 l-427 0 q-13 -33 -26 -60 l509 0 l0 -74 Z" /><glyph glyph-name="cid28331" unicode="&#x771f;" d="M287 244 l0 -59 l426 0 l0 59 l-426 0 ZM713 567 l-426 0 l0 -55 l426 0 l0 55 ZM713 351 l-426 0 l0 -50 l426 0 l0 50 ZM713 407 l0 48 l-426 0 l0 -48 l426 0 ZM941 185 l0 -77 l-880 0 l0 77 l137 0 l0 444 l238 0 q7 40 10 54 l-359 0 l0 79 l370 0 q3 20 8 78 l98 -9 l-12 -69 l365 0 l0 -79 l-379 0 q-8 -39 -10 -54 l279 0 l0 -444 l135 0 ZM342 98 l79 -53 q-56 -36 -139.5 -70 q-83.5 -34 -159.5 -54 q-34 38 -64 64 q76 19 157 51 q81 32 127 62 ZM582 42 l58 61 q180 -54 307 -117 l-75 -63 q-118 64 -290 119 Z" /><glyph glyph-name="cid28668" unicode="&#x77e5;" d="M513 355 l-183 0 l-9 -57 q55 -54 194 -212 l-64 -80 q-57 87 -153 197 q-57 -177 -198 -280 q-10 15 -31 38 q-21 23 -35 33 q173 123 202 361 l-190 0 l0 88 l196 0 l0 30 l0 149 l-61 0 q-31 -81 -74 -145 q-26 24 -76 54 q78 100 119 307 l89 -17 q-13 -61 -27 -112 l273 0 l0 -87 l-149 0 l0 -150 l0 -29 l177 0 l0 -88 ZM632 112 l182 0 l0 553 l-182 0 l0 -553 ZM542 753 l366 0 l0 -792 l-94 0 l0 64 l-182 0 l0 -75 l-90 0 l0 803 Z" /><glyph glyph-name="cid28804" unicode="&#x7840;" d="M297 126 l0 276 l-105 0 l0 -276 l105 0 ZM52 705 l0 84 l345 0 l0 -84 l-142 0 q-23 -115 -59 -221 l178 0 l0 -440 l-182 0 l0 -77 l-77 0 l0 337 q-23 -38 -47 -68 q-3 18 -15 52 q-12 34 -22 53 q91 123 137 364 l-116 0 ZM841 353 l90 -1 l0 -424 l-90 0 l0 53 l-421 0 l0 372 l94 0 l0 -283 l116 0 l0 342 l-187 0 l0 331 l85 0 l0 -249 l102 0 l0 339 l92 0 l0 -339 l97 0 l0 249 l88 0 l0 -331 l-185 0 l0 -342 l119 0 l0 283 Z" /><glyph glyph-name="cid28861" unicode="&#x786c;" d="M310 126 l0 276 l-115 0 l0 -276 l115 0 ZM388 44 l-193 0 l0 -77 l-79 0 l0 333 q-28 -45 -46 -67 q-12 58 -37 108 q89 120 137 364 l-121 0 l0 84 l343 0 l0 -84 l-134 0 q-29 -136 -59 -221 l189 0 l0 -440 ZM514 325 l117 0 l0 30 l0 54 l-117 0 l0 -84 ZM514 559 l0 -82 l117 0 l0 82 l-117 0 ZM844 559 l-124 0 l0 -82 l124 0 l0 82 ZM844 325 l0 84 l-124 0 l0 -54 l0 -30 l124 0 ZM929 253 l-215 0 q-15 -105 -61 -172 q111 -65 313 -82 q-28 -28 -54 -80 q-201 25 -315 98 q-69 -62 -177 -98 q-27 46 -55 73 q105 27 164 77 q-62 58 -101 141 l79 18 q29 -58 76 -99 q32 48 42 124 l-193 0 l0 378 l199 0 l0 82 l-217 0 l0 83 l536 0 l0 -83 l-230 0 l0 -82 l209 0 l0 -378 Z" /><glyph glyph-name="cid28917" unicode="&#x7891;" d="M285 126 l0 276 l-93 0 l0 -276 l93 0 ZM52 705 l0 84 l332 0 l0 -84 l-129 0 q-25 -125 -59 -221 l166 0 l0 -440 l-170 0 l0 -77 l-77 0 l0 337 q-23 -38 -47 -68 q-3 18 -15 52 q-12 34 -22 53 q91 123 137 364 l-116 0 ZM517 429 l78 0 q17 34 26 87 l-104 0 l0 -87 ZM517 671 l0 -85 l112 0 l0 21 l0 64 l-112 0 ZM828 586 l0 85 l-114 0 l0 -66 l0 -19 l114 0 ZM828 429 l0 87 l-120 0 q-6 -42 -20 -87 l140 0 ZM952 196 l0 -80 l-175 0 l0 -195 l-89 0 l0 195 l-301 0 l0 80 l89 0 q-29 27 -60 48 q81 45 134 111 l-118 0 l0 390 l150 0 q16 49 24 93 l106 -11 q-15 -41 -36 -82 l240 0 l0 -390 l-262 0 q-53 -94 -158 -159 l192 0 l0 145 l89 0 l0 -145 l175 0 Z" /><glyph glyph-name="cid29209" unicode="&#x793a;" d="M849 769 l0 -92 l-698 0 l0 92 l698 0 ZM222 352 l97 -26 q-34 -89 -87.5 -172.5 q-53.5 -83.5 -110.5 -142.5 q-36 29 -86 56 q57 51 107 127 q50 76 80 158 ZM676 316 l87 37 q133 -182 173 -302 l-95 -42 q-17 60 -64 146 q-47 86 -101 161 ZM62 530 l877 0 l0 -92 l-386 0 l0 -403 q0 -42 -12 -64.5 q-12 -22.5 -41 -32.5 q-45 -17 -188 -17 q-8 47 -33 98 q116 -4 148 -2 q14 1 19.5 5 q5.5 4 5.5 15 l0 401 l-390 0 l0 92 Z" /><glyph glyph-name="cid29483" unicode="&#x79cd;" d="M290 473 l0 -19 q21 -21 69 -77.5 q48 -56.5 61 -75.5 l-54 -74 q-13 29 -76 128 l0 -432 l-90 0 l0 406 q-62 -151 -129 -235 q-13 35 -45 86 q44 50 88 131.5 q44 81.5 72 161.5 l-140 0 l0 87 l154 0 l0 134 q-31 -6 -126 -20 q-7 36 -26 72 q208 33 317 81 l54 -76 q-49 -19 -129 -38 l0 -153 l120 0 l0 -87 l-120 0 ZM735 331 l114 0 l0 214 l-114 0 l0 -214 ZM525 331 l117 0 l0 214 l-117 0 l0 -214 ZM735 635 l205 0 l0 -448 l-91 0 l0 54 l-114 0 l0 -318 l-93 0 l0 318 l-117 0 l0 -61 l-88 0 l0 455 l205 0 l0 201 l93 0 l0 -201 Z" /><glyph glyph-name="cid29488" unicode="&#x79d1;" d="M713 635 l-65 -59 q-46 65 -155 145 l61 53 q108 -74 159 -139 ZM686 374 l-63 -61 q-24 32 -72 74.5 q-48 42.5 -95 74.5 l59 54 q119 -79 171 -142 ZM428 300 l-56 -73 q-20 44 -78 132 l0 -437 l-90 0 l0 405 q-61 -150 -128 -233 q-11 30 -45 86 q44 50 88 131.5 q44 81.5 72 161.5 l-147 0 l0 87 l160 0 l0 134 q-31 -6 -126 -20 q-5 32 -26 72 q209 34 318 81 l53 -76 q-49 -19 -129 -38 l0 -153 l140 0 l0 -87 l-140 0 l0 -14 q21 -22 70 -80 q49 -58 64 -79 ZM964 199 l-123 -21 l0 -256 l-92 0 l0 240 l-315 -53 l-14 89 l329 55 l0 586 l92 0 l0 -571 l109 18 l14 -87 Z" /><glyph glyph-name="cid29584" unicode="&#x7a0b;" d="M810 583 l0 145 l-288 0 l0 -145 l288 0 ZM900 807 l0 -303 l-464 0 l0 303 l464 0 ZM401 285 l-57 -78 q-19 45 -67 132 l0 -418 l-86 0 l0 387 q-51 -139 -111 -222 q-14 41 -47 91 q40 51 79.5 132 q39.5 81 64.5 161 l-119 0 l0 86 l133 0 l0 144 q-45 -9 -101 -18 q-7 30 -26 71 q176 36 265 79 l57 -75 q-42 -17 -109 -36 l0 -165 l116 0 l0 -86 l-116 0 l0 -20 q85 -104 124 -165 ZM721 33 l234 0 l0 -86 l-576 0 l0 86 l250 0 l0 118 l-185 0 l0 82 l185 0 l0 113 l-209 0 l0 83 l513 0 l0 -83 l-212 0 l0 -113 l189 0 l0 -82 l-189 0 l0 -118 Z" /><glyph glyph-name="cid29992" unicode="&#x7acb;" d="M565 688 l-97 -28 q-10 56 -48 163 l92 23 q37 -98 53 -158 ZM905 656 l0 -94 l-807 0 l0 94 l807 0 ZM418 115 l-99 -25 q-20 159 -90 407 l94 23 q67 -225 95 -405 ZM639 55 l307 0 l0 -94 l-891 0 l0 94 l484 0 q38 90 77 221 q39 131 62 242 l105 -20 q-67 -252 -144 -443 Z" /><glyph glyph-name="cid30182" unicode="&#x7b2c;" d="M270 687 l-44 0 q-49 -76 -102 -128 q-22 18 -78 45 q108 91 163 240 l85 -21 q-6 -16 -29 -66 l245 0 l0 -70 l-147 0 q28 -55 39 -87 l-82 -30 q-11 43 -50 117 ZM446 329 l-198 0 q-3 -30 -11 -78 l209 0 l0 78 ZM538 484 l0 -78 l235 0 l0 78 l-235 0 ZM538 251 l366 0 q-1 -23 -3 -36 q-9 -104 -20 -153.5 q-11 -49.5 -30 -68.5 q-25 -26 -69 -29 q-53 -4 -125 0 q-2 43 -26 85 q67 -7 108 -5 q26 0 35 8 q18 19 30 120 l-266 0 l0 -250 l-92 0 l0 212 q-132 -139 -320 -211 q-35 53 -60 73 q83 25 165.5 72.5 q82.5 47.5 142.5 103.5 l-241 0 q22 97 36 234 l277 0 l0 78 l-312 0 l0 77 l730 0 l0 -232 l-326 0 l0 -78 ZM664 758 l285 0 l0 -70 l-162 0 q36 -43 55 -85 l-80 -33 q-23 54 -76 118 l-55 0 q-39 -73 -86 -124 q-32 23 -81 48 q89 83 134 232 l90 -20 q-9 -29 -24 -66 Z" /><glyph glyph-name="cid30423" unicode="&#x7ba1;" d="M258 695 l-55 0 q-34 -64 -81 -116 q-46 28 -80 40 q82 82 126 225 l91 -17 q-11 -33 -25 -65 l254 0 l0 -67 l-139 0 q30 -44 43 -80 l-79 -28 q-13 43 -55 108 ZM756 100 l-455 0 l0 -78 l455 0 l0 78 ZM705 368 l-404 0 l0 -70 l404 0 l0 70 ZM301 229 l0 -59 l547 0 l0 -248 l-92 0 l0 29 l-455 0 l0 -31 l-94 0 l0 518 l588 0 l0 -209 l-494 0 ZM433 622 l82 17 q25 -36 40 -76 l362 0 l0 -169 l-94 0 l0 96 l-640 0 l0 -96 l-89 0 l0 169 l368 0 q-16 36 -29 59 ZM656 762 l284 0 l0 -67 l-161 0 q38 -49 51 -76 l-77 -34 q-17 41 -71 110 l-57 0 q-29 -51 -58 -82 q-29 22 -76 42 q65 65 98 188 l90 -16 q-7 -26 -23 -65 Z" /><glyph glyph-name="cid31029" unicode="&#x7cbe;" d="M324 780 l75 -17 q-53 -168 -77 -224 l-57 17 q35 98 59 224 ZM166 556 l-67 -16 q-7 100 -50 221 l62 14 q42 -105 55 -219 ZM261 420 l0 -14 q18 -21 67.5 -90 q49.5 -69 62.5 -92 l-59 -71 q-15 35 -71 139 l0 -369 l-83 0 l0 334 q-48 -138 -103 -219 q-10 34 -45 95 q78 103 133 287 l-120 0 l0 87 l135 0 l0 329 l83 0 l0 -329 l104 0 l0 -87 l-104 0 ZM540 141 l268 0 l0 63 l-268 0 l0 -63 ZM808 330 l-268 0 l0 -63 l268 0 l0 63 ZM895 399 l0 -388 q0 -60 -37 -75 q-31 -14 -135 -14 q-6 35 -26 76 q40 -2 94 -2 q17 0 17 15 l0 67 l-268 0 l0 -156 l-86 0 l0 477 l441 0 ZM713 519 l244 0 l0 -69 l-562 0 l0 69 l230 0 l0 57 l-177 0 l0 66 l177 0 l0 51 l-201 0 l0 68 l201 0 l0 76 l88 0 l0 -76 l218 0 l0 -68 l-218 0 l0 -51 l197 0 l0 -66 l-197 0 l0 -57 Z" /><glyph glyph-name="cid31161" unicode="&#x7cfb;" d="M270 222 l94 -33 q-89 -119 -221 -212 q-35 35 -81 62 q59 34 115 83.5 q56 49.5 93 99.5 ZM783 300 l-228 -17 l0 -251 q0 -37 -10.5 -57.5 q-10.5 -20.5 -37.5 -30.5 q-39 -15 -162 -15 q-9 48 -35 91 q38 -2 79.5 -2.5 q41.5 -0.5 50.5 0.5 q12 1 16 4 q4 3 4 12 l0 242 q-182 -14 -241 -21 q-59 -7 -82 -16 q-20 64 -28 84 q44 6 138 54 q65 30 174 96 q-205 -14 -235 -25 q-9 40 -26 82 q21 3 74 38 q66 44 147 125 q-130 -10 -253 -15 q-3 40 -23 81 q456 21 687 76 l67 -76 q-147 -34 -349 -55 q-100 -99 -192 -164 l224 12 q87 60 150 112 l69 -60 q-194 -150 -416 -258 l378 25 q-47 49 -70 71 l71 37 q133 -123 198 -223 l-73 -45 q-28 46 -66 89 ZM628 178 l75 49 q63 -45 129 -100.5 q66 -55.5 103 -95.5 l-81 -55 q-73 85 -226 202 Z" /><glyph glyph-name="cid31250" unicode="&#x7d27;" d="M192 777 l0 -296 l-84 0 l0 296 l84 0 ZM286 122 l86 -34 q-100 -91 -241 -157 q-44 47 -70 64 q138 51 225 127 ZM631 74 l67 47 q143 -71 229 -137 l-72 -52 q-86 70 -224 142 ZM777 722 l-201 0 q36 -62 94 -109 q68 49 107 109 ZM842 806 l55 -22 q-46 -131 -154 -219 q88 -46 200 -64 q-33 -32 -58 -81 q-126 28 -221 92 q-93 -51 -215 -79 q-50 -37 -109 -71 l175 4 q58 30 119 69 l63 -65 q-141 -83 -313 -150 l343 17 q-29 24 -66 49 l63 44 q57 -38 114 -85 q57 -47 88 -84 l-68 -50 q-17 24 -53 58 l-241 -14 l0 -140 q0 -34 -10 -51.5 q-10 -17.5 -36 -26.5 q-37 -13 -155 -13 q-8 35 -33 80 q53 -2 120 -2 q12 1 16 4 q4 3 4 12 l0 132 q-191 -11 -251.5 -16.5 q-60.5 -5.5 -85.5 -14.5 q-12 56 -25 86 q38 3 128 36 q57 20 122 50 q-130 -6 -159 -14 q-7 33 -27 81 q22 2 62 25 q38 19 99 64 l-56 0 l0 374 l84 0 l0 -351 q17 13 31 28 l38 -27 q-13 24 -27 38 q110 21 192 61 q-63 62 -103 152 l-58 0 l0 81 l393 0 l15 3 Z" /><glyph glyph-name="cid32036" unicode="&#x7ea2;" d="M55 -31 l-17 95 q148 27 351 71 l10 -88 q-54 -12 -115.5 -26 q-61.5 -14 -129.5 -29.5 q-68 -15.5 -99 -22.5 ZM204 298 l197 28 q-3 -37 4 -81 q-200 -32 -257.5 -43 q-57.5 -11 -76.5 -22 q-15 53 -31 90 q29 6 81 64 q33 29 95 111 q-128 -14 -152 -26 q-11 44 -32 90 q21 5 61 60 q24 33 68.5 114 q44.5 81 72.5 158 l93 -39 q-72 -155 -163 -280 l113 10 q26 36 65 104 l82 -52 q-101 -160 -220 -286 ZM730 76 l224 0 l0 -93 l-545 0 l0 93 l220 0 l0 581 l-206 0 l0 93 l510 0 l0 -93 l-203 0 l0 -581 Z" /><glyph glyph-name="cid32041" unicode="&#x7ea7;" d="M210 311 l172 48 q-1 -37 5 -80 q-187 -55 -244.5 -74.5 q-57.5 -19.5 -75.5 -32.5 q-11 40 -29 83 q29 6 78 65 q37 41 95 126 q-126 -16 -150 -28 q-12 46 -29 85 q20 6 59 61 q26 38 67.5 119 q41.5 81 67.5 160 l85 -42 q-71 -161 -160 -285 l113 12 q22 34 61 108 l76 -48 q-90 -153 -191 -277 ZM385 190 l17 -80 q-48 -20 -164.5 -67 q-116.5 -47 -168.5 -68 l-23 92 q87 29 339 123 ZM731 689 l-132 0 q-7 -119 -16 -206 q52 -158 140 -279 q67 95 102 228 l-167 0 q41 125 73 257 ZM873 516 l57 -23 q-43 -211 -148 -360 q84 -88 184 -134 q-39 -35 -61 -76 q-99 52 -180 139 q-78 -87 -183 -143 q-9 16 -29 38 q-20 22 -35 33 q109 52 190 142 q-59 79 -107 184 q-47 -257 -156 -398 q-28 28 -81 57 q92 106 132 281 q40 175 51 433 l-105 0 l0 87 l444 0 q-50 -188 -73 -264 l84 0 l16 4 Z" /><glyph glyph-name="cid32053" unicode="&#x7eb3;" d="M59 -25 l-16 88 q108 21 334 73 l8 -78 l-326 -83 ZM149 513 l114 11 q32 51 60 107 l70 -43 q-91 -163 -202 -294 l184 32 q-4 -44 -2 -76 q-181 -36 -233.5 -48.5 q-52.5 -12.5 -68.5 -22.5 q-8 34 -28 76 q27 6 77 66 q33 34 93 125 q-130 -18 -149 -28 q-7 30 -27 82 q20 5 55 60 q24 38 64.5 120.5 q40.5 82.5 64.5 160.5 l81 -39 q-66 -159 -153 -289 ZM833 539 l-122 0 q-4 -44 -14 -96 q93 -145 136 -230 l0 326 ZM496 539 l0 -331 q102 130 126 331 l-126 0 ZM920 623 l0 -590 q0 -71 -42 -89 q-36 -17 -158 -17 q-5 42 -27 88 q26 -1 120 -1 q20 1 20 20 l0 146 l-65 -38 q-28 62 -101 190 q-41 -119 -118 -207 q-15 16 -53 41 l0 -244 l-86 0 l0 701 l217 0 q2 27 2 80 l0 135 l88 0 l0 -136 q0 -52 -1 -79 l204 0 Z" /><glyph glyph-name="cid32059" unicode="&#x7eb9;" d="M375 153 l12 -76 q-154 -47 -320 -96 l-18 87 q60 14 326 85 ZM784 560 l-238 0 q39 -195 124 -323 q81 122 114 323 ZM956 560 l-78 0 q-42 -251 -149 -398 q99 -103 245 -151 q-32 -29 -60 -78 q-146 52 -246 158 q-104 -104 -274 -166 q-28 47 -61 78 q176 55 277 159 q-102 147 -154 398 l-72 0 l0 10 q-83 -147 -187 -272 l176 31 q-5 -40 -1 -81 q-270 -52 -301 -70 q-11 44 -27 79 q27 5 74 62 q36 40 92 125 q-125 -15 -144 -26 q-13 51 -30 87 q21 4 56 60 q22 33 62 116 q40 83 64 160 l88 -40 q-67 -161 -154 -288 l108 10 q34 56 51 93 l73 -43 l0 77 l275 0 q-30 76 -93 159 l79 31 q72 -95 103 -165 l-59 -25 l267 0 l0 -90 Z" /><glyph glyph-name="cid32065" unicode="&#x7ebf;" d="M892 739 l-55 -57 q-48 45 -135 92 l54 49 q85 -40 136 -84 ZM210 297 l179 32 q-4 -49 -1 -79 q-272 -54 -305 -71 q-9 38 -28 82 q30 8 76 66 q28 26 91 117 q-125 -15 -145 -26 q-14 52 -30 86 q23 7 58 60 q23 32 64 113.5 q41 81.5 66 158.5 l87 -42 q-70 -159 -155 -277 l108 9 q25 38 61 107 l76 -47 q-87 -154 -202 -289 ZM389 158 l14 -77 q-146 -48 -328 -105 l-19 88 q72 18 333 94 ZM872 349 l77 -35 q-69 -111 -185 -202 q42 -100 93 -100 q18 0 26.5 23 q8.5 23 11.5 86 q24 -30 67 -51 q-11 -86 -35.5 -117 q-24.5 -31 -79.5 -31 q-95 0 -159 136 q-108 -71 -251 -121 q-25 44 -57 76 q152 46 277 126 q-28 88 -45 203 l-185 -34 l-14 83 l187 35 q-8 73 -11 116 l-140 -21 l-16 84 l150 22 q-6 105 -6 214 l93 0 q-2 -109 4 -200 l226 34 l16 -82 l-237 -37 q3 -42 11 -114 l238 44 l14 -81 l-241 -45 q13 -86 34 -163 q86 70 137 152 Z" /><glyph glyph-name="cid32069" unicode="&#x7ec3;" d="M68 418 l0 4 q-1 -1 -1 -4 q-9 44 -29 85 q19 5 52 62 q19 32 53.5 116 q34.5 84 54.5 163 l86 -38 q-52 -157 -135 -293 l88 8 q25 47 50 104 l77 -44 q-81 -162 -171 -282 l159 30 q-4 -45 0 -78 q-244 -53 -277 -73 l0 1 q-12 45 -28 82 q25 5 68 63 q30 38 78 118 q-102 -13 -125 -24 ZM337 171 l16 -70 q-54 -24 -151 -66 q-97 -42 -134 -58 l-22 91 q64 20 291 103 ZM464 236 l86 -25 q-73 -154 -160 -242 q-32 30 -65 49 q42 42 80 102.5 q38 60.5 59 115.5 ZM501 371 l124 0 l0 103 l-83 0 q-19 -49 -41 -103 ZM911 287 l-196 0 l0 -264 q0 -67 -40 -84 q-35 -16 -147 -16 q-7 42 -27 84 q83 -2 106 0 q10 0 14 3.5 q4 3.5 4 13.5 l0 263 l-121 0 q-76 0 -90 -16 q-14 52 -29 81 q22 7 57 90 q9 20 12 32 l-72 0 l0 85 l101 0 q17 52 25 86 l-143 0 l0 85 l166 0 q15 58 24 115 l92 -15 q-8 -38 -25 -100 l307 0 l0 -85 l-330 0 q-18 -58 -28 -86 l144 0 l0 -188 l196 0 l0 -84 ZM769 201 l73 33 q76 -125 120 -218 l-78 -40 q-40 93 -115 225 Z" /><glyph glyph-name="cid32070" unicode="&#x7ec4;" d="M208 296 l199 35 q-4 -48 -1 -76 q-296 -59 -326 -76 q-9 39 -27 80 q26 5 79 64 q37 37 99 124 q-132 -17 -158 -28 q-14 49 -29 84 q14 3 27 17 q13 14 33 43 q24 33 67.5 116 q43.5 83 70.5 161 l84 -39 q-70 -157 -164 -286 l124 11 q37 58 63 105 l72 -45 q-103 -168 -213 -290 ZM395 147 l9 -78 q-136 -37 -335 -88 l-16 88 q114 24 342 78 ZM568 201 l0 -176 l214 0 l0 176 l-214 0 ZM782 705 l-214 0 l0 -167 l214 0 l0 167 ZM568 455 l0 -172 l214 0 l0 172 l-214 0 ZM874 25 l83 0 l0 -84 l-572 0 l0 84 l95 0 l0 764 l394 0 l0 -764 Z" /><glyph glyph-name="cid32072" unicode="&#x7ec6;" d="M55 -26 l-15 90 q27 4 364 62 l5 -83 q-60 -12 -181.5 -35.5 q-121.5 -23.5 -172.5 -33.5 ZM162 519 l132 11 q45 67 56 85 l76 -51 q-108 -155 -220 -266 l197 27 q-1 -15 2 -79 q-196 -32 -256 -44 q-60 -12 -79 -22 q-15 55 -29 85 q28 6 82 60 q39 35 108 122 q-141 -16 -167 -28 q-9 44 -31 90 q23 4 64 59 q27 37 72 117.5 q45 80.5 75 158.5 l91 -39 q-76 -158 -173 -286 ZM720 85 l120 0 l0 258 l-120 0 l0 -258 ZM515 343 l0 -258 l120 0 l0 258 l-120 0 ZM635 696 l-120 0 l0 -267 l120 0 l0 267 ZM840 429 l0 267 l-120 0 l0 -267 l120 0 ZM430 790 l499 0 l0 -844 l-89 0 l0 52 l-325 0 l0 -60 l-85 0 l0 852 Z" /><glyph glyph-name="cid32081" unicode="&#x7ecf;" d="M968 434 l-55 -74 q-73 51 -245 131 q-108 -78 -253 -131 q-29 51 -57 79 q119 37 227 107 q108 70 173 158 l-333 0 l0 84 l393 0 l18 4 l65 -34 q-55 -116 -161 -209 q144 -62 228 -115 ZM207 304 l176 30 q-4 -35 -2 -81 q-277 -54 -312 -74 q-8 38 -30 88 q28 6 80 63 q40 40 95 117 q-129 -18 -152 -29 q-5 34 -30 88 q23 6 59 61 q23 31 66 114 q43 83 68 160 l88 -41 q-62 -144 -157 -281 l117 11 q30 45 63 105 l80 -52 q-92 -150 -209 -279 ZM376 146 l10 -82 q-31 -8 -327 -88 l-17 92 q89 18 334 78 ZM715 250 l0 -217 l245 0 l0 -87 l-587 0 l0 87 l249 0 l0 217 l-189 0 l0 84 l478 0 l0 -84 l-196 0 Z" /><glyph glyph-name="cid32085" unicode="&#x7ed3;" d="M52 -30 l-15 95 q68 11 370 69 l8 -86 q-71 -16 -197.5 -43 q-126.5 -27 -165.5 -35 ZM159 524 l111 9 q42 65 62 104 l83 -52 q-98 -158 -211 -283 l198 32 q0 -52 6 -82 q-203 -36 -261.5 -48.5 q-58.5 -12.5 -77.5 -23.5 q-7 32 -30 90 q29 6 79 64 q33 31 94 115 q-125 -15 -150 -26 q-19 65 -32 91 q23 6 58 58 q23 31 64 109.5 q41 78.5 66 153.5 l95 -39 q-66 -150 -154 -272 ZM808 225 l-256 0 l0 -176 l256 0 l0 176 ZM461 -78 l0 387 l441 0 l0 -383 l-94 0 l0 39 l-256 0 l0 -43 l-91 0 ZM943 621 l-216 0 l0 -134 l197 0 l0 -88 l-488 0 l0 88 l194 0 l0 134 l-219 0 l0 90 l219 0 l0 128 l97 0 l0 -128 l216 0 l0 -90 Z" /><glyph glyph-name="cid32097" unicode="&#x7edf;" d="M951 364 l-78 -43 q-15 36 -37 71 q-259 -25 -331 -34 q-72 -9 -94 -18 q-6 35 -30 90 q45 9 67 31 q31 28 124 156 l-168 0 l0 84 l231 0 q-15 46 -48 119 l87 21 q37 -66 56 -121 l-63 -19 l278 0 l0 -84 l-263 0 q-86 -118 -130 -173 l240 21 q-50 72 -58 83 l72 37 q105 -137 145 -221 ZM207 307 l165 34 q-4 -53 2 -83 q-274 -61 -302 -79 q-15 53 -31 87 q28 6 77 65 q28 29 86 113 q-114 -14 -139 -26 q-12 49 -33 94 q25 7 59 60 q22 30 63.5 112 q41.5 82 67.5 160 l95 -43 q-67 -154 -158 -281 l100 10 q32 49 60 107 l81 -50 q-88 -154 -193 -280 ZM371 164 l16 -79 q-120 -44 -321 -115 l-23 93 q41 11 328 101 ZM503 347 l91 0 q-3 -90 -12 -148.5 q-9 -58.5 -31.5 -115 q-22.5 -56.5 -64.5 -95.5 q-42 -39 -108 -68 q-20 44 -57 77 q46 18 78.5 43 q32.5 25 51.5 52.5 q19 27.5 30 70 q11 42.5 15.5 82.5 q4.5 40 6.5 102 ZM801 18 l54 0 q14 0 18.5 26 q4.5 26 6.5 116 q24 -20 79 -37 q-5 -108 -25 -146 q-20 -38 -71 -38 l-78 0 q-57 0 -76.5 23.5 q-19.5 23.5 -19.5 87.5 l0 298 l91 0 l0 -298 q0 -21 3.5 -26.5 q3.5 -5.5 17.5 -5.5 Z" /><glyph glyph-name="cid32126" unicode="&#x7efc;" d="M489 640 l0 -96 l-88 0 l0 176 l238 0 q-18 49 -44 103 l89 22 q35 -61 57 -125 l199 0 l0 -176 l-92 0 l0 96 l-359 0 ZM487 460 l0 80 l366 0 l0 -80 l-366 0 ZM195 296 l166 29 q-2 -54 -1 -77 q-261 -53 -288 -69 q-9 40 -27 77 q26 7 75 66 q30 30 93 123 q-130 -16 -148 -27 q-9 42 -29 83 q21 4 56 61 q22 31 62 114.5 q40 83.5 64 162.5 l83 -39 q-62 -155 -151 -287 l112 10 q39 66 59 106 l72 -44 q-90 -160 -198 -289 ZM486 223 l86 -27 q-65 -119 -156 -221 q-26 24 -74 54 q14 12 25 26 q-213 -58 -305 -81 l-17 89 q100 20 321 72 l8 -72 q71 81 112 160 ZM943 278 l-223 0 l0 -260 q0 -34 -7.5 -52 q-7.5 -18 -29.5 -27 q-35 -16 -136 -14 q-4 35 -26 82 q40 -1 93 -1 q15 1 15 14 l0 258 l-238 0 l0 81 l552 0 l0 -81 ZM769 192 l79 32 q90 -128 121 -202 l-84 -39 q-33 84 -116 209 Z" /><glyph glyph-name="cid32171" unicode="&#x7f29;" d="M65 -24 l-20 87 q105 34 301 106 l15 -77 q-133 -53 -296 -116 ZM469 608 l80 -19 q-23 -77 -52 -141 l0 -526 l-78 0 l0 380 q-39 -54 -55 -70 q-18 33 -43 59 q0 -24 3 -39 q-223 -56 -251 -73 q-10 39 -26 77 q23 5 69 64 q39 49 82 122 q-110 -13 -131 -24 q-14 51 -29 82 q21 5 56 61 q21 32 59.5 115 q38.5 83 62.5 161 l82 -37 q-64 -163 -148 -287 l94 8 q29 57 51 103 l71 -42 q-85 -163 -176 -284 l131 29 l0 -28 q97 113 148 309 ZM840 224 l0 104 l-195 0 l0 -104 l195 0 ZM645 40 l195 0 l0 111 l-195 0 l0 -111 ZM553 490 l0 75 l384 0 l0 -75 l-158 0 q-20 -78 -23 -88 l167 0 l0 -474 l-83 0 l0 38 l-195 0 l0 -43 l-79 0 l0 479 l105 0 q11 43 17 88 l-135 0 ZM716 745 l234 0 l0 -155 l-89 0 l0 78 l-406 0 l0 -92 l-84 0 l0 169 l250 0 q-17 35 -37 72 l80 26 q28 -44 52 -98 Z" /><glyph glyph-name="cid32352" unicode="&#x7f8e;" d="M933 176 l-343 0 q104 -139 372 -168 q-38 -38 -56 -86 q-151 23 -250 80.5 q-99 57.5 -158 159.5 q-40 -94 -134 -151.5 q-94 -57.5 -276 -87.5 q-13 45 -47 83 q157 23 239 63.5 q82 40.5 118 106.5 l-312 0 l0 83 l342 0 q8 42 11 66 l-380 0 l0 82 l391 0 l0 71 l-302 0 l0 79 l302 0 l0 68 l-350 0 l0 82 l193 0 q-25 51 -67 104 l81 32 q58 -62 82 -121 l-33 -15 l244 0 q55 81 78 136 l99 -27 q-38 -60 -74 -109 l197 0 l0 -82 l-354 0 l0 -68 l313 0 l0 -79 l-313 0 l0 -71 l403 0 l0 -82 l-413 0 q-2 -25 -10 -66 l407 0 l0 -83 Z" /><glyph glyph-name="cid32584" unicode="&#x8001;" d="M478 505 l68 0 q60 47 131 120 l-199 0 l0 -120 ZM946 419 l-363 0 q-78 -61 -173 -123 l0 -79 q219 56 342 119 l78 -68 q-156 -68 -420 -130 l0 -74 q0 -28 16 -36.5 q16 -8.5 72 -8.5 l245 0 q47 0 61.5 23.5 q14.5 23.5 19.5 107.5 q31 -21 88 -35 q-11 -108 -43 -143.5 q-32 -35.5 -121 -35.5 l-255 0 q-105 0 -141.5 26 q-36.5 26 -36.5 101 l0 178 q-113 -62 -218 -104 q-30 43 -66 79 q211 78 399 203 l-376 0 l0 86 l327 0 l0 120 l-239 0 l0 85 l239 0 l0 128 l97 0 l0 -128 l231 0 l0 -51 q65 72 112 141 l85 -43 q-93 -132 -222 -252 l262 0 l0 -86 Z" /><glyph glyph-name="cid32591" unicode="&#x8005;" d="M480 529 l65 0 q61 45 131 112 l-196 0 l0 -112 ZM728 192 l0 83 l-377 0 l0 -83 l377 0 ZM351 31 l377 0 l0 88 l-377 0 l0 -88 ZM943 446 l-367 0 q-50 -38 -140 -94 l388 0 l0 -427 l-96 0 l0 27 l-377 0 l0 -31 l-92 0 l0 336 q-82 -38 -170 -72 q-17 32 -57 77 q212 71 391 184 l-366 0 l0 83 l331 0 l0 112 l-244 0 l0 81 l244 0 l0 117 l92 0 l0 -117 l233 0 l0 -44 q64 65 109 129 l80 -42 q-89 -121 -221 -236 l262 0 l0 -83 Z" /><glyph glyph-name="cid32861" unicode="&#x808c;" d="M189 341 l130 0 l0 147 l-128 0 l0 -42 q0 -68 -2 -105 ZM319 717 l-128 0 l0 -142 l128 0 l0 142 ZM406 803 l0 -768 q0 -67 -36 -87 q-35 -18 -134 -18 q-6 49 -26 89 q40 -2 91 -2 q18 1 18 19 l0 217 l-135 0 q-16 -215 -72 -335 q-32 28 -78 44 q71 150 71 484 l0 357 l301 0 ZM845 25 l20 0 q12 0 16 6 q7 5 8 35 q4 44 4 132 q25 -24 73 -41 q-2 -104 -10 -147 q-7 -42 -30 -56 q-20 -16 -55 -16 l-53 0 q-36 0 -61 22 q-13 13 -18 37 q-5 24 -5 85 l0 632 l-140 0 l0 -323 q0 -334 -108 -476 q-36 36 -78 55 q40 53 62 132 q22 79 27 141.5 q5 62.5 5 147.5 l0 412 l324 0 l0 -724 q0 -43 5 -49 q7 -5 14 -5 Z" /><glyph glyph-name="cid32908" unicode="&#x80a4;" d="M186 342 l129 0 l0 149 l-127 0 l0 -45 q0 -68 -2 -104 ZM315 718 l-127 0 l0 -143 l127 0 l0 143 ZM949 331 l-221 0 q66 -250 242 -334 q-34 -28 -63 -77 q-149 85 -225 301 q-58 -187 -224 -301 q-21 36 -59 67 q-6 -35 -31 -47 q-32 -18 -123 -18 q-6 47 -25 87 q35 -1 80 -1 q15 1 15 17 l0 233 l-133 0 q-17 -222 -72 -340 q-31 27 -77 44 q70 149 70 483 l0 358 l299 0 l0 -779 q0 -13 -2 -31 q177 123 215 338 l-192 0 l0 87 l204 0 q4 51 4 112 l0 44 l-188 0 l0 86 l188 0 l0 174 l89 0 l0 -174 l210 0 l0 -86 l-210 0 l0 -44 q0 -56 -3 -112 l232 0 l0 -87 Z" /><glyph glyph-name="cid33098" unicode="&#x80fd;" d="M835 401 l-157 0 q-77 0 -103 24.5 q-26 24.5 -26 94.5 l0 317 l91 0 l0 -157 q120 42 210 89 l60 -67 q-92 -45 -270 -97 l0 -84 q0 -24 9 -31 q9 -7 40 -7 l137 0 q27 0 35.5 19.5 q8.5 19.5 11.5 89.5 q28 -22 82 -35 q-8 -92 -32.5 -124 q-24.5 -32 -87.5 -32 ZM187 189 l184 0 l0 75 l-184 0 l0 -75 ZM371 407 l-184 0 l0 -71 l184 0 l0 71 ZM463 485 l0 -464 q0 -64 -38 -82 q-33 -16 -136 -16 q-10 46 -31 84 q67 -3 97 -1 q10 0 13 3.5 q3 3.5 3 12.5 l0 95 l-184 0 l0 -195 l-87 0 l0 563 l363 0 ZM311 749 l78 30 q90 -124 121 -217 l-83 -35 q-7 23 -21 52 q-287 -22 -317 -35 q-14 52 -31 88 q20 4 47 39 q17 20 47 70 q30 50 51 101 l97 -28 q-51 -98 -115 -177 l187 12 q-32 60 -61 100 ZM692 10 l139 0 q28 0 37 22.5 q9 22.5 13 103.5 q33 -23 82 -35 q-8 -102 -33 -137 q-25 -35 -91 -35 l-158 0 q-78 0 -105 25 q-27 25 -27 95 l0 326 l92 0 l0 -149 q145 51 218 101 l61 -69 q-89 -52 -279 -109 l0 -100 q0 -25 9.5 -32 q9.5 -7 41.5 -7 Z" /><glyph glyph-name="cid33629" unicode="&#x81f4;" d="M501 135 l4 -88 q-135 -24 -451 -76 l-15 94 q42 6 191 28 l0 142 l-163 0 l0 84 l163 0 l0 104 l93 0 l0 -104 l162 0 l0 -84 l-162 0 l0 -128 q64 9 178 28 ZM630 569 l-7 -18 q31 -161 91 -282 q56 120 78 300 l-162 0 ZM953 569 l-65 0 q-34 -247 -118 -395 q83 -117 199 -170 q-35 -29 -64 -80 q-111 59 -191 168 q-79 -102 -215 -173 q-6 17 -23 43 q-17 26 -31 42 q136 61 216 173 q-54 100 -94 249 q-32 -59 -61 -96 q-29 40 -69 70 q28 39 39 57 l-58 -30 q-10 25 -19 41 q-188 -16 -244 -22.5 q-56 -6.5 -75 -14.5 q-11 41 -29 84 q21 7 46 43 q48 75 75 137 l-121 0 l0 85 l446 0 l0 -85 l-223 0 q-41 -84 -98 -164 l182 13 q-16 28 -50 82 l71 33 q75 -112 109 -182 q78 142 118 364 l92 -17 q-13 -77 -40 -168 l295 0 l0 -87 Z" /><glyph glyph-name="cid33920" unicode="&#x8272;" d="M583 673 l-244 0 q-46 -61 -96 -109 l246 0 q50 47 94 109 ZM769 329 l0 149 l-213 0 l0 -149 l213 0 ZM255 478 l0 -149 l210 0 l0 149 l-210 0 ZM383 23 l365 0 q71 0 93 28 q22 28 31 125 q34 -22 88 -33 q-8 -63 -19 -99.5 q-11 -36.5 -34.5 -62 q-23.5 -25.5 -60 -34.5 q-36.5 -9 -96.5 -9 l-364 0 q-129 0 -175 32 q-46 32 -46 126 l0 397 q-37 -31 -75 -57 q-22 49 -50 88 q92 56 174.5 140.5 q82.5 84.5 132.5 178.5 l85 -31 q-7 -13 -34 -56 l248 0 l19 5 l61 -43 q-57 -83 -125 -154 l260 0 l0 -363 l-92 0 l0 39 l-514 0 l0 -144 q0 -45 23.5 -59 q23.5 -14 104.5 -14 Z" /><glyph glyph-name="cid34228" unicode="&#x8303;" d="M273 584 l0 88 l-214 0 l0 86 l214 0 l0 80 l96 0 l0 -80 l260 0 l0 80 l96 0 l0 -80 l218 0 l0 -86 l-218 0 l0 -88 l-96 0 l0 88 l-260 0 l0 -88 l-96 0 ZM116 519 l53 59 q119 -62 181 -102 l-54 -69 q-67 46 -180 112 ZM292 302 l-53 -71 q-63 44 -183 102 l51 63 q122 -57 185 -94 ZM141 -77 l-65 77 q109 94 242 249 l52 -71 q-107 -128 -229 -255 ZM581 25 l218 0 q41 0 54 24 q13 24 19 106 q34 -23 88 -38 q-10 -105 -41 -142 q-31 -37 -115 -37 l-230 0 q-96 0 -130.5 29 q-34.5 29 -34.5 114 l0 462 l464 0 l0 -248 q0 -37 -10.5 -57.5 q-10.5 -20.5 -37.5 -29.5 q-41 -16 -174 -16 q-8 46 -36 88 q104 -3 142 -1 q14 1 18.5 4 q4.5 3 4.5 13 l0 159 l-275 0 l0 -373 q0 -36 13.5 -46.5 q13.5 -10.5 62.5 -10.5 Z" /><glyph glyph-name="cid34395" unicode="&#x8350;" d="M933 483 l-546 0 q-43 -74 -101 -145 l0 -417 l-88 0 l0 325 q-42 -40 -108 -86 q-29 45 -61 76 q150 89 255 247 l-221 0 l0 83 l270 0 q14 30 21 46 l-81 0 l0 76 l-216 0 l0 82 l216 0 l0 68 l91 0 l0 -68 l274 0 l0 69 l90 0 l0 -69 l214 0 l0 -82 l-214 0 l0 -75 l-90 0 l0 75 l-274 0 l0 -53 l9 23 l88 -23 q-6 -17 -29 -69 l501 0 l0 -83 ZM948 215 l0 -79 l-247 0 l0 -122 q0 -34 -8.5 -51.5 q-8.5 -17.5 -32.5 -26.5 q-36 -13 -152 -13 q-8 39 -30 79 q85 -3 115 -1 q12 1 15.5 4 q3.5 3 3.5 12 l0 119 l-265 0 l0 79 l265 0 l0 60 q59 29 107 64 l-297 0 l0 73 l386 0 l17 5 l55 -45 q-78 -72 -179 -126 l0 -31 l247 0 Z" /><glyph glyph-name="cid36583" unicode="&#x8776;" d="M135 586 l0 -229 l54 0 l0 229 l-54 0 ZM302 357 l0 229 l-58 0 l0 -229 l58 0 ZM784 635 l-102 0 l0 -81 l102 0 l0 81 ZM955 194 l-208 0 q42 -53 102 -99.5 q60 -46.5 120 -71.5 q-33 -28 -64 -75 q-108 63 -198 185 l0 -211 l-89 0 l0 208 q-92 -128 -202 -190 q-27 43 -62 71 l2 1 l-12 -4 l-11 55 q-164 -48 -278 -79 l-15 84 q66 13 143 35 l0 177 l-48 0 l0 -49 l-67 0 l0 432 l114 0 l0 174 l68 0 l0 -174 l119 0 l0 -383 l-118 0 l0 -160 l62 16 q-3 9 -25 76 l60 18 q43 -108 57 -192 q100 61 168 156 l-178 0 l0 78 l223 0 l0 76 l-184 0 l0 287 l-58 0 l0 76 l58 0 l0 99 l83 0 l0 -99 l83 0 l0 121 l82 0 l0 -121 l102 0 l0 121 l86 0 l0 -121 l83 0 l0 -76 l-83 0 l0 -148 l-270 0 l0 148 l-83 0 l0 -212 l414 0 l0 -75 l-224 0 l0 -76 l248 0 l0 -78 Z" /><glyph glyph-name="cid36964" unicode="&#x884c;" d="M925 781 l0 -89 l-485 0 l0 89 l485 0 ZM264 840 l89 -37 q-51 -66 -123 -135 q-72 -69 -141 -118 q-22 42 -53 75 q63 41 127.5 101.5 q64.5 60.5 100.5 113.5 ZM303 626 l88 -33 q-47 -78 -109 -153 l0 -521 l-93 0 l0 418 q-51 -51 -99 -90 q-26 43 -64 79 q78 56 153 136.5 q75 80.5 124 163.5 ZM953 508 l0 -89 l-144 0 l0 -385 q0 -41 -11 -62.5 q-11 -21.5 -39 -32.5 q-40 -15 -189 -15 q-7 44 -30 93 q107 -3 149 -1 q25 0 25 19 l0 384 l-316 0 l0 89 l555 0 Z" /><glyph glyph-name="cid37005" unicode="&#x8868;" d="M835 349 l77 -57 q-83 -65 -186 -129 q103 -93 239 -132 q-37 -37 -60 -81 q-293 99 -414 423 q-56 -60 -143 -121 l0 -198 l229 66 q3 -39 16 -82 q-214 -66 -270 -85 q-56 -19 -75 -32 q-15 53 -40 84 q43 21 43 71 l0 115 q-77 -43 -155 -72 q-28 45 -62 75 q90 28 181 77 q91 49 159 107 l-308 0 l0 80 l385 0 l0 75 l-294 0 l0 75 l294 0 l0 70 l-344 0 l0 80 l344 0 l0 80 l93 0 l0 -80 l356 0 l0 -80 l-356 0 l0 -70 l315 0 l0 -75 l-315 0 l0 -75 l388 0 l0 -80 l-351 0 q37 -91 92 -158 q103 69 162 129 Z" /><glyph glyph-name="cid37021" unicode="&#x8870;" d="M925 752 l0 -74 l-855 0 l0 74 l385 0 q-5 11 -12 23 q-7 12 -15.5 26 q-8.5 14 -12.5 21 l93 23 q33 -46 58 -93 l359 0 ZM295 416 l0 -65 l410 0 l0 65 l-410 0 ZM705 545 l-410 0 l0 -63 l410 0 l0 63 ZM836 276 l74 -52 q-78 -58 -174 -111 q94 -69 229 -97 q-33 -30 -59 -80 q-149 38 -247.5 123.5 q-98.5 85.5 -154.5 220.5 l-8 0 q-49 -52 -130 -108 l0 -132 l220 45 q-2 -39 5 -78 q-186 -43 -241.5 -58 q-55.5 -15 -73.5 -26 q-9 39 -34 72 q35 21 35 65 l0 60 q-93 -48 -184 -75 q-25 43 -57 72 q206 54 342 163 l-172 0 l0 131 l-138 0 l0 77 l138 0 l0 128 l592 0 l0 -128 l142 0 l0 -77 l-142 0 l0 -131 l-202 0 q35 -69 86 -121 q91 59 154 117 Z" /><glyph glyph-name="cid37555" unicode="&#x8981;" d="M654 225 l-264 0 q-6 -8 -25 -34 q-19 -26 -29 -38 q30 -6 200 -45 q74 45 118 117 ZM205 571 l0 -117 l131 0 l0 117 l-131 0 ZM424 718 l0 -73 l140 0 l0 73 l-140 0 ZM798 571 l-146 0 l0 -117 l146 0 l0 117 ZM424 454 l140 0 l0 117 l-140 0 l0 -117 ZM946 225 l-188 0 q-43 -88 -114 -145 q175 -47 278 -85 l-76 -72 q-121 48 -297 97 q-148 -72 -449 -98 q-11 48 -35 80 q222 11 349 52 q-109 26 -230 51 q44 47 96 120 l-225 0 l0 80 l279 0 q27 44 42 75 l-258 0 l0 265 l218 0 l0 73 l-266 0 l0 81 l857 0 l0 -81 l-275 0 l0 -73 l238 0 l0 -265 l-463 0 l50 -12 q-17 -33 -35 -63 l504 0 l0 -80 Z" /><glyph glyph-name="cid37714" unicode="&#x89e3;" d="M325 153 l0 -144 q49 -2 62 0 q13 0 13 13 l0 131 l-75 0 ZM183 224 l77 0 l0 118 l-74 0 l0 -19 q0 -47 -3 -99 ZM334 677 l-116 0 q-19 -45 -43 -90 l121 0 q16 29 38 90 ZM186 516 l0 -105 l74 0 l0 105 l-74 0 ZM400 342 l-75 0 l0 -118 l75 0 l0 118 ZM325 411 l75 0 l0 105 l-75 0 l0 -105 ZM476 587 l0 -567 q0 -56 -28 -73 q-26 -16 -101 -16 q-4 44 -22 76 l0 -30 l-65 0 l0 176 l-83 0 q-18 -147 -74 -236 q-28 26 -68 43 q74 116 74 363 l0 162 l-10 -12 q-24 25 -67 55 q103 112 151 312 l84 -17 q-13 -46 -23 -74 l126 0 l13 4 l55 -35 q-30 -79 -58 -131 l96 0 ZM847 711 l-130 0 q-16 -94 -57 -158.5 q-41 -64.5 -126 -104.5 q-21 40 -50 64 q69 29 102 78 q33 49 46 121 l-125 0 l0 77 l426 0 q-1 -21 -2 -32 q-5 -124 -12.5 -179 q-7.5 -55 -23.5 -73 q-20 -24 -57 -28 q-30 -5 -102 -1 q-2 46 -21 77 q36 -4 82 -4 q20 -2 27 9 q16 18 23 154 ZM958 183 l0 -81 l-162 0 l0 -180 l-88 0 l0 180 l-196 0 l0 81 l196 0 l0 108 l-103 0 q-24 -57 -46 -88 q-32 20 -70 36 q59 81 86 219 l76 -15 q-5 -25 -17 -73 l74 0 l0 87 l88 0 l0 -87 l138 0 l0 -79 l-138 0 l0 -108 l162 0 Z" /><glyph glyph-name="cid38638" unicode="&#x8ba9;" d="M340 679 l-59 -69 q-36 44 -152 155 l57 60 q131 -120 154 -146 ZM283 131 l109 83 q10 -43 28 -79 q-140 -111 -180 -145 q-40 -34 -52 -51 q-21 29 -60 57 q25 21 46.5 54.5 q21.5 33.5 21.5 71.5 l0 319 l-148 0 l0 89 l235 0 l0 -399 ZM673 43 l284 0 l0 -92 l-614 0 l0 92 l234 0 l0 788 l96 0 l0 -312 l216 0 l0 -90 l-216 0 l0 -386 Z" /><glyph glyph-name="cid38642" unicode="&#x8bad;" d="M326 669 l-61 -70 q-50 61 -173 161 l57 62 q124 -95 177 -153 ZM261 135 l83 71 q17 -49 38 -79 q-125 -107 -161.5 -140.5 q-36.5 -33.5 -47.5 -51.5 q-17 36 -49 66 q48 43 48 101 l0 339 l-129 0 l0 89 l218 0 l0 -395 ZM423 465 l0 344 l93 0 l0 -345 q0 -173 -21 -304 q-21 -131 -87 -237 q-41 33 -90 53 q65 98 85 214 q20 116 20 275 ZM629 51 l0 708 l86 0 l0 -708 l-86 0 ZM832 814 l93 0 l0 -880 l-93 0 l0 880 Z" /><glyph glyph-name="cid38647" unicode="&#x8bb2;" d="M312 670 l-67 -62 q-45 66 -146 165 l64 53 q109 -100 149 -156 ZM262 138 l81 62 q16 -51 34 -80 q-120 -97 -157 -129 q-37 -32 -49 -48 q-18 47 -50 85 q19 12 35 37.5 q16 25.5 16 55.5 l0 320 l-127 0 l0 90 l217 0 l0 -393 ZM580 346 l154 0 l0 211 l-154 0 l0 -175 l0 -36 ZM956 346 l0 -93 l-127 0 l0 -330 l-95 0 l0 330 l-160 0 q-23 -226 -156 -330 q-31 35 -72 60 q113 87 134 270 l-142 0 l0 93 l149 0 l0 36 l0 175 l-129 0 l0 92 l129 0 l0 188 l93 0 l0 -188 l154 0 l0 190 l95 0 l0 -190 l112 0 l0 -92 l-112 0 l0 -211 l127 0 Z" /><glyph glyph-name="cid38655" unicode="&#x8bba;" d="M340 666 l-62 -70 q-51 63 -176 164 l58 62 q131 -100 180 -156 ZM278 126 l90 72 q14 -46 35 -80 q-127 -102 -164 -134 q-37 -32 -49 -49 q-17 36 -49 66 q48 40 48 101 l0 339 l-147 0 l0 89 l236 0 l0 -404 ZM615 842 l99 -18 q-5 -11 -16 -33 q47 -87 124.5 -171 q77.5 -84 155.5 -133 q-38 -32 -65 -72 q-68 49 -137.5 126.5 q-69.5 77.5 -124.5 163.5 q-80 -132 -192 -234 l86 0 l0 -186 q147 69 254 146 l61 -78 q-138 -87 -315 -161 l0 -113 q0 -30 12 -38.5 q12 -8.5 54 -8.5 l180 0 q36 0 47 24.5 q11 24.5 16 113.5 q37 -26 84 -36 q-8 -110 -36.5 -148 q-28.5 -38 -104.5 -38 l-194 0 q-88 0 -119 27 q-31 27 -31 104 l0 387 q-38 -33 -76 -60 q-30 48 -64 70 q108 72 184.5 169 q76.5 97 117.5 197 Z" /><glyph glyph-name="cid38659" unicode="&#x8bbe;" d="M568 718 l0 -25 q0 -191 -173 -271 q-8 14 -28 36 q-20 22 -32 32 q86 39 116.5 90.5 q30.5 51.5 30.5 115.5 l0 108 l332 0 l0 -225 q0 -22 3 -30 q3 -8 14 -8 l61 0 q30 0 50 6 q2 -41 7 -78 q-16 -6 -56 -6 l-70 0 q-58 0 -77.5 26 q-19.5 26 -19.5 93 l0 136 l-158 0 ZM332 674 l-63 -65 q-44 63 -152 157 l60 57 q106 -87 155 -149 ZM265 124 l100 77 q16 -47 34 -77 q-206 -162 -224 -186 q-20 49 -49 78 q50 38 50 93 l0 333 l-130 0 l0 89 l219 0 l0 -407 ZM784 318 l-280 0 q50 -99 142 -174 q89 74 138 174 ZM844 408 l58 -25 q-52 -174 -183 -290 q105 -65 243 -92 q-33 -32 -57 -83 q-150 37 -262 116 q-112 -73 -268 -113 q-14 45 -45 81 q141 29 241 91 q-93 87 -153 216 l26 9 l-60 0 l0 87 l446 0 l14 3 Z" /><glyph glyph-name="cid38665" unicode="&#x8bc4;" d="M305 664 l-62 -65 q-44 61 -149 158 l58 56 q111 -94 153 -149 ZM259 127 l85 66 q14 -40 34 -78 q-124 -98 -160.5 -129 q-36.5 -31 -47.5 -47 q-16 45 -43 77 q46 31 46 83 l0 343 l-127 0 l0 89 l213 0 l0 -404 ZM960 351 l0 -88 l-268 0 l0 -341 l-94 0 l0 341 l-264 0 l0 88 l264 0 l0 351 l-238 0 l0 89 l558 0 l0 -89 l-226 0 l0 -351 l268 0 ZM388 635 l78 20 q44 -119 57 -237 l-83 -23 q-10 115 -52 240 ZM833 391 l-73 20 q42 125 60 245 l92 -21 q-55 -184 -79 -244 Z" /><glyph glyph-name="cid38667" unicode="&#x8bc6;" d="M799 407 l0 276 l-271 0 l0 -276 l271 0 ZM895 772 l0 -453 l-459 0 l0 453 l459 0 ZM317 670 l-65 -64 q-41 56 -154 155 l61 56 q110 -90 158 -147 ZM271 140 l97 76 q12 -43 36 -80 q-137 -112 -174.5 -144 q-37.5 -32 -49.5 -48 q-22 35 -58 61 q59 49 59 118 l0 319 l-130 0 l0 89 l220 0 l0 -391 ZM503 229 l95 -21 q-57 -179 -159 -286 q-34 27 -82 54 q95 88 146 253 ZM726 201 l87 32 q99 -155 135 -269 l-93 -36 q-15 53 -51.5 129.5 q-36.5 76.5 -77.5 143.5 Z" /><glyph glyph-name="cid38699" unicode="&#x8be6;" d="M322 675 l-63 -68 q-47 62 -156 153 l59 60 q123 -100 160 -145 ZM276 123 l89 67 q13 -45 32 -79 q-122 -96 -160 -127.5 q-38 -31.5 -50 -48.5 q-19 39 -49 66 q48 41 48 101 l0 339 l-143 0 l0 89 l233 0 l0 -407 ZM952 240 l0 -86 l-234 0 l0 -232 l-94 0 l0 232 l-246 0 l0 86 l246 0 l0 122 l-192 0 l0 84 l192 0 l0 120 l-223 0 l0 85 l129 0 q-24 72 -78 154 l83 30 q62 -93 84 -156 l-72 -28 l183 0 q54 101 83 191 l95 -30 q-32 -71 -81 -161 l106 0 l0 -85 l-215 0 l0 -120 l184 0 l0 -84 l-184 0 l0 -122 l234 0 Z" /><glyph glyph-name="cid38717" unicode="&#x8bf8;" d="M312 671 l-65 -66 q-42 60 -153 156 l60 56 q113 -90 158 -146 ZM266 129 l82 60 q14 -50 33 -81 q-129 -97 -162 -123 q-33 -26 -44 -41 q-17 30 -57 62 q58 50 58 118 l0 318 l-129 0 l0 89 l219 0 l0 -402 ZM640 654 l0 -109 l28 0 q50 51 94 109 l-122 0 ZM808 207 l0 89 l-255 0 l0 -89 l255 0 ZM553 41 l255 0 l0 91 l-255 0 l0 -91 ZM958 461 l-244 0 q-54 -52 -99 -88 l285 0 l0 -447 l-92 0 l0 38 l-255 0 l0 -40 l-88 0 l0 344 q-60 -37 -112 -62 q-25 46 -62 81 q158 69 285 174 l-242 0 l0 84 l213 0 l0 109 l-173 0 l0 82 l173 0 l0 103 l93 0 l0 -103 l135 0 l0 -64 q49 67 85 138 l89 -32 q-65 -124 -157 -233 l166 0 l0 -84 Z" /><glyph glyph-name="cid38720" unicode="&#x8bfb;" d="M871 389 l-72 17 q16 39 37 112 l-471 0 l0 79 l236 0 l0 78 l-201 0 l0 78 l201 0 l0 85 l91 0 l0 -85 l202 0 l0 -78 l-202 0 l0 -78 l173 0 l15 3 l58 -14 q-35 -128 -67 -197 ZM624 398 l-43 -51 q-50 50 -144 98 l41 46 q93 -47 146 -93 ZM318 675 l-63 -68 q-44 57 -156 153 l59 60 q117 -93 160 -145 ZM943 180 l-259 0 q-69 -172 -302 -265 q-14 34 -55 73 q187 71 255 192 l-237 0 q14 -38 31 -66 q-113 -95 -149.5 -128.5 q-36.5 -33.5 -48.5 -50.5 q-15 32 -47 64 q47 37 47 100 l0 343 l-135 0 l0 89 l220 0 l0 -401 l77 63 l4 -11 l0 78 l161 0 q-62 55 -140 97 l42 48 q100 -52 148 -100 l-38 -45 l97 0 q13 46 13 113 l0 112 l89 0 l0 -114 q0 -62 -9 -111 l236 0 l0 -80 ZM678 102 l55 53 q154 -98 227 -178 l-59 -60 q-34 39 -98.5 92 q-64.5 53 -124.5 93 Z" /><glyph glyph-name="cid38723" unicode="&#x8bfe;" d="M301 674 l-66 -63 q-49 69 -141 157 l62 54 q95 -84 145 -148 ZM264 146 l84 72 q20 -52 35 -76 q-192 -166 -208 -189 q-8 13 -26 32 q-18 19 -31 28 q57 49 57 117 l0 318 l-129 0 l0 84 l218 0 l0 -386 ZM476 564 l0 -86 l132 0 l0 86 l-132 0 ZM476 722 l0 -85 l132 0 l0 85 l-132 0 ZM811 637 l0 85 l-118 0 l0 -85 l118 0 ZM811 478 l0 86 l-118 0 l0 -86 l118 0 ZM953 246 l-208 0 q45 -62 106.5 -118.5 q61.5 -56.5 121.5 -89.5 q-35 -27 -64 -71 q-54 37 -110.5 97.5 q-56.5 60.5 -102.5 128.5 l0 -271 l-91 0 l0 268 q-99 -153 -236 -232 q-25 41 -60 70 q69 33 136 92 q67 59 112 126 l-215 0 l0 85 l263 0 l0 72 l-213 0 l0 394 l507 0 l0 -394 l-203 0 l0 -72 l257 0 l0 -85 Z" /><glyph glyph-name="cid38744" unicode="&#x8c13;" d="M309 667 l-63 -66 q-48 67 -152 159 l60 57 q112 -95 155 -150 ZM262 107 l116 74 q7 -40 24 -79 q-200 -136 -219 -159 q-17 45 -47 81 q39 29 39 81 l0 337 l-128 0 l0 89 l215 0 l0 -424 ZM493 143 l300 0 l0 62 l-300 0 l0 -62 ZM793 336 l-300 0 l0 -61 l300 0 l0 61 ZM880 409 l0 -399 q0 -33 -8.5 -49.5 q-8.5 -16.5 -29.5 -25.5 q-32 -14 -143 -14 q-4 32 -26 74 q74 -3 102 -1 q18 0 18 16 l0 63 l-300 0 l0 -153 l-87 0 l0 489 l474 0 ZM834 664 l0 72 l-159 0 l0 -72 l159 0 ZM834 526 l0 73 l-159 0 l0 -73 l159 0 ZM445 599 l0 -73 l148 0 l0 73 l-148 0 ZM445 736 l0 -72 l148 0 l0 72 l-148 0 ZM360 805 l563 0 l0 -348 l-563 0 l0 348 Z" /><glyph glyph-name="cid38774" unicode="&#x8c31;" d="M293 662 l-66 -62 q-43 65 -140 162 l62 54 q108 -104 144 -154 ZM259 117 l79 56 q15 -53 30 -79 q-128 -94 -157.5 -117 q-29.5 -23 -40.5 -36 q-19 50 -43 77 q46 31 46 83 l0 343 l-127 0 l0 87 l213 0 l0 -414 ZM786 251 l-311 0 l0 -67 l311 0 l0 67 ZM475 41 l311 0 l0 76 l-311 0 l0 -76 ZM392 -78 l0 401 l480 0 l0 -398 l-86 0 l0 49 l-311 0 l0 -52 l-83 0 ZM581 639 l0 -185 l91 0 l0 185 l-91 0 ZM755 454 l205 0 l0 -76 l-661 0 l0 76 l199 0 l0 185 l-162 0 l0 76 l152 0 q-27 51 -62 93 l67 33 q56 -61 76 -111 l-28 -15 l147 0 q35 63 61 126 l81 -28 q-23 -39 -63 -98 l157 0 l0 -76 l-169 0 l0 -185 ZM332 594 l60 34 q61 -66 82 -118 l-63 -39 q-24 57 -79 123 ZM837 471 l-58 29 q45 64 74 127 l72 -33 q-59 -88 -88 -123 Z" /><glyph glyph-name="cid39182" unicode="&#x8d1e;" d="M274 492 l0 -369 l-93 0 l0 455 l263 0 l0 260 l95 0 l0 -82 l382 0 l0 -82 l-382 0 l0 -96 l292 0 l0 -450 l-97 0 l0 364 l-460 0 ZM555 434 l0 -140 q0 -44 -9.5 -81.5 q-9.5 -37.5 -38.5 -80.5 q-29 -43 -77 -78.5 q-48 -35.5 -130 -70.5 q-82 -35 -192 -62 q-19 42 -58 83 q107 22 184.5 51 q77.5 29 120 57 q42.5 28 66.5 62.5 q24 34.5 30.5 61 q6.5 26.5 6.5 60.5 l0 138 l97 0 ZM524 76 l47 65 q90 -28 193 -69.5 q103 -41.5 163 -74.5 l-51 -75 q-55 34 -156.5 77.5 q-101.5 43.5 -195.5 76.5 Z" /><glyph glyph-name="cid39192" unicode="&#x8d28;" d="M635 337 l0 -85 q0 -35 -6 -65 q-6 -30 -28 -68.5 q-22 -38.5 -59.5 -71 q-37.5 -32.5 -105.5 -66.5 q-68 -34 -160 -60 q-29 45 -63 73 q87 22 150.5 49.5 q63.5 27.5 96 52.5 q32.5 25 51.5 56 q19 31 23 52.5 q4 21.5 4 48.5 l0 84 l97 0 ZM596 61 l65 55 q135 -49 286 -129 l-66 -62 q-134 80 -285 136 ZM229 628 l297 0 q3 40 6 85 q-137 -12 -303 -19 l0 -66 ZM622 628 l327 0 l0 -82 l-336 0 q-4 -40 -11 -87 l278 0 l0 -349 l-98 0 l0 264 l-395 0 l0 -259 l-93 0 l0 344 l217 0 q5 39 9 87 l-291 0 l0 -55 q0 -378 -113 -559 q-33 31 -81 47 q103 162 103 512 l0 278 q462 19 679 70 l74 -75 q-115 -24 -260 -41 q-4 -40 -9 -95 Z" /><glyph glyph-name="cid39209" unicode="&#x8d39;" d="M348 592 l-129 0 q-5 -35 -10 -60 l125 0 q11 25 14 60 ZM434 716 l0 -59 l138 0 l0 59 l-138 0 ZM787 716 l-127 0 l0 -59 l127 0 l0 59 ZM572 532 l0 60 l-139 0 q-1 -26 -8 -60 l147 0 ZM184 68 l0 252 q-39 -12 -79 -21 q-17 41 -47 70 q167 37 233 99 l-177 0 q18 85 30 188 l35 0 l0 1 l171 0 l0 59 l-239 0 l0 64 l239 0 l0 59 l84 0 l0 -59 l138 0 l0 59 l88 0 l0 -59 l212 0 l0 -188 l-212 0 l0 -60 l273 0 q-1 -18 -2 -29 q-9 -95 -29 -117 q-18 -20 -52 -22 q-35 -2 -90 1 q-2 31 -16 61 q28 -4 62 -4 q16 0 23 7 q7 11 11 39 l-180 0 l0 -105 l-88 0 l0 105 l-171 0 q-42 -79 -154 -126 l575 0 l0 -265 l-94 0 l0 188 l-454 0 l0 -197 l-90 0 ZM466 228 l93 0 q-15 -69 -43 -116 q-28 -47 -82 -86 q-54 -39 -139.5 -63.5 q-85.5 -24.5 -211.5 -40.5 q-12 46 -40 79 q154 15 242 44.5 q88 29.5 126 71 q38 41.5 55 111.5 ZM519 52 l49 63 q94 -22 204.5 -57.5 q110.5 -35.5 176.5 -64.5 l-52 -72 q-62 30 -172.5 68 q-110.5 38 -205.5 63 Z" /><glyph glyph-name="cid39220" unicode="&#x8d44;" d="M338 707 l-49 -71 q-77 59 -205 108 l47 64 q136 -49 207 -101 ZM340 592 l16 -80 q-51 -18 -146 -50.5 q-95 -32.5 -130 -44.5 l-27 85 q124 36 287 90 ZM834 107 l-95 0 l0 181 l-469 0 l0 -189 l-92 0 l0 273 l656 0 l0 -265 ZM461 261 l92 0 q-14 -75 -39.5 -127 q-25.5 -52 -77 -96 q-51.5 -44 -136 -72.5 q-84.5 -28.5 -210.5 -45.5 q-12 37 -41 76 q93 11 160.5 28 q67.5 17 112 38.5 q44.5 21.5 73 53 q28.5 31.5 43 65 q14.5 33.5 23.5 80.5 ZM512 68 l53 65 q223 -63 370 -133 l-56 -76 q-127 67 -367 144 ZM810 680 l-125 0 q-7 -23 -13 -41 q39 -64 111.5 -109.5 q72.5 -45.5 165.5 -65.5 q-28 -22 -55 -72 q-162 46 -256 172 q-77 -125 -258 -181 q-18 39 -49 67 q120 33 178.5 91 q58.5 58 83.5 139 l-100 0 q-45 -66 -106 -116 q-20 33 -64 59 q109 83 153 211 l88 -12 q-11 -30 -30 -71 l313 0 l14 3 l68 -17 q-38 -98 -75 -160 l-82 22 q19 33 38 81 Z" /><glyph glyph-name="cid39276" unicode="&#x8d74;" d="M718 515 l0 -435 l-90 0 l0 757 l90 0 l0 -260 l25 22 q149 -106 215 -182 l-67 -63 q-52 67 -173 161 ZM359 240 l0 -181 q68 -23 200 -23 q360 0 407 2 q-24 -35 -36 -92 l-371 0 q-161 0 -250 35 q-89 35 -141 132 q-24 -119 -65 -192 q-44 28 -78 43 q73 116 82 427 l86 -7 q-4 -82 -7 -120 q29 -105 86 -156 l0 339 l-216 0 l0 84 l207 0 l0 116 l-178 0 l0 81 l178 0 l0 111 l89 0 l0 -111 l171 0 l0 -81 l-171 0 l0 -116 l204 0 l0 -84 l-197 0 l0 -126 l174 0 l0 -81 l-174 0 Z" /><glyph glyph-name="cid39280" unicode="&#x8d77;" d="M805 531 l0 181 l-273 0 l0 83 l362 0 l0 -345 l-263 0 l0 -197 q0 -24 9 -31 q9 -7 40 -7 l136 0 q28 0 36.5 24 q8.5 24 12.5 112 q29 -23 82 -36 q-8 -109 -33 -146 q-25 -37 -90 -37 l-155 0 q-75 0 -101.5 24.5 q-26.5 24.5 -26.5 95.5 l0 279 l264 0 ZM341 246 l0 -186 q69 -24 209 -24 q40 -1 205 -0.5 q165 0.5 214 2.5 q-25 -39 -36 -92 l-382 0 q-159 0 -249 32.5 q-90 32.5 -144 121.5 q-17 -115 -53 -189 q-32 20 -79 42 q63 116 68 435 l86 -7 q-2 -70 -6 -132 q29 -92 81 -141 l0 350 l-204 0 l0 82 l184 0 l0 111 l-159 0 l0 82 l159 0 l0 104 l88 0 l0 -104 l154 0 l0 -82 l-154 0 l0 -111 l180 0 l0 -82 l-162 0 l0 -131 l152 0 l0 -81 l-152 0 Z" /><glyph glyph-name="cid39300" unicode="&#x8d85;" d="M326 246 l0 -182 q74 -28 222 -28 q40 -1 206 -0.5 q166 0.5 216 2.5 q-27 -39 -38 -92 l-383 0 q-160 0 -250.5 32.5 q-90.5 32.5 -144.5 121.5 q-15 -107 -52 -179 q-32 24 -75 42 q38 68 50.5 171 q12.5 103 14.5 258 l83 -6 q-1 -50 -5 -139 q28 -87 73 -130 l0 337 l-189 0 l0 83 l174 0 l0 109 l-154 0 l0 81 l154 0 l0 112 l85 0 l0 -112 l150 0 l0 -81 l-150 0 l0 -109 l169 0 l0 -35 q112 68 136 218 l-125 0 l0 79 l436 0 q0 -23 -1 -34 q-6 -131 -15 -191 q-9 -60 -25 -79 q-22 -25 -62 -29 q-45 -4 -108 -1 q-4 45 -24 79 q38 -4 88 -4 q21 0 30 10 q17 20 25 170 l-131 0 q-30 -197 -178 -288 q-16 16 -46 39 l0 -17 l-156 0 l0 -127 l145 0 l0 -81 l-145 0 ZM610 341 l0 -157 l205 0 l0 157 l-205 0 ZM523 108 l0 309 l384 0 l0 -309 l-384 0 Z" /><glyph glyph-name="cid39464" unicode="&#x8df5;" d="M885 734 l-56 -57 q-51 46 -134 91 l53 50 q86 -43 137 -84 ZM163 718 l0 -154 l161 0 l0 154 l-161 0 ZM409 170 l16 -78 q-73 -25 -202.5 -69 q-129.5 -44 -160.5 -55 l-24 88 l45 12 l0 332 l75 0 l0 -309 l51 16 l0 378 l-126 0 l0 313 l327 0 l0 -313 l-117 0 l0 -121 l108 0 l0 -80 l-108 0 l0 -151 l116 37 ZM872 349 l77 -34 q-73 -117 -183 -205 q43 -98 93 -98 q18 0 26.5 23.5 q8.5 23.5 12.5 85.5 q22 -28 65 -50 q-11 -86 -35 -116.5 q-24 -30.5 -78 -30.5 q-95 0 -157 132 q-111 -72 -240 -119 q-22 43 -57 76 q144 45 264 126 q-27 87 -45 202 l-169 -33 l-15 84 l174 32 q-7 57 -12 117 l-126 -20 l-16 84 l136 21 q-6 103 -6 213 l90 0 q-1 -87 4 -200 l223 33 l14 -82 l-232 -36 q4 -46 11 -113 l233 43 l16 -82 l-238 -45 q17 -102 35 -160 q81 68 135 152 Z" /><glyph glyph-name="cid40135" unicode="&#x8f85;" d="M421 238 l4 -80 l-96 -19 l0 -213 l-83 0 l0 197 l-190 -36 l-20 90 q114 16 210 33 l0 127 l-95 0 q-60 0 -74 -14 q-7 40 -28 80 q20 5 49 80 q22 55 49 158 l-103 0 l0 85 l124 0 q14 72 19 113 l90 -17 q-10 -53 -21 -96 l150 0 l0 -85 l-173 0 q-30 -111 -76 -223 l89 0 l0 152 l83 0 l0 -152 l81 0 l0 -81 l-81 0 l0 -114 l92 15 ZM841 386 l0 89 l-106 0 l0 -89 l106 0 ZM735 215 l106 0 l0 95 l-106 0 l0 -95 ZM549 215 l109 0 l0 95 l-109 0 l0 -95 ZM658 475 l-109 0 l0 -89 l109 0 l0 89 ZM954 630 l-214 0 l0 -76 l183 0 l0 -538 q0 -60 -28 -76 q-29 -16 -104 -16 q-5 41 -24 80 q29 -1 62 -1 q12 1 12 14 l0 121 l-106 0 l0 -210 l-77 0 l0 210 l-109 0 l0 -215 l-81 0 l0 631 l185 0 l0 76 l-211 0 l0 79 l211 0 l0 130 l87 0 l0 -130 l129 0 q-31 30 -105 89 l57 42 q67 -47 113 -88 l-52 -43 l72 0 l0 -79 Z" /><glyph glyph-name="cid40149" unicode="&#x8f93;" d="M367 243 l7 -77 l-79 -20 l0 -224 l-79 0 l0 204 q-141 -33 -153 -36 l-20 87 q69 13 173 35 l0 123 l-74 0 q-53 0 -71 -14 q-7 35 -26 76 q12 3 21 21 q9 18 23 59 q20 60 40 164 l-82 0 l0 83 l98 0 q12 72 15 114 l85 -13 q-7 -45 -17 -101 l141 0 l0 -83 l-159 0 q-29 -121 -67 -222 l73 0 l0 144 l79 0 l0 -144 l72 0 l0 -84 l-72 0 l0 -107 l72 15 ZM486 192 l119 0 l0 67 l-119 0 l0 -67 ZM605 394 l-119 0 l0 -66 l119 0 l0 66 ZM680 467 l0 -456 q0 -54 -28 -71 q-26 -13 -100 -13 q-4 40 -22 74 q30 -1 64 -1 q11 0 11 12 l0 111 l-119 0 l0 -199 l-75 0 l0 543 l269 0 ZM853 19 l0 463 l73 0 l0 -463 q0 -32 -7.5 -49 q-7.5 -17 -27.5 -26 q-31 -14 -128 -14 q-6 39 -24 74 q77 -2 98 0 q16 0 16 15 ZM798 445 l0 -361 l-71 0 l0 361 l71 0 ZM525 599 l279 0 q-79 53 -143 121 q-58 -65 -136 -121 ZM655 843 l76 -34 q-11 -17 -22 -31 q96 -103 266 -174 q-40 -35 -57 -71 q-32 15 -67 36 l0 -45 l-381 0 l0 38 q-21 -14 -65 -37 q-27 41 -61 70 q93 41 178 107.5 q85 66.5 133 140.5 Z" /><glyph glyph-name="cid40234" unicode="&#x8fbe;" d="M940 166 l-79 -59 q-78 118 -242 286 q-64 -199 -242 -292 q-22 41 -62 74 q116 59 171 153 q55 94 73 230 l-231 0 l0 90 l239 0 q5 80 7 187 l97 0 q-4 -126 -8 -187 l275 0 l0 -90 l-284 0 q-7 -48 -10 -67 q204 -191 296 -325 ZM280 630 l-85 -45 q-33 86 -119 194 l79 41 q91 -107 125 -190 ZM271 474 l0 -346 q6 -4 28 -20 q22 -16 38 -26 q47 -29 109 -38.5 q62 -9.5 156 -9.5 q199 0 361 22 q-25 -55 -27 -100 q-170 -10 -337 -10 q-100 0 -164.5 11.5 q-64.5 11.5 -114.5 43.5 q-15 9 -37.5 25.5 q-22.5 16.5 -36.5 25 q-14 8.5 -24 8.5 q-37 0 -122 -129 l-65 89 q79 87 143 115 l0 249 l-129 0 l0 90 l222 0 Z" /><glyph glyph-name="cid40258" unicode="&#x8fc7;" d="M712 213 l0 363 l-376 0 l0 88 l376 0 l0 170 l95 0 l0 -170 l130 0 l0 -88 l-130 0 l0 -364 q0 -44 -12 -66 q-12 -22 -41 -32 q-46 -18 -195 -18 q-7 44 -32 95 q47 -2 97.5 -2.5 q50.5 -0.5 61.5 0.5 q15 1 20.5 6 q5.5 5 5.5 18 ZM375 472 l74 41 q102 -120 141 -193 l-78 -48 q-40 78 -137 200 ZM297 644 l-77 -54 q-40 71 -145 172 l72 48 q105 -95 150 -166 ZM271 470 l0 -337 q55 -36 68 -44 q75 -46 263 -46 q192 0 362 21 q-26 -56 -29 -102 q-173 -10 -336 -10 q-98 0 -162.5 11.5 q-64.5 11.5 -116.5 41.5 q-16 9 -38 25 q-22 16 -36 24.5 q-14 8.5 -24 8.5 q-21 0 -50.5 -33.5 q-29.5 -33.5 -70.5 -92.5 l-66 91 q80 86 145 113 l0 242 l-127 0 l0 87 l218 0 Z" /><glyph glyph-name="cid40307" unicode="&#x8fdb;" d="M567 574 l0 -95 q0 -20 -2 -66 l144 0 l0 161 l-142 0 ZM709 324 l-155 0 q-28 -164 -137 -250 q-10 14 -32 35.5 q-22 21.5 -37 31.5 q88 69 113 183 l-126 0 l0 89 l138 0 q2 23 2 67 l0 94 l-133 0 l0 89 l133 0 l0 152 l92 0 l0 -152 l142 0 l0 152 l92 0 l0 -152 l122 0 l0 -89 l-122 0 l0 -161 l141 0 l0 -89 l-141 0 l0 -240 l-92 0 l0 240 ZM299 659 l-70 -59 q-49 73 -152 167 l67 52 q109 -97 155 -160 ZM271 480 l0 -360 q7 -4 28.5 -19 q21.5 -15 37.5 -25 q45 -27 107 -36 q62 -9 157 -9 q205 0 363 21 q-25 -59 -28 -97 q-152 -11 -339 -11 q-185 0 -277 53 q-15 9 -37.5 25.5 q-22.5 16.5 -36.5 24.5 q-14 8 -24 8 q-36 0 -122 -125 l-62 86 q80 84 142 112 l0 266 l-127 0 l0 86 l218 0 Z" /></font>
</defs>
</svg>
